<?xml version="1.0" encoding="utf-8"?>
<!-- Generator: Adobe Illustrator 21.1.0, SVG Export Plug-In . SVG Version: 6.00 Build 0)  -->
<svg version="1.1" id="Calque_1" xmlns="http://www.w3.org/2000/svg" xmlns:xlink="http://www.w3.org/1999/xlink" x="0px" y="0px"
	 viewBox="0 0 106.2 106" style="enable-background:new 0 0 106.2 106;" xml:space="preserve">
<style type="text/css">
	.st0{fill:none;stroke:#FFD600;stroke-width:3;stroke-linecap:round;stroke-linejoin:round;stroke-miterlimit:10;}
</style>
<g id="Group_69_" transform="translate(2060.000000, 171.000000)">
	<path id="Layer-1_70_" class="st0" d="M-2058.4-80.8c0-1.8,1.4-3.2,3.2-3.2h14.1c1.8,0,3.2,1.4,3.2,3.2v13.9h-20.5V-80.8z"/>
	<path id="Layer-2_69_" class="st0" d="M-2038.1-102.2c0-1.8,1.4-3.2,3.2-3.2h14.1c1.8,0,3.2,1.4,3.2,3.2v35.3h-20.5V-102.2z"/>
	<path id="Layer-3_62_" class="st0" d="M-2017.7-123.6c0-1.8,1.4-3.2,3.2-3.2h14.1c1.8,0,3.2,1.4,3.2,3.2v56.7h-20.5V-123.6z"/>
	<path id="Layer-4_57_" class="st0" d="M-1996.4-144.9c0-1.8,1.4-3.2,3.2-3.2h14.1c1.8,0,3.2,1.4,3.2,3.2v78h-20.5V-144.9z"/>
	<path id="Layer-5_42_" class="st0" d="M-1976-166.3c0-1.8,1.4-3.2,3.2-3.2h14.1c1.8,0,3.2,1.4,3.2,3.2v99.4h-20.5V-166.3z"/>
	<path id="Layer-6_33_" class="st0" d="M-2032.4-154.8l5.3,5.3c0.4,0.4,0.7,0.3,0.7-0.3l0-18.7c0-0.6-0.5-1-1-1l-18.7,0
		c-0.6,0-0.7,0.3-0.3,0.7l5.3,5.3l-16.4,16.4c-1.2,1.2-1.2,3.1,0,4.3l4.3,4.3c1.2,1.2,3.1,1.2,4.3,0L-2032.4-154.8L-2032.4-154.8z"
		/>
</g>
</svg>
