<?xml version="1.0" encoding="utf-8"?>
<!-- Generator: Adobe Illustrator 21.1.0, SVG Export Plug-In . SVG Version: 6.00 Build 0)  -->
<svg version="1.1" id="Calque_1" xmlns="http://www.w3.org/2000/svg" xmlns:xlink="http://www.w3.org/1999/xlink" x="0px" y="0px"
	 viewBox="0 0 100.2 100.5" style="enable-background:new 0 0 100.2 100.5;" xml:space="preserve">
<style type="text/css">
	.st0{fill:none;stroke:#FFD600;stroke-width:3;stroke-linecap:round;stroke-linejoin:round;stroke-miterlimit:10;}
</style>
<path id="Layer-2_70_" class="st0" d="M80.9,87C80,71.8,59.2,68.7,58.1,66.1C57,63.6,57,62.4,57,59.3c0-3.1,4-8.4,4-8.4
	s2.5-1.1,3.2-4c0.5-1.9-0.6-4.1-1.1-4.5c1.5-4.7,4.5-20.7-12.6-21.3c-0.1,0-0.2,0-0.2,0c-17.2,0.6-14.2,16.6-12.7,21.3
	c-0.6,0.4-1.6,2.6-1.1,4.5c0.7,2.9,3.2,4,3.2,4s4,5.3,4,8.4c0,3.1,0,4.3-1.1,6.9c-1.1,2.6-21.9,5.7-22.8,20.9"/>
<circle id="Layer-1_85_" class="st0" cx="50.4" cy="50.1" r="48"/>
</svg>
