<?xml version="1.0" encoding="utf-8"?>
<!-- Generator: Adobe Illustrator 21.1.0, SVG Export Plug-In . SVG Version: 6.00 Build 0)  -->
<svg version="1.1" id="Calque_1" xmlns="http://www.w3.org/2000/svg" xmlns:xlink="http://www.w3.org/1999/xlink" x="0px" y="0px"
	 viewBox="0 0 89 110.8" style="enable-background:new 0 0 89 110.8;" xml:space="preserve">
<style type="text/css">
	.st0{fill:none;stroke:#FFD600;stroke-width:3;stroke-linecap:round;stroke-linejoin:round;stroke-miterlimit:10;}
</style>
<path class="st0" d="M78.8,108.4H10.6c-4.4,0-8-3.6-8-8V10.1c0-4.4,3.6-8,8-8h68.2c4.4,0,8,3.6,8,8v90.3
	C86.8,104.8,83.2,108.4,78.8,108.4z"/>
<path class="st0" d="M71.2,32.4h-53c-1.6,0-3-1.4-3-3V15.1c0-1.6,1.4-3,3-3h53c1.7,0,3,1.4,3,3v14.3C74.2,31,72.8,32.4,71.2,32.4z"
	/>
<path class="st0" d="M26.6,55.2h-8.5c-1.6,0-3-1.3-3-3v-8.5c0-1.6,1.3-3,3-3h8.5c1.6,0,3,1.4,3,3v8.5C29.6,53.8,28.2,55.2,26.6,55.2
	z"/>
<path class="st0" d="M48.9,55.2h-8.5c-1.6,0-3-1.3-3-3v-8.5c0-1.6,1.4-3,3-3h8.5c1.7,0,3,1.4,3,3v8.5C51.9,53.8,50.6,55.2,48.9,55.2
	z"/>
<path class="st0" d="M71.3,55.2h-8.5c-1.7,0-3-1.3-3-3v-8.5c0-1.6,1.3-3,3-3h8.5c1.6,0,3,1.4,3,3v8.5C74.3,53.8,72.9,55.2,71.3,55.2
	z"/>
<path class="st0" d="M26.6,76.8h-8.5c-1.6,0-3-1.3-3-3v-8.5c0-1.7,1.3-3,3-3h8.5c1.6,0,3,1.4,3,3v8.5C29.6,75.5,28.2,76.8,26.6,76.8
	z"/>
<path class="st0" d="M48.9,76.8h-8.5c-1.6,0-3-1.3-3-3v-8.5c0-1.7,1.4-3,3-3h8.5c1.7,0,3,1.4,3,3v8.5C51.9,75.5,50.6,76.8,48.9,76.8
	z"/>
<path class="st0" d="M26.6,98.7h-8.5c-1.6,0-3-1.3-3-3v-8.5c0-1.6,1.3-3,3-3h8.5c1.6,0,3,1.4,3,3v8.5C29.6,97.3,28.2,98.7,26.6,98.7
	z"/>
<path class="st0" d="M48.9,98.7h-8.5c-1.6,0-3-1.3-3-3v-8.5c0-1.6,1.4-3,3-3h8.5c1.7,0,3,1.4,3,3v8.5C51.9,97.3,50.6,98.7,48.9,98.7
	z"/>
<path class="st0" d="M71.3,99.6h-8.5c-1.7,0-3-1.3-3-3V65.4c0-1.7,1.3-3,3-3h8.5c1.6,0,3,1.4,3,3v31.3
	C74.3,98.3,72.9,99.6,71.3,99.6z"/>
</svg>
