<?xml version="1.0" encoding="utf-8"?>
<!-- Generator: Adobe Illustrator 21.1.0, SVG Export Plug-In . SVG Version: 6.00 Build 0)  -->
<svg version="1.1" id="Calque_1" xmlns="http://www.w3.org/2000/svg" xmlns:xlink="http://www.w3.org/1999/xlink" x="0px" y="0px"
	 viewBox="0 0 102 102" style="enable-background:new 0 0 102 102;" xml:space="preserve">
<style type="text/css">
	.st0{fill:none;stroke:#FFFFFF;stroke-width:3;stroke-linecap:round;stroke-linejoin:round;}
	.st1{fill:none;stroke:#FFFFFF;stroke-width:4;stroke-linecap:round;stroke-linejoin:round;}
	.st2{fill:none;stroke:#FFFFFF;stroke-width:7;stroke-linecap:round;stroke-linejoin:round;}
</style>
<g id="_x34_8.-Home-Copy_1_" transform="translate(1532.000000, 969.000000)">
	<path id="Layer-1_81_" class="st0" d="M-1488-947.8c-0.3-0.3-0.9-0.3-1.2,0l-18.4,19c-0.8,0.9-0.5,1.6,0.7,1.6h3.4v20.3
		c0,0.5,0.4,0.8,0.8,0.8h28.3c0.5,0,0.8-0.4,0.8-0.8v-20.3h3.4c1.2,0,1.5-0.7,0.7-1.6l-5.7-6.3v-10h-5.9v4.2L-1488-947.8z"/>
	<polyline id="Layer-2_72_" class="st0" points="-1494.6,-906.1 -1494.6,-924.5 -1494.6,-924.5 -1482.3,-924.5 -1482.3,-906.1 	"/>
</g>
<g id="_x31_4.-Loupe-Copy_1_" transform="translate(729.000000, 369.000000)">
	<path id="Layer-1_80_" class="st1" d="M-686.3-286.7c22.1,0,40-17.9,40-40c0-22.1-17.9-40-40-40s-40,17.9-40,40
		C-726.3-304.6-708.4-286.7-686.3-286.7z"/>
	<path id="Layer-2_71_" class="st1" d="M-630.3-270.7l-27.5-27.5"/>
	<path id="Layer-2_80_" class="st2" d="M-630.8-271l-17.6-17.6"/>
</g>
</svg>
