<?xml version="1.0" encoding="utf-8"?>
<!-- Generator: Adobe Illustrator 21.1.0, SVG Export Plug-In . SVG Version: 6.00 Build 0)  -->
<svg version="1.1" id="Calque_1" xmlns="http://www.w3.org/2000/svg" xmlns:xlink="http://www.w3.org/1999/xlink" x="0px" y="0px"
	 viewBox="0 0 113.2 106.2" style="enable-background:new 0 0 113.2 106.2;" xml:space="preserve">
<style type="text/css">
	.st0{fill:none;stroke:#FFD600;stroke-width:4;stroke-linecap:round;stroke-linejoin:round;stroke-miterlimit:10;}
	.st1{fill:none;stroke:#FFD600;stroke-width:3;stroke-linecap:round;stroke-linejoin:round;stroke-miterlimit:10;}
</style>
<polyline id="Layer-7_22_" class="st0" points="2.7,58.9 24.6,37.1 46.2,58.9 89.8,15.4 "/>
<g id="_x31_4.-Loupe-Copy_3_" transform="translate(729.000000, 369.000000)">
	<path id="Layer-1_88_" class="st0" d="M-647.3-273.5c11.4,0,20.7-9.2,20.7-20.7c0-11.4-9.2-20.7-20.7-20.7
		c-11.4,0-20.7,9.2-20.7,20.7C-667.9-282.7-658.7-273.5-647.3-273.5z"/>
	<path id="Layer-2_104_" class="st0" d="M-618.3-265.2l-14.2-14.2"/>
	<path id="Layer-2_103_" class="st0" d="M-618.5-265.3l-9.1-9.1"/>
</g>
<polyline id="Layer-5_54_" class="st1" points="86,13.2 92,13.2 92,19.3 "/>
<polyline id="Layer-6_44_" class="st0" points="65.4,89.4 2.7,89.4 2.7,2.3 2.7,2.3 "/>
</svg>
