<?xml version="1.0" encoding="utf-8"?>
<!-- Generator: Adobe Illustrator 21.1.0, SVG Export Plug-In . SVG Version: 6.00 Build 0)  -->
<svg version="1.1" id="Calque_1" xmlns="http://www.w3.org/2000/svg" xmlns:xlink="http://www.w3.org/1999/xlink" x="0px" y="0px"
	 viewBox="0 0 103 127" style="enable-background:new 0 0 103 127;" xml:space="preserve">
<style type="text/css">
	.st0{fill:none;stroke:#456F90;stroke-width:4;stroke-linejoin:round;stroke-miterlimit:10;}
</style>
<g>
	<path class="st0" d="M92,125H10.8c-4.4,0-8-3.6-8-8V10.4c0-4.4,3.6-8,8-8H92c4.4,0,8,3.6,8,8V117C100,121.4,96.4,125,92,125z"/>
	<path class="st0" d="M82.4,37.3H20.3c-1.6,0-3-1.4-3-3V16.9c0-1.7,1.4-3,3-3h62.1c1.7,0,3,1.4,3,3v17.4
		C85.4,35.9,84.1,37.3,82.4,37.3z"/>
	<path class="st0" d="M31,63.6H20.3c-1.6,0-3-1.4-3-3V49.9c0-1.7,1.4-3,3-3H31c1.7,0,3,1.3,3,3v10.7C34,62.2,32.6,63.6,31,63.6z"/>
	<path class="st0" d="M56.7,63.6H46.1c-1.7,0-3-1.4-3-3V49.9c0-1.7,1.3-3,3-3h10.7c1.7,0,3,1.3,3,3v10.7
		C59.7,62.2,58.4,63.6,56.7,63.6z"/>
	<path class="st0" d="M82.5,63.6H71.9c-1.7,0-3-1.4-3-3V49.9c0-1.7,1.3-3,3-3h10.7c1.7,0,3,1.3,3,3v10.7
		C85.5,62.2,84.2,63.6,82.5,63.6z"/>
	<path class="st0" d="M31,88.6H20.3c-1.6,0-3-1.3-3-3V74.9c0-1.7,1.4-3,3-3H31c1.7,0,3,1.3,3,3v10.7C34,87.2,32.6,88.6,31,88.6z"/>
	<path class="st0" d="M56.7,88.6H46.1c-1.7,0-3-1.3-3-3V74.9c0-1.7,1.3-3,3-3h10.7c1.7,0,3,1.3,3,3v10.7
		C59.7,87.2,58.4,88.6,56.7,88.6z"/>
	<path class="st0" d="M31,113.8H20.3c-1.6,0-3-1.3-3-3v-10.7c0-1.7,1.4-3,3-3H31c1.7,0,3,1.3,3,3v10.7C34,112.4,32.6,113.8,31,113.8
		z"/>
	<path class="st0" d="M56.7,113.8H46.1c-1.7,0-3-1.3-3-3v-10.7c0-1.7,1.3-3,3-3h10.7c1.7,0,3,1.3,3,3v10.7
		C59.7,112.4,58.4,113.8,56.7,113.8z"/>
	<path class="st0" d="M82.5,114.9H71.9c-1.7,0-3-1.3-3-3v-37c0-1.7,1.3-3,3-3h10.7c1.7,0,3,1.3,3,3v37
		C85.5,113.5,84.2,114.9,82.5,114.9z"/>
</g>
</svg>
