<?xml version="1.0" encoding="utf-8"?>
<!-- Generator: Adobe Illustrator 21.1.0, SVG Export Plug-In . SVG Version: 6.00 Build 0)  -->
<svg version="1.1" id="Calque_1" xmlns="http://www.w3.org/2000/svg" xmlns:xlink="http://www.w3.org/1999/xlink" x="0px" y="0px"
	 viewBox="0 0 105.5 105.5" style="enable-background:new 0 0 105.5 105.5;" xml:space="preserve">
<style type="text/css">
	.st0{fill:none;stroke:#456F90;stroke-width:4;stroke-linecap:round;stroke-linejoin:round;stroke-miterlimit:10;}
</style>
<g id="_x32_6.-Settings-Copy" transform="translate(1129.000000, 569.000000)">
	<path id="Layer-1_95_" class="st0" d="M-1087.6-559.7c2.9,0.7,5.7,1.8,8.2,3.4l5.8-4.5l7,7l-4.5,5.8c1.6,2.5,2.7,5.3,3.4,8.3
		l7.2,0.9v10l-7.2,0.9c-0.7,3-1.8,5.8-3.4,8.3l4.5,5.8l-7,7l-5.8-4.5c-2.5,1.6-5.2,2.8-8.2,3.4l-0.9,7.3h-9.8l-0.9-7.3
		c-2.9-0.7-5.7-1.8-8.2-3.4l-5.8,4.5l-7-7l4.5-5.8c-1.6-2.5-2.7-5.3-3.4-8.3l-7.2-0.9v-10l7.2-0.9c0.7-3,1.8-5.8,3.4-8.3l-4.5-5.8
		l7-7l5.8,4.5c2.5-1.6,5.2-2.8,8.2-3.4l0.9-7.3h9.8L-1087.6-559.7z"/>
	<ellipse id="Layer-2_99_" class="st0" cx="-1093.4" cy="-533.8" rx="9.9" ry="10"/>
</g>
<g id="_x32_6.-Settings-Copy_1_" transform="translate(1129.000000, 569.000000)">
	<path id="Layer-1_94_" class="st0" d="M-1042.9-524.4c1.8,0.1,3.5,0.6,5.1,1.3l3-3.2l4.7,3.6l-2.1,3.8c1.1,1.3,2.1,2.9,2.7,4.6
		l4.4-0.1l0.9,5.9l-4.2,1.2c-0.1,1.8-0.6,3.6-1.3,5.2l3.1,3.1l-3.5,4.8l-3.8-2.2c-1.3,1.2-2.9,2.1-4.6,2.7l0.1,4.4l-5.8,0.9
		l-1.2-4.2c-1.8-0.1-3.5-0.6-5.1-1.3l-3,3.2l-4.7-3.6l2.1-3.8c-1.1-1.3-2.1-2.9-2.7-4.6l-4.4,0.1l-0.9-5.9l4.2-1.2
		c0.1-1.8,0.6-3.6,1.3-5.2l-3.1-3.1l3.5-4.8l3.8,2.2c1.3-1.2,2.9-2.1,4.6-2.7l-0.1-4.4l5.8-0.9L-1042.9-524.4z"/>
	<path id="Layer-2_98_" class="st0" d="M-1045-514.4c3.2-0.5,6.2,1.8,6.7,5c0.5,3.3-1.8,6.3-5,6.8s-6.2-1.8-6.7-5
		C-1050.5-510.9-1048.2-513.9-1045-514.4z"/>
</g>
<g id="_x32_6.-Settings-Copy_2_" transform="translate(1129.000000, 569.000000)">
	<path id="Layer-1_93_" class="st0" d="M-1074.6-493.9c1.5,0.1,2.8,0.5,4.1,1.1l2.4-2.6l3.8,2.9l-1.7,3.1c0.9,1.1,1.7,2.3,2.2,3.7
		l3.5-0.1l0.7,4.7l-3.4,0.9c-0.1,1.5-0.5,2.9-1,4.2l2.5,2.5l-2.8,3.8l-3.1-1.7c-1.1,0.9-2.3,1.7-3.7,2.2l0.1,3.5l-4.7,0.7l-0.9-3.4
		c-1.5-0.1-2.8-0.5-4.1-1.1l-2.4,2.6l-3.8-2.9l1.7-3.1c-0.9-1.1-1.7-2.3-2.2-3.7l-3.5,0.1l-0.7-4.7l3.4-0.9c0.1-1.5,0.5-2.9,1-4.2
		l-2.5-2.5l2.8-3.8l3.1,1.7c1.1-0.9,2.3-1.7,3.7-2.2l-0.1-3.5l4.7-0.7L-1074.6-493.9z"/>
	<path id="Layer-2_97_" class="st0" d="M-1076.2-485.9c2.6-0.4,5,1.4,5.4,4.1s-1.4,5.1-4,5.4c-2.6,0.4-5-1.4-5.4-4.1
		S-1078.8-485.5-1076.2-485.9z"/>
</g>
</svg>
