<?xml version="1.0" encoding="utf-8"?>
<!-- Generator: Adobe Illustrator 21.1.0, SVG Export Plug-In . SVG Version: 6.00 Build 0)  -->
<svg version="1.1" id="Calque_1" xmlns="http://www.w3.org/2000/svg" xmlns:xlink="http://www.w3.org/1999/xlink" x="0px" y="0px"
	 viewBox="0 0 129 128" style="enable-background:new 0 0 129 128;" xml:space="preserve">
<style type="text/css">
	.st0{fill:none;stroke:#456F90;stroke-width:4;stroke-linejoin:round;stroke-miterlimit:10;}
</style>
<g id="Group_83_" transform="translate(2060.000000, 171.000000)">
	<path id="Layer-1_93_" class="st0" d="M-2056.9-62.1c0-2.1,1.7-3.9,3.8-3.9h16.9c2.1,0,3.8,1.7,3.8,3.9v16.6h-24.6V-62.1z"/>
	<path id="Layer-2_97_" class="st0" d="M-2032.6-87.7c0-2.1,1.7-3.9,3.8-3.9h16.9c2.1,0,3.8,1.7,3.8,3.9v42.3h-24.6V-87.7z"/>
	<path id="Layer-3_73_" class="st0" d="M-2008.2-113.4c0-2.1,1.7-3.8,3.8-3.8h16.9c2.1,0,3.8,1.7,3.8,3.8v67.9h-24.6V-113.4z"/>
	<path id="Layer-4_70_" class="st0" d="M-1982.6-139c0-2.1,1.7-3.8,3.8-3.8h16.9c2.1,0,3.8,1.7,3.8,3.8v93.6h-24.6V-139z"/>
	<path id="Layer-5_53_" class="st0" d="M-1958.2-164.6c0-2.1,1.7-3.9,3.8-3.9h16.9c2.1,0,3.8,1.7,3.8,3.9v119.2h-24.6V-164.6z"/>
	<path id="Layer-6_42_" class="st0" d="M-2025.8-150.8l6.4,6.4c0.5,0.5,0.9,0.3,0.9-0.4l0-22.5c0-0.7-0.6-1.2-1.2-1.2l-22.5,0
		c-0.7,0-0.8,0.4-0.4,0.9l6.4,6.4l-19.7,19.7c-1.4,1.4-1.4,3.8,0,5.2l5.2,5.2c1.4,1.4,3.8,1.4,5.2,0L-2025.8-150.8L-2025.8-150.8z"
		/>
</g>
</svg>
