<?xml version="1.0" encoding="utf-8"?>
<!-- Generator: Adobe Illustrator 21.1.0, SVG Export Plug-In . SVG Version: 6.00 Build 0)  -->
<svg version="1.1" id="Calque_1" xmlns="http://www.w3.org/2000/svg" xmlns:xlink="http://www.w3.org/1999/xlink" x="0px" y="0px"
	 viewBox="0 0 100.5 100.2" style="enable-background:new 0 0 100.5 100.2;" xml:space="preserve">
<style type="text/css">
	.st0{fill:none;stroke:#456F90;stroke-width:4;stroke-linecap:round;stroke-linejoin:round;stroke-miterlimit:10;}
</style>
<g id="Group_85_" transform="translate(260.000000, 573.000000)">
	<path id="Layer-1_98_" class="st0" d="M-234.8-571h50c12.7,0,23,10.3,23,23v50c0,12.7-10.3,23-23,23h-50c-12.7,0-23-10.3-23-23v-50
		C-257.8-560.7-247.5-571-234.8-571z"/>
	<path id="Layer-2_101_" class="st0" d="M-240.4-527.8h46.1"/>
	<path id="Layer-3_74_" class="st0" d="M-240.4-518.2h41.3"/>
	<path id="Layer-4_71_" class="st0" d="M-194.1-542.1c-4-3.1-9.1-4.9-14.5-4.9c-13.3,0-24,10.7-24,24s10.7,24,24,24l0,0
		c5.5,0,10.5-1.8,14.5-4.9"/>
</g>
</svg>
