<?xml version="1.0" encoding="UTF-8" standalone="no"?><!DOCTYPE svg PUBLIC "-//W3C//DTD SVG 1.1//EN" "http://www.w3.org/Graphics/SVG/1.1/DTD/svg11.dtd"><svg width="100%" height="100%" viewBox="0 0 430 530" version="1.1" xmlns="http://www.w3.org/2000/svg" xmlns:xlink="http://www.w3.org/1999/xlink" xml:space="preserve" xmlns:serif="http://www.serif.com/" style="fill-rule:evenodd;clip-rule:evenodd;stroke-linejoin:round;stroke-miterlimit:10;"><g><path d="M383.333,520.833l-338.333,0c-18.333,0 -33.333,-15 -33.333,-33.333l0,-444.167c0,-18.333 15,-33.333 33.333,-33.333l338.333,0c18.334,0 33.334,15 33.334,33.333l0,444.167c0,18.333 -15,33.333 -33.334,33.333Z" style="fill:none;fill-rule:nonzero;stroke:#acbc77;stroke-width:16.67px;"/><path d="M343.333,155.417l-258.75,0c-6.666,0 -12.5,-5.834 -12.5,-12.5l0,-72.5c0,-7.084 5.834,-12.5 12.5,-12.5l258.75,0c7.084,0 12.5,5.833 12.5,12.5l0,72.5c0,6.666 -5.416,12.5 -12.5,12.5Z" style="fill:none;fill-rule:nonzero;stroke:#acbc77;stroke-width:16.67px;"/><path d="M129.167,265l-44.584,0c-6.666,0 -12.5,-5.833 -12.5,-12.5l0,-44.583c0,-7.084 5.834,-12.5 12.5,-12.5l44.584,0c7.083,0 12.5,5.416 12.5,12.5l0,44.583c0,6.667 -5.834,12.5 -12.5,12.5Z" style="fill:none;fill-rule:nonzero;stroke:#acbc77;stroke-width:16.67px;"/><path d="M236.25,265l-44.167,0c-7.083,0 -12.5,-5.833 -12.5,-12.5l0,-44.583c0,-7.084 5.417,-12.5 12.5,-12.5l44.584,0c7.083,0 12.5,5.416 12.5,12.5l0,44.583c-0.417,6.667 -5.834,12.5 -12.917,12.5Z" style="fill:none;fill-rule:nonzero;stroke:#acbc77;stroke-width:16.67px;"/><path d="M343.75,265l-44.167,0c-7.083,0 -12.5,-5.833 -12.5,-12.5l0,-44.583c0,-7.084 5.417,-12.5 12.5,-12.5l44.584,0c7.083,0 12.5,5.416 12.5,12.5l0,44.583c-0.417,6.667 -5.834,12.5 -12.917,12.5Z" style="fill:none;fill-rule:nonzero;stroke:#acbc77;stroke-width:16.67px;"/><path d="M129.167,369.167l-44.584,0c-6.666,0 -12.5,-5.417 -12.5,-12.5l0,-44.584c0,-7.083 5.834,-12.5 12.5,-12.5l44.584,0c7.083,0 12.5,5.417 12.5,12.5l0,44.584c0,6.666 -5.834,12.5 -12.5,12.5Z" style="fill:none;fill-rule:nonzero;stroke:#acbc77;stroke-width:16.67px;"/><path d="M236.25,369.167l-44.167,0c-7.083,0 -12.5,-5.417 -12.5,-12.5l0,-44.584c0,-7.083 5.417,-12.5 12.5,-12.5l44.584,0c7.083,0 12.5,5.417 12.5,12.5l0,44.584c-0.417,6.666 -5.834,12.5 -12.917,12.5Z" style="fill:none;fill-rule:nonzero;stroke:#acbc77;stroke-width:16.67px;"/><path d="M129.167,474.167l-44.584,0c-6.666,0 -12.5,-5.417 -12.5,-12.5l0,-44.584c0,-7.083 5.834,-12.5 12.5,-12.5l44.584,0c7.083,0 12.5,5.417 12.5,12.5l0,44.584c0,6.666 -5.834,12.5 -12.5,12.5Z" style="fill:none;fill-rule:nonzero;stroke:#acbc77;stroke-width:16.67px;"/><path d="M236.25,474.167l-44.167,0c-7.083,0 -12.5,-5.417 -12.5,-12.5l0,-44.584c0,-7.083 5.417,-12.5 12.5,-12.5l44.584,0c7.083,0 12.5,5.417 12.5,12.5l0,44.584c-0.417,6.666 -5.834,12.5 -12.917,12.5Z" style="fill:none;fill-rule:nonzero;stroke:#acbc77;stroke-width:16.67px;"/><path d="M343.75,478.75l-44.167,0c-7.083,0 -12.5,-5.417 -12.5,-12.5l0,-154.167c0,-7.083 5.417,-12.5 12.5,-12.5l44.584,0c7.083,0 12.5,5.417 12.5,12.5l0,154.167c-0.417,6.667 -5.834,12.5 -12.917,12.5Z" style="fill:none;fill-rule:nonzero;stroke:#acbc77;stroke-width:16.67px;"/></g></svg>