<?xml version="1.0" encoding="utf-8"?>
<!-- Generator: Adobe Illustrator 21.1.0, SVG Export Plug-In . SVG Version: 6.00 Build 0)  -->
<svg version="1.1" id="Calque_1" xmlns="http://www.w3.org/2000/svg" xmlns:xlink="http://www.w3.org/1999/xlink" x="0px" y="0px"
	 viewBox="0 0 842.1 576" style="enable-background:new 0 0 842.1 576;" xml:space="preserve">
<style type="text/css">
	.st0{fill:none;stroke:url(#SVGID_1_);stroke-width:11;stroke-miterlimit:10;}
	.st1{fill:#456F90;}
	.st2{fill:none;stroke:#FFFFFF;stroke-width:3;stroke-linecap:round;stroke-linejoin:round;}
	.st3{fill:none;stroke:#FFFFFF;stroke-width:5;stroke-linecap:round;stroke-linejoin:round;}
	.st4{fill:none;stroke:#FFFFFF;stroke-width:3;stroke-linecap:round;stroke-linejoin:round;stroke-miterlimit:10;}
	.st5{fill:none;stroke:#FFFFFF;stroke-width:3;stroke-miterlimit:10;}
	.st6{fill:none;stroke:#FFFFFF;stroke-width:3;stroke-linejoin:round;stroke-miterlimit:10;}
	.st7{font-family:'Montserrat';}
	.st8{font-size:25px;}
	.st9{enable-background:new    ;}
	.st10{font-family:'Questrial';}
	.st11{font-size:26px;}
	.st12{font-size:26.0444px;}
</style>
<linearGradient id="SVGID_1_" gradientUnits="userSpaceOnUse" x1="1.2" y1="754.3489" x2="750.0001" y2="754.3489" gradientTransform="matrix(1 0 0 1 0 -473.0989)">
	<stop  offset="0" style="stop-color:#D1DBE4"/>
	<stop  offset="1" style="stop-color:#456F90"/>
</linearGradient>
<path class="st0" d="M1.2,335.5c22,0,44-8.4,60.7-25.2c16.7-16.8,25.2-38.8,25.2-60.7v-29.1l0,0c0-22,8.4-44,25.2-60.7
	s38.8-25.2,60.7-25.2c22,0,44,8.4,60.7,25.2s25.1,38.7,25.1,60.7s-8.4,44-25.2,60.7l0,0c-33.5,33.5-33.5,87.9,0,121.5
	s87.9,33.5,121.5,0s33.5-87.9,0-121.5l0,0c-33.5-33.5-33.5-87.9,0-121.5s87.9-33.5,121.5,0s33.5,87.9,0,121.5l-0.1,0.1
	c-33.5,33.5-33.5,87.9,0,121.5s87.9,33.5,121.5,0s33.5-87.9,0-121.5h-0.1c-16.8-16.8-25.2-38.8-25.2-60.7s8.4-44,25.2-60.7
	s38.8-25.2,60.7-25.2c22,0,44,8.4,60.7,25.2s25.2,38.8,25.2,60.7s-8.4,44-25.2,60.7"/>
<g>
	<circle class="st1" cx="293.9" cy="342" r="75.8"/>
</g>
<g>
	<g id="_x34_8.-Home-Copy_1_" transform="translate(1532.000000, 969.000000)">
		<path id="Layer-1_3_" class="st2" d="M-1248.9-660.8c-0.3-0.3-0.9-0.3-1.3,0l-19.6,20.2c-0.9,0.9-0.6,1.7,0.7,1.7h3.6v21.6
			c0,0.5,0.4,0.9,0.9,0.9h30.1c0.5,0,0.9-0.4,0.9-0.9v-21.6h3.6c1.3,0,1.6-0.8,0.8-1.7l-6-6.6v-10.6h-6.2v4.4L-1248.9-660.8z"/>
		<polyline id="Layer-2_4_" class="st2" points="-1255.9,-616.4 -1255.9,-635.9 -1255.9,-635.9 -1242.9,-635.9 -1242.9,-616.4 		"/>
	</g>
	<path id="Layer-1_2_" class="st2" d="M282.9,372c22.1,0,40-17.9,40-40s-17.9-40-40-40s-40,17.9-40,40S260.8,372,282.9,372z"/>
	<path id="Layer-2_3_" class="st2" d="M338.9,388l-27.5-27.5"/>
	<path id="Layer-2_2_" class="st3" d="M338.5,387.7l-17.6-17.6"/>
</g>
<g>
	<g>
		<circle class="st1" cx="537.4" cy="342.7" r="75.8"/>
	</g>
	<g id="paint-roller_2_">
		<path class="st4" d="M545.7,384.4h-11.8c-1.1,0-2-0.9-2-2V353c0-1.1,0.9-2,2-2h10.8c1.1,0,2,0.9,2,2v30.4
			C546.7,384,546.2,384.4,545.7,384.4z"/>
		<line class="st4" x1="576.4" y1="313.9" x2="572.7" y2="313.9"/>
		<path class="st4" d="M507.7,313.9h-5.6c-2,0-3.7,1.7-3.7,3.7v16.7c0,2,1.7,3.7,3.7,3.7h33.4c2,0,3.7,1.7,3.7,3.7v7.4"/>
		<path class="st4" d="M546.7,384.4h-14.8V354c0-1.7,1.3-3,3-3h8.8c1.7,0,3,1.3,3,3V384.4z"/>
		<path class="st4" d="M568.7,326.9h-58.8c-2.2,0-4-1.8-4-4v-18c0-2.2,1.8-4,4-4h58.8c2.2,0,4,1.8,4,4v18
			C572.7,325.1,570.9,326.9,568.7,326.9z"/>
		<line class="st4" x1="537.4" y1="367.7" x2="541.1" y2="367.7"/>
		<line class="st4" x1="537.4" y1="360.3" x2="541.1" y2="360.3"/>
		<line class="st4" x1="537.4" y1="375.1" x2="541.1" y2="375.1"/>
	</g>
</g>
<g>
	<g>
		<circle class="st1" cx="658.7" cy="220.5" r="75.8"/>
	</g>
	<g>
		<polyline class="st5" points="609.9,219 620.9,219 620.9,256.5 609.7,256.5 		"/>
		<path class="st6" d="M628.1,222.2l0.1,31.7l0,0c0,0,28,8.7,28.9,9c1,0.3,3.8,0.9,5.4,0.9s4.2-0.8,4.2-0.8s36.5-12.5,38-13.1
			s3.6-3.1,2.7-7.1c-1.5-5.1-4.6-5.9-6.8-5.4c-2,0.4-26,6.1-27.7,6.1c-0.9,0-2.3,0.2-3.7,0.2c-1.2,0-2.4-0.2-3.2-0.2
			c-1.7,0-17.9-8.9-17.9-8.9s2-0.8,3.8-0.8s5.1,2.2,8,2.2s6.1-2.4,6.1-4.8c0-1.4,0.4-4.2-3-6.7c-3.9-2.8-12-5.2-15.2-5.2
			c-4.3,0-8.3,2.8-10.1,2.8C635.8,222.2,628.1,222.2,628.1,222.2z"/>
		<circle class="st6" cx="682.4" cy="193.9" r="16.8"/>
		<circle class="st6" cx="688.1" cy="193.8" r="6.1"/>
		<polygon class="st6" points="660.9,190.8 660.9,190.8 653.3,183.5 648.9,186.9 643.8,183.6 639.4,186.8 636.1,183.8 629.3,183.8
			618.9,192.1 628.5,200.8 661,200.8 661,195.6 631,195.6 630.1,193.2 631,190.8 		"/>
	</g>
</g>
<g>
	<circle class="st1" cx="415.9" cy="220.7" r="75.8"/>
</g>
<g>
	<rect x="414.2" y="174.5" class="st4" width="46.6" height="25.4"/>
	<circle class="st5" cx="384.7" cy="251.2" r="15.6"/>
	<circle class="st5" cx="443.9" cy="250.7" r="15.6"/>
	<line class="st4" x1="400.4" y1="251.4" x2="428.3" y2="251.4"/>
	<line class="st4" x1="443.9" y1="235.1" x2="444.1" y2="200.9"/>
	<path class="st4" d="M384.7,235.1c0-17.7,4.2-38.9,28.7-48.4"/>
	<polyline class="st4" points="422.4,246 428.2,251.8 422.4,257.6 	"/>
	<polyline class="st4" points="390.5,229.2 384.7,235 379,229.2 	"/>
	<polyline class="st4" points="438.5,206.7 444.3,200.9 450,206.7 	"/>
</g>
<g>
	<g>
		<circle class="st1" cx="172.5" cy="220.5" r="75.8"/>
	</g>
	<g id="Group_1_" transform="translate(1660.000000, 581.000000)">
		<path id="Layer-1_1_" class="st4" d="M-1483.5-324.6c22.1,0,39.9-17.9,39.9-39.9c0-22.1-17.9-39.9-39.9-39.9s-39.9,17.9-39.9,39.9
			C-1523.5-342.5-1505.6-324.6-1483.5-324.6L-1483.5-324.6z"/>
		<path id="Layer-2_1_" class="st4" d="M-1483.5-339.2c14,0,25.4-11.4,25.4-25.4s-11.4-25.4-25.4-25.4s-25.4,11.4-25.4,25.4
			S-1497.6-339.2-1483.5-339.2L-1483.5-339.2z"/>
		<path id="Layer-3_1_" class="st4" d="M-1483.5-353.7c6,0,10.9-4.9,10.9-10.9s-4.9-10.9-10.9-10.9s-10.9,4.9-10.9,10.9
			S-1489.6-353.7-1483.5-353.7L-1483.5-353.7z"/>
		<path id="Layer-4_1_" class="st4" d="M-1484-364l-41.5,41.5"/>
		<polyline id="Layer-5_1_" class="st4" points="-1487.5,-366.5 -1481.5,-366.5 -1481.5,-360.5 		"/>
		<polyline id="Layer-6_1_" class="st4" points="-1531.5,-322.5 -1525.5,-322.5 -1525.5,-316.5 		"/>
	</g>
</g>
<text transform="matrix(1 0 0 1 627.3137 43.6608)" class="st1 st7 st8">Étape 5:</text>
<text transform="matrix(1 0 0 1 627.3137 74.8608)" class="st9"><tspan x="0" y="0" class="st1 st7 st8">Mise en location</tspan><tspan x="203.7" y="0" class="st1 st10 st11"> </tspan></text>
<text transform="matrix(1 0 0 1 627.3137 106.0608)" class="st1 st7 st8">et gestion</text>
<text transform="matrix(1 0 0 1 179.3135 471.1973)" class="st1 st7 st8">Étape 2:</text>
<text transform="matrix(1 0 0 1 179.3135 502.4971)" class="st1 st7 st8">Recherche</text>
<text transform="matrix(0.9983 0 0 1 314.7109 502.4971)" class="st1 st10 st12"> </text>
<text transform="matrix(1 0 0 1 179.3135 533.6973)" class="st1 st7 st8">d’une opportunité</text>
<text transform="matrix(1 0 0 1 282.3135 43.1973)" class="st1 st7 st8">Étape 3:</text>
<text transform="matrix(1 0 0 1 282.3135 74.4976)" class="st1 st7 st8">Proposition d’un</text>
<text transform="matrix(0.9983 0 0 1 489.5605 74.4976)" class="st1 st10 st12"> </text>
<text transform="matrix(1 0 0 1 282.3135 105.6973)" class="st1 st7 st8">scénario d’investissement</text>
<text transform="matrix(1 0 0 1 458.9805 471.1963)" class="st1 st7 st8">Étape 4:</text>
<text transform="matrix(1 0 0 1 458.9805 502.4961)" class="st9"><tspan x="0" y="0" class="st1 st7 st8">Travaux, aménagement</tspan><tspan x="298.4" y="0" class="st1 st7 st11">,</tspan></text>
<text transform="matrix(1 0 0 1 458.9805 533.6963)" class="st1 st7 st8">décoration</text>
<text transform="matrix(1 0 0 1 15.6748 74.3532)" class="st1 st7 st8">Étape 1:</text>
<text transform="matrix(1 0 0 1 15.6748 105.5532)" class="st1 st7 st8">Définir les objectifs</text>
</svg>
