<?xml version="1.0" encoding="utf-8"?>
<!-- Generator: Adobe Illustrator 21.1.0, SVG Export Plug-In . SVG Version: 6.00 Build 0)  -->
<svg version="1.1" id="Calque_1" xmlns="http://www.w3.org/2000/svg" xmlns:xlink="http://www.w3.org/1999/xlink" x="0px" y="0px"
	 viewBox="0 0 842.1 576" style="enable-background:new 0 0 842.1 576;" xml:space="preserve">
<style type="text/css">
	.st0{fill:none;stroke:url(#SVGID_1_);stroke-width:11;stroke-miterlimit:10;}
	.st1{fill:#456F90;}
	.st2{fill:none;stroke:#FFFFFF;stroke-width:3;stroke-linecap:round;stroke-linejoin:round;}
	.st3{fill:none;stroke:#FFFFFF;stroke-width:5;stroke-linecap:round;stroke-linejoin:round;}
	.st4{fill:none;stroke:#FFFFFF;stroke-width:3;stroke-linecap:round;stroke-linejoin:round;stroke-miterlimit:10;}
	.st5{fill:none;stroke:#FFFFFF;stroke-width:3;stroke-miterlimit:10;}
	.st6{fill:none;stroke:#FFFFFF;stroke-width:3;stroke-linejoin:round;stroke-miterlimit:10;}
	.st7{enable-background:new    ;}
</style>
<linearGradient id="SVGID_1_" gradientUnits="userSpaceOnUse" x1="1.2" y1="754.3489" x2="750.0001" y2="754.3489" gradientTransform="matrix(1 0 0 1 0 -473.0989)">
	<stop  offset="0" style="stop-color:#D1DBE4"/>
	<stop  offset="1" style="stop-color:#456F90"/>
</linearGradient>
<path class="st0" d="M1.2,335.5c22,0,44-8.4,60.7-25.2c16.7-16.8,25.2-38.8,25.2-60.7v-29.1l0,0c0-22,8.4-44,25.2-60.7
	s38.8-25.2,60.7-25.2c22,0,44,8.4,60.7,25.2s25.1,38.7,25.1,60.7s-8.4,44-25.2,60.7l0,0c-33.5,33.5-33.5,87.9,0,121.5
	s87.9,33.5,121.5,0s33.5-87.9,0-121.5l0,0c-33.5-33.5-33.5-87.9,0-121.5s87.9-33.5,121.5,0s33.5,87.9,0,121.5l-0.1,0.1
	c-33.5,33.5-33.5,87.9,0,121.5s87.9,33.5,121.5,0s33.5-87.9,0-121.5h-0.1c-16.8-16.8-25.2-38.8-25.2-60.7s8.4-44,25.2-60.7
	s38.8-25.2,60.7-25.2c22,0,44,8.4,60.7,25.2s25.2,38.8,25.2,60.7s-8.4,44-25.2,60.7"/>
<g>
	<circle class="st1" cx="293.9" cy="342" r="75.8"/>
</g>
<g>
	<g id="_x34_8.-Home-Copy_1_" transform="translate(1532.000000, 969.000000)">
		<path id="Layer-1_3_" class="st2" d="M-1248.9-660.8c-0.3-0.3-0.9-0.3-1.3,0l-19.6,20.2c-0.9,0.9-0.6,1.7,0.7,1.7h3.6v21.6
			c0,0.5,0.4,0.9,0.9,0.9h30.1c0.5,0,0.9-0.4,0.9-0.9v-21.6h3.6c1.3,0,1.6-0.8,0.8-1.7l-6-6.6v-10.6h-6.2v4.4L-1248.9-660.8z"/>
		<polyline id="Layer-2_4_" class="st2" points="-1255.9,-616.4 -1255.9,-635.9 -1255.9,-635.9 -1242.9,-635.9 -1242.9,-616.4 		"/>
	</g>
	<path id="Layer-1_2_" class="st2" d="M282.9,372c22.1,0,40-17.9,40-40s-17.9-40-40-40s-40,17.9-40,40S260.8,372,282.9,372z"/>
	<path id="Layer-2_3_" class="st2" d="M338.9,388l-27.5-27.5"/>
	<path id="Layer-2_2_" class="st3" d="M338.5,387.7l-17.6-17.6"/>
</g>
<g>
	<g>
		<circle class="st1" cx="537.4" cy="342.7" r="75.8"/>
	</g>
	<g id="paint-roller_2_">
		<path class="st4" d="M545.7,384.4h-11.8c-1.1,0-2-0.9-2-2V353c0-1.1,0.9-2,2-2h10.8c1.1,0,2,0.9,2,2v30.4
			C546.7,384,546.2,384.4,545.7,384.4z"/>
		<line class="st4" x1="576.4" y1="313.9" x2="572.7" y2="313.9"/>
		<path class="st4" d="M507.7,313.9h-5.6c-2,0-3.7,1.7-3.7,3.7v16.7c0,2,1.7,3.7,3.7,3.7h33.4c2,0,3.7,1.7,3.7,3.7v7.4"/>
		<path class="st4" d="M546.7,384.4h-14.8V354c0-1.7,1.3-3,3-3h8.8c1.7,0,3,1.3,3,3V384.4z"/>
		<path class="st4" d="M568.7,326.9h-58.8c-2.2,0-4-1.8-4-4v-18c0-2.2,1.8-4,4-4h58.8c2.2,0,4,1.8,4,4v18
			C572.7,325.1,570.9,326.9,568.7,326.9z"/>
		<line class="st4" x1="537.4" y1="367.7" x2="541.1" y2="367.7"/>
		<line class="st4" x1="537.4" y1="360.3" x2="541.1" y2="360.3"/>
		<line class="st4" x1="537.4" y1="375.1" x2="541.1" y2="375.1"/>
	</g>
</g>
<g>
	<g>
		<circle class="st1" cx="658.7" cy="220.5" r="75.8"/>
	</g>
	<g>
		<polyline class="st5" points="609.9,219 620.9,219 620.9,256.5 609.7,256.5 		"/>
		<path class="st6" d="M628.1,222.2l0.1,31.7l0,0c0,0,28,8.7,28.9,9c1,0.3,3.8,0.9,5.4,0.9s4.2-0.8,4.2-0.8s36.5-12.5,38-13.1
			s3.6-3.1,2.7-7.1c-1.5-5.1-4.6-5.9-6.8-5.4c-2,0.4-26,6.1-27.7,6.1c-0.9,0-2.3,0.2-3.7,0.2c-1.2,0-2.4-0.2-3.2-0.2
			c-1.7,0-17.9-8.9-17.9-8.9s2-0.8,3.8-0.8s5.1,2.2,8,2.2s6.1-2.4,6.1-4.8c0-1.4,0.4-4.2-3-6.7c-3.9-2.8-12-5.2-15.2-5.2
			c-4.3,0-8.3,2.8-10.1,2.8C635.8,222.2,628.1,222.2,628.1,222.2z"/>
		<circle class="st6" cx="682.4" cy="193.9" r="16.8"/>
		<circle class="st6" cx="688.1" cy="193.8" r="6.1"/>
		<polygon class="st6" points="660.9,190.8 660.9,190.8 653.3,183.5 648.9,186.9 643.8,183.6 639.4,186.8 636.1,183.8 629.3,183.8 
			618.9,192.1 628.5,200.8 661,200.8 661,195.6 631,195.6 630.1,193.2 631,190.8 		"/>
	</g>
</g>
<g>
	<circle class="st1" cx="415.9" cy="220.7" r="75.8"/>
</g>
<g>
	<rect x="414.2" y="174.5" class="st4" width="46.6" height="25.4"/>
	<circle class="st5" cx="384.7" cy="251.2" r="15.6"/>
	<circle class="st5" cx="443.9" cy="250.7" r="15.6"/>
	<line class="st4" x1="400.4" y1="251.4" x2="428.3" y2="251.4"/>
	<line class="st4" x1="443.9" y1="235.1" x2="444.1" y2="200.9"/>
	<path class="st4" d="M384.7,235.1c0-17.7,4.2-38.9,28.7-48.4"/>
	<polyline class="st4" points="422.4,246 428.2,251.8 422.4,257.6 	"/>
	<polyline class="st4" points="390.5,229.2 384.7,235 379,229.2 	"/>
	<polyline class="st4" points="438.5,206.7 444.3,200.9 450,206.7 	"/>
</g>
<g>
	<g>
		<circle class="st1" cx="172.5" cy="220.5" r="75.8"/>
	</g>
	<g id="Group_1_" transform="translate(1660.000000, 581.000000)">
		<path id="Layer-1_1_" class="st4" d="M-1483.5-324.6c22.1,0,39.9-17.9,39.9-39.9c0-22.1-17.9-39.9-39.9-39.9s-39.9,17.9-39.9,39.9
			C-1523.5-342.5-1505.6-324.6-1483.5-324.6L-1483.5-324.6z"/>
		<path id="Layer-2_1_" class="st4" d="M-1483.5-339.2c14,0,25.4-11.4,25.4-25.4s-11.4-25.4-25.4-25.4s-25.4,11.4-25.4,25.4
			S-1497.6-339.2-1483.5-339.2L-1483.5-339.2z"/>
		<path id="Layer-3_1_" class="st4" d="M-1483.5-353.7c6,0,10.9-4.9,10.9-10.9s-4.9-10.9-10.9-10.9s-10.9,4.9-10.9,10.9
			S-1489.6-353.7-1483.5-353.7L-1483.5-353.7z"/>
		<path id="Layer-4_1_" class="st4" d="M-1484-364l-41.5,41.5"/>
		<polyline id="Layer-5_1_" class="st4" points="-1487.5,-366.5 -1481.5,-366.5 -1481.5,-360.5 		"/>
		<polyline id="Layer-6_1_" class="st4" points="-1531.5,-322.5 -1525.5,-322.5 -1525.5,-316.5 		"/>
	</g>
</g>
<g class="st7">
	<path class="st1" d="M642.5,42.1v1.6h-12.4V26.2h12v1.6H632V34h9v1.6h-9v6.5H642.5z M638,21.6h2.4l-4,3.1h-1.8L638,21.6z"/>
	<path class="st1" d="M653.1,42.9c-0.3,0.3-0.7,0.5-1.2,0.7c-0.5,0.2-1,0.2-1.5,0.2c-1.2,0-2.2-0.3-2.8-1c-0.7-0.7-1-1.6-1-2.8v-8
		h-2.4v-1.5h2.4v-2.9h1.8v2.9h4V32h-4v7.9c0,0.8,0.2,1.4,0.6,1.8c0.4,0.4,1,0.6,1.7,0.6c0.4,0,0.7-0.1,1.1-0.2
		c0.3-0.1,0.6-0.3,0.9-0.5L653.1,42.9z"/>
	<path class="st1" d="M664.8,31.7c0.9,0.9,1.4,2.1,1.4,3.8v8.2h-1.7v-2c-0.4,0.7-1,1.2-1.8,1.6c-0.8,0.4-1.7,0.6-2.8,0.6
		c-1.5,0-2.6-0.3-3.5-1c-0.9-0.7-1.3-1.6-1.3-2.8c0-1.1,0.4-2,1.2-2.7c0.8-0.7,2.1-1,3.9-1h4.2v-0.8c0-1.1-0.3-2-1-2.6
		c-0.6-0.6-1.6-0.9-2.8-0.9c-0.8,0-1.6,0.1-2.4,0.4c-0.8,0.3-1.4,0.7-2,1.1l-0.8-1.3c0.7-0.6,1.5-1,2.4-1.3c0.9-0.3,1.9-0.5,3-0.5
		C662.6,30.4,663.9,30.8,664.8,31.7z M662.8,41.7c0.7-0.5,1.2-1.1,1.6-2v-2.1h-4.1c-2.2,0-3.4,0.8-3.4,2.3c0,0.8,0.3,1.4,0.9,1.8
		c0.6,0.4,1.4,0.7,2.5,0.7C661.3,42.4,662.1,42.2,662.8,41.7z"/>
	<path class="st1" d="M681.2,31.2c1,0.6,1.8,1.3,2.4,2.4c0.6,1,0.8,2.2,0.8,3.5c0,1.3-0.3,2.5-0.8,3.5c-0.6,1-1.3,1.8-2.3,2.4
		c-1,0.6-2.1,0.8-3.4,0.8c-1.1,0-2-0.2-2.9-0.7s-1.6-1.1-2.1-1.9v7.3H671v-18h1.7v2.6c0.5-0.9,1.2-1.5,2.1-2s1.9-0.7,3-0.7
		C679,30.4,680.2,30.7,681.2,31.2z M680.2,41.6c0.8-0.4,1.3-1,1.8-1.8c0.4-0.8,0.6-1.7,0.6-2.7s-0.2-1.9-0.6-2.7
		c-0.4-0.8-1-1.4-1.8-1.8s-1.6-0.7-2.5-0.7c-0.9,0-1.8,0.2-2.5,0.7c-0.7,0.4-1.3,1-1.8,1.8c-0.4,0.8-0.6,1.7-0.6,2.7
		s0.2,1.9,0.6,2.7c0.4,0.8,1,1.4,1.8,1.8c0.7,0.4,1.6,0.6,2.5,0.6C678.6,42.2,679.4,42,680.2,41.6z"/>
	<path class="st1" d="M699.4,37.6h-11c0.1,1.4,0.6,2.5,1.6,3.3c1,0.8,2.2,1.3,3.6,1.3c0.8,0,1.6-0.1,2.2-0.4
		c0.7-0.3,1.3-0.7,1.8-1.3l1,1.1c-0.6,0.7-1.3,1.2-2.2,1.6s-1.8,0.5-2.9,0.5c-1.3,0-2.5-0.3-3.6-0.9c-1-0.6-1.9-1.4-2.4-2.4
		c-0.6-1-0.9-2.2-0.9-3.5c0-1.3,0.3-2.4,0.8-3.5c0.6-1,1.3-1.8,2.3-2.4c1-0.6,2.1-0.8,3.3-0.8s2.3,0.3,3.3,0.8
		c1,0.6,1.7,1.4,2.3,2.4c0.5,1,0.8,2.2,0.8,3.5L699.4,37.6z M689.9,33.1c-0.9,0.8-1.3,1.9-1.5,3.2h9.3c-0.1-1.3-0.6-2.4-1.5-3.2
		c-0.9-0.8-1.9-1.2-3.2-1.2C691.8,31.9,690.8,32.3,689.9,33.1z"/>
	<path class="st1" d="M718.6,34.7c1.2,0.9,1.7,2.2,1.7,3.8c0,1-0.2,1.9-0.7,2.7c-0.5,0.8-1.2,1.4-2.1,1.9c-1,0.5-2.1,0.7-3.5,0.7
		c-1.2,0-2.4-0.2-3.6-0.6c-1.1-0.4-2-1-2.7-1.6l0.9-1.4c0.6,0.6,1.4,1.1,2.3,1.5c0.9,0.4,2,0.6,3.1,0.6c1.5,0,2.6-0.3,3.4-1
		c0.8-0.7,1.2-1.5,1.2-2.6c0-1.2-0.4-2.1-1.3-2.7s-2.4-0.9-4.5-0.9h-3.7l0.9-8.8h9.6v1.6h-8l-0.6,5.6h2.2
		C715.6,33.3,717.4,33.8,718.6,34.7z"/>
	<path class="st1" d="M723,32.7c-0.3-0.3-0.4-0.6-0.4-1c0-0.4,0.1-0.7,0.4-1c0.3-0.3,0.6-0.4,0.9-0.4c0.4,0,0.7,0.1,1,0.4
		s0.4,0.6,0.4,1c0,0.4-0.1,0.7-0.4,1s-0.6,0.4-1,0.4C723.6,33.1,723.3,33,723,32.7z M723,43.4c-0.3-0.3-0.4-0.6-0.4-1
		c0-0.4,0.1-0.7,0.4-1c0.3-0.3,0.6-0.4,0.9-0.4c0.4,0,0.7,0.1,1,0.4c0.3,0.3,0.4,0.6,0.4,1c0,0.4-0.1,0.7-0.4,1
		c-0.3,0.3-0.6,0.4-1,0.4C723.6,43.8,723.3,43.7,723,43.4z"/>
</g>
<g class="st7">
	<path class="st1" d="M648.3,57.4v17.5h-1.8v-14l-6.9,11.8h-0.9l-6.9-11.7v13.9h-1.8V57.4h1.5l7.6,13l7.5-13H648.3z"/>
	<path class="st1" d="M653.6,58.5c-0.2-0.2-0.4-0.5-0.4-0.9c0-0.3,0.1-0.6,0.4-0.9s0.6-0.4,0.9-0.4c0.4,0,0.7,0.1,0.9,0.4
		c0.2,0.2,0.4,0.5,0.4,0.9c0,0.4-0.1,0.7-0.4,0.9s-0.6,0.4-0.9,0.4C654.2,58.8,653.9,58.7,653.6,58.5z M653.7,61.7h1.8v13.2h-1.8
		V61.7z"/>
	<path class="st1" d="M660.9,74.5c-1-0.3-1.7-0.7-2.3-1.2l0.8-1.4c0.5,0.4,1.2,0.8,2.1,1.1c0.8,0.3,1.7,0.4,2.6,0.4
		c1.2,0,2.1-0.2,2.7-0.6c0.6-0.4,0.9-0.9,0.9-1.6c0-0.5-0.2-0.9-0.5-1.1c-0.3-0.3-0.7-0.5-1.2-0.6c-0.5-0.1-1.1-0.3-1.9-0.4
		c-1.1-0.2-1.9-0.4-2.6-0.6c-0.7-0.2-1.2-0.6-1.7-1.1s-0.7-1.2-0.7-2.1c0-1.1,0.5-2,1.4-2.7s2.2-1,3.8-1c0.8,0,1.7,0.1,2.5,0.3
		c0.9,0.2,1.5,0.5,2.1,0.9l-0.8,1.4c-1.1-0.8-2.4-1.1-3.9-1.1c-1.1,0-2,0.2-2.6,0.6s-0.9,0.9-0.9,1.6c0,0.5,0.2,0.9,0.5,1.2
		c0.3,0.3,0.7,0.5,1.2,0.7c0.5,0.1,1.1,0.3,2,0.4c1,0.2,1.9,0.4,2.5,0.6c0.6,0.2,1.2,0.5,1.6,1s0.7,1.2,0.7,2c0,1.2-0.5,2.1-1.4,2.7
		c-1,0.7-2.3,1-4,1C662.8,75,661.8,74.8,660.9,74.5z"/>
	<path class="st1" d="M684.1,68.8h-11c0.1,1.4,0.6,2.5,1.6,3.3c1,0.8,2.1,1.3,3.6,1.3c0.8,0,1.6-0.1,2.2-0.4
		c0.7-0.3,1.3-0.7,1.8-1.3l1,1.1c-0.6,0.7-1.3,1.2-2.2,1.6s-1.8,0.5-2.9,0.5c-1.3,0-2.5-0.3-3.6-0.9c-1-0.6-1.9-1.4-2.4-2.4
		c-0.6-1-0.9-2.2-0.9-3.5c0-1.3,0.3-2.4,0.8-3.5c0.6-1,1.3-1.8,2.3-2.4c1-0.6,2.1-0.8,3.3-0.8c1.2,0,2.3,0.3,3.3,0.8
		c1,0.6,1.7,1.4,2.3,2.4c0.5,1,0.8,2.2,0.8,3.5L684.1,68.8z M674.5,64.3c-0.9,0.8-1.3,1.9-1.5,3.2h9.3c-0.1-1.3-0.6-2.4-1.5-3.2
		c-0.9-0.8-1.9-1.2-3.2-1.2C676.4,63.1,675.4,63.5,674.5,64.3z"/>
	<path class="st1" d="M705.7,68.8h-11c0.1,1.4,0.6,2.5,1.6,3.3c1,0.8,2.1,1.3,3.6,1.3c0.8,0,1.6-0.1,2.2-0.4
		c0.7-0.3,1.3-0.7,1.8-1.3l1,1.1c-0.6,0.7-1.3,1.2-2.2,1.6s-1.8,0.5-2.9,0.5c-1.3,0-2.5-0.3-3.6-0.9c-1-0.6-1.9-1.4-2.4-2.4
		c-0.6-1-0.9-2.2-0.9-3.5c0-1.3,0.3-2.4,0.8-3.5c0.6-1,1.3-1.8,2.3-2.4c1-0.6,2.1-0.8,3.3-0.8c1.2,0,2.3,0.3,3.3,0.8
		c1,0.6,1.7,1.4,2.3,2.4c0.5,1,0.8,2.2,0.8,3.5L705.7,68.8z M696.2,64.3c-0.9,0.8-1.3,1.9-1.5,3.2h9.3c-0.1-1.3-0.6-2.4-1.5-3.2
		c-0.9-0.8-1.9-1.2-3.2-1.2C698.1,63.1,697,63.5,696.2,64.3z"/>
	<path class="st1" d="M720,63c1,1,1.5,2.4,1.5,4.2v7.6h-1.8v-7.5c0-1.4-0.3-2.4-1-3.1c-0.7-0.7-1.7-1.1-2.9-1.1
		c-1.4,0-2.5,0.4-3.4,1.3c-0.8,0.8-1.2,2-1.2,3.5v6.9h-1.8V61.7h1.7v2.4c0.5-0.8,1.2-1.4,2-1.9c0.9-0.4,1.9-0.7,3-0.7
		C717.7,61.6,719,62.1,720,63z"/>
	<path class="st1" d="M732.8,56.3h1.8v18.5h-1.8V56.3z"/>
	<path class="st1" d="M741.5,74.1c-1-0.6-1.8-1.4-2.4-2.4c-0.6-1-0.9-2.2-0.9-3.5c0-1.3,0.3-2.4,0.9-3.5c0.6-1,1.4-1.8,2.4-2.4
		c1-0.6,2.2-0.8,3.4-0.8c1.3,0,2.4,0.3,3.4,0.8c1,0.6,1.8,1.4,2.4,2.4c0.6,1,0.9,2.2,0.9,3.5c0,1.3-0.3,2.4-0.9,3.5
		c-0.6,1-1.4,1.8-2.4,2.4s-2.2,0.9-3.4,0.9C743.7,75,742.5,74.7,741.5,74.1z M747.4,72.8c0.7-0.4,1.3-1,1.7-1.8
		c0.4-0.8,0.6-1.7,0.6-2.7s-0.2-1.9-0.6-2.7c-0.4-0.8-1-1.4-1.7-1.8c-0.7-0.4-1.6-0.6-2.5-0.6c-0.9,0-1.8,0.2-2.5,0.6
		c-0.7,0.4-1.3,1-1.8,1.8s-0.6,1.7-0.6,2.7s0.2,1.9,0.6,2.7c0.4,0.8,1,1.4,1.8,1.8c0.7,0.4,1.6,0.6,2.5,0.6
		C745.9,73.4,746.7,73.2,747.4,72.8z"/>
	<path class="st1" d="M757.2,74.1c-1-0.6-1.8-1.4-2.4-2.4c-0.6-1-0.9-2.2-0.9-3.5c0-1.3,0.3-2.4,0.9-3.5c0.6-1,1.4-1.8,2.4-2.4
		c1-0.6,2.2-0.8,3.5-0.8c1.1,0,2.1,0.2,3,0.7c0.9,0.4,1.6,1.1,2.1,1.9l-1.3,0.9c-0.4-0.7-1-1.1-1.6-1.5c-0.7-0.3-1.4-0.5-2.2-0.5
		c-0.9,0-1.8,0.2-2.6,0.6c-0.8,0.4-1.3,1-1.8,1.8s-0.6,1.7-0.6,2.7c0,1,0.2,1.9,0.6,2.7c0.4,0.8,1,1.4,1.8,1.8
		c0.8,0.4,1.6,0.6,2.6,0.6c0.8,0,1.5-0.2,2.2-0.5c0.7-0.3,1.2-0.8,1.6-1.5l1.3,0.9c-0.5,0.8-1.2,1.5-2.1,1.9s-1.9,0.7-3,0.7
		C759.4,75,758.2,74.7,757.2,74.1z"/>
	<path class="st1" d="M777.9,62.9c0.9,0.9,1.4,2.1,1.4,3.8v8.2h-1.7v-2c-0.4,0.7-1,1.2-1.8,1.6c-0.8,0.4-1.7,0.6-2.8,0.6
		c-1.5,0-2.6-0.3-3.5-1c-0.9-0.7-1.3-1.6-1.3-2.8c0-1.1,0.4-2,1.2-2.7c0.8-0.7,2.1-1,3.9-1h4.2v-0.8c0-1.1-0.3-2-1-2.6
		c-0.6-0.6-1.6-0.9-2.8-0.9c-0.8,0-1.6,0.1-2.4,0.4c-0.8,0.3-1.4,0.7-2,1.1l-0.8-1.3c0.7-0.6,1.5-1,2.4-1.3c0.9-0.3,1.9-0.5,3-0.5
		C775.6,61.6,776.9,62,777.9,62.9z M775.9,72.9c0.7-0.5,1.2-1.1,1.6-2v-2.1h-4.1c-2.2,0-3.4,0.8-3.4,2.3c0,0.8,0.3,1.4,0.9,1.8
		c0.6,0.4,1.4,0.7,2.5,0.7C774.3,73.6,775.1,73.4,775.9,72.9z"/>
	<path class="st1" d="M791,74.1c-0.3,0.3-0.7,0.5-1.2,0.7s-1,0.2-1.5,0.2c-1.2,0-2.2-0.3-2.9-1c-0.7-0.7-1-1.6-1-2.8v-8H782v-1.5
		h2.3v-2.9h1.8v2.9h4v1.5h-4v7.9c0,0.8,0.2,1.4,0.6,1.8c0.4,0.4,1,0.6,1.7,0.6c0.4,0,0.7-0.1,1.1-0.2c0.3-0.1,0.6-0.3,0.9-0.5
		L791,74.1z"/>
	<path class="st1" d="M794.2,58.5c-0.2-0.2-0.4-0.5-0.4-0.9c0-0.3,0.1-0.6,0.4-0.9s0.6-0.4,0.9-0.4s0.7,0.1,0.9,0.4
		c0.2,0.2,0.4,0.5,0.4,0.9c0,0.4-0.1,0.7-0.4,0.9s-0.6,0.4-0.9,0.4S794.4,58.7,794.2,58.5z M794.2,61.7h1.8v13.2h-1.8V61.7z"/>
	<path class="st1" d="M802.9,74.1c-1-0.6-1.8-1.4-2.4-2.4c-0.6-1-0.9-2.2-0.9-3.5c0-1.3,0.3-2.4,0.9-3.5c0.6-1,1.4-1.8,2.4-2.4
		c1-0.6,2.2-0.8,3.4-0.8c1.3,0,2.4,0.3,3.4,0.8c1,0.6,1.8,1.4,2.4,2.4c0.6,1,0.9,2.2,0.9,3.5c0,1.3-0.3,2.4-0.9,3.5
		c-0.6,1-1.4,1.8-2.4,2.4s-2.2,0.9-3.4,0.9C805,75,803.9,74.7,802.9,74.1z M808.8,72.8c0.7-0.4,1.3-1,1.7-1.8
		c0.4-0.8,0.6-1.7,0.6-2.7s-0.2-1.9-0.6-2.7c-0.4-0.8-1-1.4-1.7-1.8c-0.7-0.4-1.6-0.6-2.5-0.6c-0.9,0-1.8,0.2-2.5,0.6
		c-0.7,0.4-1.3,1-1.8,1.8s-0.6,1.7-0.6,2.7s0.2,1.9,0.6,2.7c0.4,0.8,1,1.4,1.8,1.8c0.7,0.4,1.6,0.6,2.5,0.6
		C807.2,73.4,808.1,73.2,808.8,72.8z"/>
	<path class="st1" d="M827.2,63c1,1,1.5,2.4,1.5,4.2v7.6h-1.8v-7.5c0-1.4-0.3-2.4-1-3.1c-0.7-0.7-1.7-1.1-2.9-1.1
		c-1.4,0-2.5,0.4-3.4,1.3c-0.8,0.8-1.2,2-1.2,3.5v6.9h-1.8V61.7h1.7v2.4c0.5-0.8,1.2-1.4,2-1.9c0.9-0.4,1.9-0.7,3-0.7
		C825,61.6,826.3,62.1,827.2,63z"/>
</g>
<g class="st7">
	<path class="st1" d="M641.2,100h-11c0.1,1.4,0.6,2.5,1.6,3.3c1,0.8,2.2,1.3,3.6,1.3c0.8,0,1.6-0.1,2.2-0.4c0.7-0.3,1.3-0.7,1.8-1.3
		l1,1.1c-0.6,0.7-1.3,1.2-2.2,1.6s-1.8,0.5-2.9,0.5c-1.3,0-2.5-0.3-3.6-0.9c-1-0.6-1.9-1.4-2.4-2.4c-0.6-1-0.9-2.2-0.9-3.5
		c0-1.3,0.3-2.4,0.8-3.5c0.6-1,1.3-1.8,2.3-2.4c1-0.6,2.1-0.8,3.3-0.8s2.3,0.3,3.3,0.8c1,0.6,1.7,1.4,2.3,2.4c0.5,1,0.8,2.2,0.8,3.5
		L641.2,100z M631.7,95.5c-0.9,0.8-1.3,1.9-1.5,3.2h9.3c-0.1-1.3-0.6-2.4-1.5-3.2c-0.9-0.8-1.9-1.2-3.2-1.2
		C633.6,94.3,632.6,94.7,631.7,95.5z"/>
	<path class="st1" d="M651.8,105.3c-0.3,0.3-0.7,0.5-1.2,0.7c-0.5,0.2-1,0.2-1.5,0.2c-1.2,0-2.2-0.3-2.8-1c-0.7-0.7-1-1.6-1-2.8v-8
		h-2.4v-1.5h2.4V90h1.8v2.9h4v1.5h-4v7.9c0,0.8,0.2,1.4,0.6,1.8c0.4,0.4,1,0.6,1.7,0.6c0.4,0,0.7-0.1,1.1-0.2
		c0.3-0.1,0.6-0.3,0.9-0.5L651.8,105.3z"/>
	<path class="st1" d="M673.8,92.9v11.6c0,2.2-0.5,3.9-1.6,5c-1.1,1.1-2.7,1.6-4.9,1.6c-1.2,0-2.4-0.2-3.5-0.5s-2-0.9-2.7-1.5
		l0.9-1.4c0.6,0.6,1.4,1,2.3,1.3s1.9,0.5,2.9,0.5c1.7,0,2.9-0.4,3.7-1.2c0.8-0.8,1.2-2,1.2-3.6V103c-0.5,0.8-1.3,1.5-2.2,1.9
		c-0.9,0.4-1.9,0.7-3,0.7c-1.2,0-2.4-0.3-3.4-0.8c-1-0.5-1.8-1.3-2.4-2.3c-0.6-1-0.9-2.1-0.9-3.3c0-1.2,0.3-2.3,0.9-3.3
		c0.6-1,1.4-1.7,2.4-2.2c1-0.5,2.1-0.8,3.4-0.8c1.1,0,2.1,0.2,3,0.7c0.9,0.5,1.6,1.1,2.2,2v-2.5H673.8z M669.6,103.4
		c0.8-0.4,1.4-1,1.8-1.7c0.4-0.7,0.6-1.6,0.6-2.5c0-0.9-0.2-1.8-0.6-2.5c-0.4-0.7-1-1.3-1.8-1.7c-0.8-0.4-1.6-0.6-2.6-0.6
		c-1,0-1.8,0.2-2.6,0.6c-0.8,0.4-1.3,1-1.8,1.7c-0.4,0.7-0.6,1.6-0.6,2.5c0,0.9,0.2,1.8,0.6,2.5c0.4,0.7,1,1.3,1.8,1.7
		c0.8,0.4,1.6,0.6,2.6,0.6S668.8,103.8,669.6,103.4z"/>
	<path class="st1" d="M690.2,100h-11c0.1,1.4,0.6,2.5,1.6,3.3c1,0.8,2.2,1.3,3.6,1.3c0.8,0,1.6-0.1,2.2-0.4c0.7-0.3,1.3-0.7,1.8-1.3
		l1,1.1c-0.6,0.7-1.3,1.2-2.2,1.6s-1.8,0.5-2.9,0.5c-1.3,0-2.5-0.3-3.6-0.9c-1-0.6-1.9-1.4-2.4-2.4c-0.6-1-0.9-2.2-0.9-3.5
		c0-1.3,0.3-2.4,0.8-3.5c0.6-1,1.3-1.8,2.3-2.4c1-0.6,2.1-0.8,3.3-0.8s2.3,0.3,3.3,0.8c1,0.6,1.7,1.4,2.3,2.4c0.5,1,0.8,2.2,0.8,3.5
		L690.2,100z M680.7,95.5c-0.9,0.8-1.3,1.9-1.5,3.2h9.3c-0.1-1.3-0.6-2.4-1.5-3.2c-0.9-0.8-1.9-1.2-3.2-1.2
		C682.6,94.3,681.5,94.7,680.7,95.5z"/>
	<path class="st1" d="M694.3,105.7c-1-0.3-1.7-0.7-2.3-1.2l0.8-1.4c0.5,0.4,1.2,0.8,2.1,1.1c0.8,0.3,1.7,0.4,2.6,0.4
		c1.2,0,2.1-0.2,2.7-0.6c0.6-0.4,0.9-0.9,0.9-1.6c0-0.5-0.2-0.9-0.5-1.1c-0.3-0.3-0.7-0.5-1.2-0.6c-0.5-0.1-1.1-0.3-1.9-0.4
		c-1.1-0.2-1.9-0.4-2.6-0.6c-0.7-0.2-1.2-0.6-1.7-1.1s-0.7-1.2-0.7-2.1c0-1.1,0.5-2,1.4-2.7s2.2-1,3.8-1c0.8,0,1.7,0.1,2.5,0.3
		c0.9,0.2,1.5,0.5,2.1,0.9l-0.8,1.4c-1.1-0.8-2.4-1.1-3.9-1.1c-1.1,0-2,0.2-2.6,0.6s-0.9,0.9-0.9,1.6c0,0.5,0.2,0.9,0.5,1.2
		c0.3,0.3,0.7,0.5,1.2,0.7c0.5,0.1,1.1,0.3,2,0.4c1,0.2,1.9,0.4,2.5,0.6c0.6,0.2,1.2,0.5,1.6,1s0.7,1.2,0.7,2c0,1.2-0.5,2.1-1.4,2.7
		c-1,0.7-2.3,1-4,1C696.3,106.2,695.3,106,694.3,105.7z"/>
	<path class="st1" d="M713,105.3c-0.3,0.3-0.7,0.5-1.2,0.7s-1,0.2-1.5,0.2c-1.2,0-2.2-0.3-2.9-1c-0.7-0.7-1-1.6-1-2.8v-8H704v-1.5
		h2.3V90h1.8v2.9h4v1.5h-4v7.9c0,0.8,0.2,1.4,0.6,1.8c0.4,0.4,1,0.6,1.7,0.6c0.4,0,0.7-0.1,1.1-0.2c0.3-0.1,0.6-0.3,0.9-0.5
		L713,105.3z"/>
	<path class="st1" d="M716.2,89.7c-0.2-0.2-0.4-0.5-0.4-0.9c0-0.3,0.1-0.6,0.4-0.9s0.6-0.4,0.9-0.4c0.4,0,0.7,0.1,0.9,0.4
		c0.2,0.2,0.4,0.5,0.4,0.9c0,0.4-0.1,0.7-0.4,0.9s-0.6,0.4-0.9,0.4C716.7,90,716.4,89.9,716.2,89.7z M716.2,92.9h1.8v13.2h-1.8V92.9
		z"/>
	<path class="st1" d="M724.9,105.3c-1-0.6-1.8-1.4-2.4-2.4c-0.6-1-0.9-2.2-0.9-3.5c0-1.3,0.3-2.4,0.9-3.5c0.6-1,1.4-1.8,2.4-2.4
		c1-0.6,2.2-0.8,3.4-0.8c1.3,0,2.4,0.3,3.4,0.8c1,0.6,1.8,1.4,2.4,2.4c0.6,1,0.9,2.2,0.9,3.5c0,1.3-0.3,2.4-0.9,3.5
		c-0.6,1-1.4,1.8-2.4,2.4s-2.2,0.9-3.4,0.9C727,106.2,725.9,105.9,724.9,105.3z M730.8,104c0.7-0.4,1.3-1,1.7-1.8
		c0.4-0.8,0.6-1.7,0.6-2.7s-0.2-1.9-0.6-2.7c-0.4-0.8-1-1.4-1.7-1.8c-0.7-0.4-1.6-0.6-2.5-0.6c-0.9,0-1.8,0.2-2.5,0.6
		c-0.7,0.4-1.3,1-1.8,1.8s-0.6,1.7-0.6,2.7s0.2,1.9,0.6,2.7c0.4,0.8,1,1.4,1.8,1.8c0.7,0.4,1.6,0.6,2.5,0.6
		C729.2,104.6,730.1,104.4,730.8,104z"/>
	<path class="st1" d="M749.2,94.2c1,1,1.5,2.4,1.5,4.2v7.6h-1.8v-7.5c0-1.4-0.3-2.4-1-3.1c-0.7-0.7-1.7-1.1-2.9-1.1
		c-1.4,0-2.5,0.4-3.4,1.3c-0.8,0.8-1.2,2-1.2,3.5v6.9h-1.8V92.9h1.7v2.4c0.5-0.8,1.2-1.4,2-1.9c0.9-0.4,1.9-0.7,3-0.7
		C747,92.8,748.3,93.3,749.2,94.2z"/>
</g>
<g class="st7">
	<path class="st1" d="M194.5,469.6v1.6h-12.4v-17.5h12v1.6H184v6.2h9v1.6h-9v6.5H194.5z M190,449.2h2.4l-4,3.1h-1.8L190,449.2z"/>
	<path class="st1" d="M205.1,470.4c-0.3,0.3-0.7,0.5-1.2,0.7c-0.5,0.2-1,0.2-1.5,0.2c-1.2,0-2.2-0.3-2.9-1c-0.7-0.7-1-1.6-1-2.8v-8
		h-2.4V458h2.4v-2.9h1.8v2.9h4v1.5h-4v7.9c0,0.8,0.2,1.4,0.6,1.8c0.4,0.4,1,0.6,1.7,0.6c0.4,0,0.7-0.1,1.1-0.2
		c0.3-0.1,0.6-0.3,0.9-0.5L205.1,470.4z"/>
	<path class="st1" d="M216.8,459.2c0.9,0.9,1.4,2.1,1.4,3.8v8.2h-1.7v-2c-0.4,0.7-1,1.2-1.8,1.6c-0.8,0.4-1.7,0.6-2.8,0.6
		c-1.5,0-2.6-0.3-3.5-1s-1.3-1.6-1.3-2.8c0-1.1,0.4-2,1.2-2.7c0.8-0.7,2.1-1,3.9-1h4.2V463c0-1.1-0.3-2-1-2.6s-1.6-0.9-2.8-0.9
		c-0.8,0-1.6,0.1-2.4,0.4c-0.8,0.3-1.4,0.7-2,1.1l-0.8-1.3c0.7-0.6,1.5-1,2.4-1.3c0.9-0.3,1.9-0.5,3-0.5
		C214.6,457.9,215.9,458.4,216.8,459.2z M214.8,469.2c0.7-0.5,1.2-1.1,1.6-2v-2.1h-4.1c-2.2,0-3.4,0.8-3.4,2.3
		c0,0.8,0.3,1.4,0.9,1.8c0.6,0.4,1.4,0.7,2.5,0.7C213.3,469.9,214.1,469.7,214.8,469.2z"/>
	<path class="st1" d="M233.2,458.8c1,0.6,1.8,1.3,2.4,2.4c0.6,1,0.8,2.2,0.8,3.5c0,1.3-0.3,2.5-0.8,3.5c-0.6,1-1.3,1.8-2.3,2.4
		c-1,0.6-2.1,0.8-3.4,0.8c-1.1,0-2-0.2-2.9-0.7s-1.6-1.1-2.1-1.9v7.3H223v-18h1.7v2.6c0.5-0.9,1.2-1.5,2.1-2s1.9-0.7,3-0.7
		C231,457.9,232.2,458.2,233.2,458.8z M232.2,469.1c0.8-0.4,1.3-1,1.8-1.8c0.4-0.8,0.6-1.7,0.6-2.7s-0.2-1.9-0.6-2.7
		c-0.4-0.8-1-1.4-1.8-1.8s-1.6-0.7-2.5-0.7c-0.9,0-1.8,0.2-2.5,0.7s-1.3,1-1.8,1.8c-0.4,0.8-0.6,1.7-0.6,2.7s0.2,1.9,0.6,2.7
		c0.4,0.8,1,1.4,1.8,1.8c0.7,0.4,1.6,0.6,2.5,0.6C230.6,469.7,231.4,469.5,232.2,469.1z"/>
	<path class="st1" d="M251.4,465.2h-11c0.1,1.4,0.6,2.5,1.6,3.3c1,0.8,2.1,1.3,3.6,1.3c0.8,0,1.6-0.1,2.2-0.4
		c0.7-0.3,1.3-0.7,1.8-1.3l1,1.1c-0.6,0.7-1.3,1.2-2.2,1.6s-1.8,0.5-2.9,0.5c-1.3,0-2.5-0.3-3.6-0.9s-1.9-1.4-2.4-2.4
		s-0.9-2.2-0.9-3.5c0-1.3,0.3-2.4,0.8-3.5c0.6-1,1.3-1.8,2.3-2.4c1-0.6,2.1-0.8,3.3-0.8c1.2,0,2.3,0.3,3.3,0.8
		c1,0.6,1.7,1.4,2.3,2.4c0.5,1,0.8,2.2,0.8,3.5L251.4,465.2z M241.9,460.7c-0.9,0.8-1.3,1.9-1.5,3.2h9.3c-0.1-1.3-0.6-2.4-1.5-3.2
		c-0.9-0.8-1.9-1.2-3.2-1.2C243.8,459.5,242.8,459.9,241.9,460.7z"/>
	<path class="st1" d="M272.4,469.6v1.6h-12.3v-1.3l7.3-7.1c0.9-0.9,1.5-1.7,1.9-2.3c0.3-0.7,0.5-1.3,0.5-2c0-1-0.4-1.8-1.1-2.4
		c-0.7-0.6-1.7-0.9-3-0.9c-2,0-3.6,0.7-4.8,2l-1.3-1.1c0.7-0.8,1.6-1.4,2.6-1.8c1.1-0.4,2.3-0.7,3.6-0.7c1.8,0,3.2,0.4,4.2,1.3
		c1,0.8,1.6,2,1.6,3.5c0,0.9-0.2,1.8-0.6,2.6c-0.4,0.8-1.2,1.8-2.3,2.9l-6,5.9H272.4z"/>
	<path class="st1" d="M275.1,460.3c-0.3-0.3-0.4-0.6-0.4-1c0-0.4,0.1-0.7,0.4-1s0.6-0.4,0.9-0.4s0.7,0.1,1,0.4
		c0.3,0.3,0.4,0.6,0.4,1c0,0.4-0.1,0.7-0.4,1c-0.3,0.3-0.6,0.4-1,0.4S275.3,460.5,275.1,460.3z M275.1,470.9c-0.3-0.3-0.4-0.6-0.4-1
		c0-0.4,0.1-0.7,0.4-1c0.3-0.3,0.6-0.4,0.9-0.4s0.7,0.1,1,0.4c0.3,0.3,0.4,0.6,0.4,1c0,0.4-0.1,0.7-0.4,1c-0.3,0.3-0.6,0.4-1,0.4
		S275.3,471.2,275.1,470.9z"/>
</g>
<g class="st7">
	<path class="st1" d="M194.1,502.5l-4-5.6c-0.4,0-0.9,0.1-1.4,0.1H184v5.5h-1.9V485h6.5c2.2,0,4,0.5,5.2,1.6
		c1.3,1.1,1.9,2.5,1.9,4.4c0,1.4-0.3,2.5-1,3.5c-0.7,0.9-1.7,1.6-3,2l4.3,6H194.1z M192.6,494.2c0.9-0.8,1.4-1.8,1.4-3.2
		c0-1.4-0.5-2.5-1.4-3.3c-0.9-0.8-2.2-1.1-4-1.1H184v8.8h4.6C190.4,495.4,191.7,495,192.6,494.2z"/>
	<path class="st1" d="M211.3,496.5h-11c0.1,1.4,0.6,2.5,1.6,3.3c1,0.8,2.1,1.3,3.6,1.3c0.8,0,1.6-0.1,2.2-0.4
		c0.7-0.3,1.3-0.7,1.8-1.3l1,1.1c-0.6,0.7-1.3,1.2-2.2,1.6s-1.8,0.5-2.9,0.5c-1.3,0-2.5-0.3-3.6-0.9s-1.9-1.4-2.4-2.4
		s-0.9-2.2-0.9-3.5c0-1.3,0.3-2.4,0.8-3.5c0.6-1,1.3-1.8,2.3-2.4c1-0.6,2.1-0.8,3.3-0.8c1.2,0,2.3,0.3,3.3,0.8
		c1,0.6,1.7,1.4,2.3,2.4c0.5,1,0.8,2.2,0.8,3.5L211.3,496.5z M201.8,492c-0.9,0.8-1.3,1.9-1.5,3.2h9.3c-0.1-1.3-0.6-2.4-1.5-3.2
		c-0.9-0.8-1.9-1.2-3.2-1.2C203.7,490.8,202.6,491.2,201.8,492z"/>
	<path class="st1" d="M216.9,501.8c-1-0.6-1.8-1.4-2.4-2.4c-0.6-1-0.9-2.2-0.9-3.5c0-1.3,0.3-2.4,0.9-3.5c0.6-1,1.4-1.8,2.4-2.4
		c1-0.6,2.2-0.8,3.5-0.8c1.1,0,2.1,0.2,3,0.7c0.9,0.4,1.6,1.1,2.1,1.9l-1.3,0.9c-0.4-0.7-1-1.1-1.6-1.5c-0.7-0.3-1.4-0.5-2.2-0.5
		c-0.9,0-1.8,0.2-2.6,0.6s-1.3,1-1.8,1.8c-0.4,0.8-0.6,1.7-0.6,2.7c0,1,0.2,1.9,0.6,2.7c0.4,0.8,1,1.4,1.8,1.8
		c0.8,0.4,1.6,0.6,2.6,0.6c0.8,0,1.5-0.2,2.2-0.5c0.7-0.3,1.2-0.8,1.6-1.5l1.3,0.9c-0.5,0.8-1.2,1.5-2.1,1.9c-0.9,0.4-1.9,0.7-3,0.7
		C219.1,502.6,218,502.3,216.9,501.8z"/>
	<path class="st1" d="M239.5,490.7c1,1,1.5,2.4,1.5,4.2v7.6h-1.8V495c0-1.4-0.3-2.4-1-3.1c-0.7-0.7-1.7-1.1-2.9-1.1
		c-1.4,0-2.5,0.4-3.4,1.3c-0.8,0.8-1.2,2-1.2,3.5v6.9h-1.8v-18.5h1.8v7.7c0.5-0.8,1.1-1.4,2-1.8c0.9-0.4,1.8-0.6,2.9-0.6
		C237.2,489.2,238.5,489.7,239.5,490.7z"/>
	<path class="st1" d="M257.3,496.5h-11c0.1,1.4,0.6,2.5,1.6,3.3c1,0.8,2.1,1.3,3.6,1.3c0.8,0,1.6-0.1,2.2-0.4
		c0.7-0.3,1.3-0.7,1.8-1.3l1,1.1c-0.6,0.7-1.3,1.2-2.2,1.6s-1.8,0.5-2.9,0.5c-1.3,0-2.5-0.3-3.6-0.9s-1.9-1.4-2.4-2.4
		s-0.9-2.2-0.9-3.5c0-1.3,0.3-2.4,0.8-3.5c0.6-1,1.3-1.8,2.3-2.4c1-0.6,2.1-0.8,3.3-0.8c1.2,0,2.3,0.3,3.3,0.8
		c1,0.6,1.7,1.4,2.3,2.4c0.5,1,0.8,2.2,0.8,3.5L257.3,496.5z M247.7,492c-0.9,0.8-1.3,1.9-1.5,3.2h9.3c-0.1-1.3-0.6-2.4-1.5-3.2
		c-0.9-0.8-1.9-1.2-3.2-1.2C249.6,490.8,248.6,491.2,247.7,492z"/>
	<path class="st1" d="M264.5,489.9c0.8-0.5,1.8-0.7,3.1-0.7v1.7l-0.4,0c-1.4,0-2.5,0.4-3.2,1.3c-0.8,0.9-1.2,2-1.2,3.6v6.7h-1.8
		v-13.2h1.7v2.6C263,491,263.6,490.4,264.5,489.9z"/>
	<path class="st1" d="M272.6,501.8c-1-0.6-1.8-1.4-2.4-2.4c-0.6-1-0.9-2.2-0.9-3.5c0-1.3,0.3-2.4,0.9-3.5c0.6-1,1.4-1.8,2.4-2.4
		c1-0.6,2.2-0.8,3.5-0.8c1.1,0,2.1,0.2,3,0.7c0.9,0.4,1.6,1.1,2.1,1.9l-1.3,0.9c-0.4-0.7-1-1.1-1.6-1.5c-0.7-0.3-1.4-0.5-2.2-0.5
		c-0.9,0-1.8,0.2-2.6,0.6s-1.3,1-1.8,1.8c-0.4,0.8-0.6,1.7-0.6,2.7c0,1,0.2,1.9,0.6,2.7c0.4,0.8,1,1.4,1.8,1.8
		c0.8,0.4,1.6,0.6,2.6,0.6c0.8,0,1.5-0.2,2.2-0.5c0.7-0.3,1.2-0.8,1.6-1.5l1.3,0.9c-0.5,0.8-1.2,1.5-2.1,1.9c-0.9,0.4-1.9,0.7-3,0.7
		C274.8,502.6,273.6,502.3,272.6,501.8z"/>
	<path class="st1" d="M295.1,490.7c1,1,1.5,2.4,1.5,4.2v7.6h-1.8V495c0-1.4-0.3-2.4-1-3.1c-0.7-0.7-1.7-1.1-2.9-1.1
		c-1.4,0-2.5,0.4-3.4,1.3c-0.8,0.8-1.2,2-1.2,3.5v6.9h-1.8v-18.5h1.8v7.7c0.5-0.8,1.1-1.4,2-1.8c0.9-0.4,1.8-0.6,2.9-0.6
		C292.8,489.2,294.1,489.7,295.1,490.7z"/>
	<path class="st1" d="M312.9,496.5h-11c0.1,1.4,0.6,2.5,1.6,3.3c1,0.8,2.1,1.3,3.6,1.3c0.8,0,1.6-0.1,2.2-0.4
		c0.7-0.3,1.3-0.7,1.8-1.3l1,1.1c-0.6,0.7-1.3,1.2-2.2,1.6s-1.8,0.5-2.9,0.5c-1.3,0-2.5-0.3-3.6-0.9s-1.9-1.4-2.4-2.4
		s-0.9-2.2-0.9-3.5c0-1.3,0.3-2.4,0.8-3.5c0.6-1,1.3-1.8,2.3-2.4c1-0.6,2.1-0.8,3.3-0.8c1.2,0,2.3,0.3,3.3,0.8
		c1,0.6,1.7,1.4,2.3,2.4c0.5,1,0.8,2.2,0.8,3.5L312.9,496.5z M303.4,492c-0.9,0.8-1.3,1.9-1.5,3.2h9.3c-0.1-1.3-0.6-2.4-1.5-3.2
		c-0.9-0.8-1.9-1.2-3.2-1.2C305.3,490.8,304.2,491.2,303.4,492z"/>
</g>
<g class="st7">
	<path class="st1" d="M193.8,515.1v18.5h-1.7v-2.6c-0.5,0.9-1.2,1.6-2.1,2c-0.9,0.5-1.9,0.7-3,0.7c-1.2,0-2.4-0.3-3.4-0.8
		s-1.8-1.4-2.4-2.4c-0.6-1-0.9-2.2-0.9-3.5s0.3-2.5,0.9-3.5c0.6-1,1.4-1.8,2.4-2.4s2.1-0.8,3.4-0.8c1.1,0,2,0.2,2.9,0.7
		c0.9,0.4,1.6,1.1,2.1,1.9v-7.9H193.8z M189.7,531.6c0.7-0.4,1.3-1,1.8-1.8c0.4-0.8,0.6-1.7,0.6-2.7s-0.2-1.9-0.6-2.7
		c-0.4-0.8-1-1.4-1.8-1.8s-1.6-0.6-2.5-0.6c-0.9,0-1.8,0.2-2.5,0.6s-1.3,1-1.8,1.8c-0.4,0.8-0.6,1.7-0.6,2.7s0.2,1.9,0.6,2.7
		c0.4,0.8,1,1.4,1.8,1.8c0.7,0.4,1.6,0.6,2.5,0.6C188.1,532.2,188.9,532,189.7,531.6z"/>
	<path class="st1" d="M199.9,515.4c0.2,0.3,0.4,0.6,0.4,1c0,0.2,0,0.4-0.1,0.6c-0.1,0.2-0.1,0.5-0.2,0.8l-1.1,3.5h-1.2l0.9-3.6
		c-0.3-0.1-0.5-0.2-0.7-0.5c-0.2-0.2-0.2-0.5-0.2-0.8c0-0.4,0.1-0.7,0.4-1s0.6-0.4,0.9-0.4S199.6,515.2,199.9,515.4z"/>
	<path class="st1" d="M215.9,520.5v13.2h-1.7v-2.4c-0.5,0.8-1.1,1.4-1.9,1.9c-0.8,0.4-1.8,0.7-2.8,0.7c-1.7,0-3.1-0.5-4.1-1.4
		c-1-1-1.5-2.4-1.5-4.2v-7.6h1.8v7.5c0,1.4,0.3,2.4,1,3.2c0.7,0.7,1.7,1.1,2.9,1.1c1.4,0,2.5-0.4,3.3-1.3c0.8-0.8,1.2-2,1.2-3.5
		v-6.9H215.9z"/>
	<path class="st1" d="M231.5,521.9c1,1,1.5,2.4,1.5,4.2v7.6h-1.8v-7.5c0-1.4-0.3-2.4-1-3.1c-0.7-0.7-1.7-1.1-2.9-1.1
		c-1.4,0-2.5,0.4-3.4,1.3c-0.8,0.8-1.2,2-1.2,3.5v6.9h-1.8v-13.2h1.7v2.4c0.5-0.8,1.2-1.4,2-1.9c0.9-0.4,1.9-0.7,3-0.7
		C229.2,520.4,230.5,520.9,231.5,521.9z"/>
	<path class="st1" d="M249.3,527.7h-11c0.1,1.4,0.6,2.5,1.6,3.3c1,0.8,2.1,1.3,3.6,1.3c0.8,0,1.6-0.1,2.2-0.4
		c0.7-0.3,1.3-0.7,1.8-1.3l1,1.1c-0.6,0.7-1.3,1.2-2.2,1.6s-1.8,0.5-2.9,0.5c-1.3,0-2.5-0.3-3.6-0.9s-1.9-1.4-2.4-2.4
		s-0.9-2.2-0.9-3.5c0-1.3,0.3-2.4,0.8-3.5c0.6-1,1.3-1.8,2.3-2.4c1-0.6,2.1-0.8,3.3-0.8c1.2,0,2.3,0.3,3.3,0.8
		c1,0.6,1.7,1.4,2.3,2.4c0.5,1,0.8,2.2,0.8,3.5L249.3,527.7z M239.8,523.2c-0.9,0.8-1.3,1.9-1.5,3.2h9.3c-0.1-1.3-0.6-2.4-1.5-3.2
		c-0.9-0.8-1.9-1.2-3.2-1.2C241.7,522,240.6,522.4,239.8,523.2z"/>
	<path class="st1" d="M261.4,533c-1-0.6-1.8-1.4-2.4-2.4s-0.9-2.2-0.9-3.5c0-1.3,0.3-2.4,0.9-3.5c0.6-1,1.4-1.8,2.4-2.4
		c1-0.6,2.2-0.8,3.4-0.8c1.3,0,2.4,0.3,3.4,0.8c1,0.6,1.8,1.4,2.4,2.4c0.6,1,0.9,2.2,0.9,3.5c0,1.3-0.3,2.4-0.9,3.5
		c-0.6,1-1.4,1.8-2.4,2.4s-2.2,0.9-3.4,0.9C263.6,533.8,262.5,533.5,261.4,533z M267.4,531.6c0.7-0.4,1.3-1,1.7-1.8
		c0.4-0.8,0.6-1.7,0.6-2.7s-0.2-1.9-0.6-2.7c-0.4-0.8-1-1.4-1.7-1.8s-1.6-0.6-2.5-0.6c-0.9,0-1.8,0.2-2.5,0.6s-1.3,1-1.8,1.8
		c-0.4,0.8-0.6,1.7-0.6,2.7s0.2,1.9,0.6,2.7c0.4,0.8,1,1.4,1.8,1.8c0.7,0.4,1.6,0.6,2.5,0.6C265.8,532.2,266.6,532,267.4,531.6z"/>
	<path class="st1" d="M285.3,521.3c1,0.6,1.8,1.3,2.4,2.4c0.6,1,0.8,2.2,0.8,3.5c0,1.3-0.3,2.5-0.8,3.5c-0.6,1-1.3,1.8-2.3,2.4
		c-1,0.6-2.1,0.8-3.4,0.8c-1.1,0-2-0.2-2.9-0.7s-1.6-1.1-2.1-1.9v7.3h-1.8v-18h1.7v2.6c0.5-0.9,1.2-1.5,2.1-2s1.9-0.7,3-0.7
		C283.2,520.4,284.3,520.7,285.3,521.3z M284.3,531.6c0.8-0.4,1.3-1,1.8-1.8c0.4-0.8,0.6-1.7,0.6-2.7s-0.2-1.9-0.6-2.7
		c-0.4-0.8-1-1.4-1.8-1.8s-1.6-0.7-2.5-0.7c-0.9,0-1.8,0.2-2.5,0.7s-1.3,1-1.8,1.8c-0.4,0.8-0.6,1.7-0.6,2.7s0.2,1.9,0.6,2.7
		c0.4,0.8,1,1.4,1.8,1.8c0.7,0.4,1.6,0.6,2.5,0.6C282.7,532.2,283.6,532,284.3,531.6z"/>
	<path class="st1" d="M302.2,521.3c1,0.6,1.8,1.3,2.4,2.4c0.6,1,0.8,2.2,0.8,3.5c0,1.3-0.3,2.5-0.8,3.5c-0.6,1-1.3,1.8-2.3,2.4
		c-1,0.6-2.1,0.8-3.4,0.8c-1.1,0-2-0.2-2.9-0.7s-1.6-1.1-2.1-1.9v7.3h-1.8v-18h1.7v2.6c0.5-0.9,1.2-1.5,2.1-2s1.9-0.7,3-0.7
		C300.1,520.4,301.2,520.7,302.2,521.3z M301.3,531.6c0.8-0.4,1.3-1,1.8-1.8c0.4-0.8,0.6-1.7,0.6-2.7s-0.2-1.9-0.6-2.7
		c-0.4-0.8-1-1.4-1.8-1.8s-1.6-0.7-2.5-0.7c-0.9,0-1.8,0.2-2.5,0.7s-1.3,1-1.8,1.8c-0.4,0.8-0.6,1.7-0.6,2.7s0.2,1.9,0.6,2.7
		c0.4,0.8,1,1.4,1.8,1.8c0.7,0.4,1.6,0.6,2.5,0.6C299.7,532.2,300.5,532,301.3,531.6z"/>
	<path class="st1" d="M311,533c-1-0.6-1.8-1.4-2.4-2.4s-0.9-2.2-0.9-3.5c0-1.3,0.3-2.4,0.9-3.5c0.6-1,1.4-1.8,2.4-2.4
		c1-0.6,2.2-0.8,3.4-0.8c1.3,0,2.4,0.3,3.4,0.8c1,0.6,1.8,1.4,2.4,2.4c0.6,1,0.9,2.2,0.9,3.5c0,1.3-0.3,2.4-0.9,3.5
		c-0.6,1-1.4,1.8-2.4,2.4s-2.2,0.9-3.4,0.9C313.2,533.8,312,533.5,311,533z M316.9,531.6c0.7-0.4,1.3-1,1.7-1.8
		c0.4-0.8,0.6-1.7,0.6-2.7s-0.2-1.9-0.6-2.7c-0.4-0.8-1-1.4-1.7-1.8s-1.6-0.6-2.5-0.6c-0.9,0-1.8,0.2-2.5,0.6s-1.3,1-1.8,1.8
		c-0.4,0.8-0.6,1.7-0.6,2.7s0.2,1.9,0.6,2.7c0.4,0.8,1,1.4,1.8,1.8c0.7,0.4,1.6,0.6,2.5,0.6C315.4,532.2,316.2,532,316.9,531.6z"/>
	<path class="st1" d="M328.3,521.1c0.8-0.5,1.8-0.7,3.1-0.7v1.7l-0.4,0c-1.4,0-2.5,0.4-3.2,1.3c-0.8,0.9-1.2,2-1.2,3.6v6.7h-1.8
		v-13.2h1.7v2.6C326.9,522.2,327.5,521.6,328.3,521.1z"/>
	<path class="st1" d="M342.1,532.9c-0.3,0.3-0.7,0.5-1.2,0.7c-0.5,0.2-1,0.2-1.5,0.2c-1.2,0-2.2-0.3-2.9-1c-0.7-0.7-1-1.6-1-2.8v-8
		h-2.4v-1.5h2.4v-2.9h1.8v2.9h4v1.5h-4v7.9c0,0.8,0.2,1.4,0.6,1.8c0.4,0.4,1,0.6,1.7,0.6c0.4,0,0.7-0.1,1.1-0.2
		c0.3-0.1,0.6-0.3,0.9-0.5L342.1,532.9z"/>
	<path class="st1" d="M357.1,520.5v13.2h-1.7v-2.4c-0.5,0.8-1.1,1.4-1.9,1.9c-0.8,0.4-1.8,0.7-2.8,0.7c-1.7,0-3.1-0.5-4.1-1.4
		c-1-1-1.5-2.4-1.5-4.2v-7.6h1.8v7.5c0,1.4,0.3,2.4,1,3.2c0.7,0.7,1.7,1.1,2.9,1.1c1.4,0,2.5-0.4,3.3-1.3c0.8-0.8,1.2-2,1.2-3.5
		v-6.9H357.1z"/>
	<path class="st1" d="M372.7,521.9c1,1,1.5,2.4,1.5,4.2v7.6h-1.8v-7.5c0-1.4-0.3-2.4-1-3.1c-0.7-0.7-1.7-1.1-2.9-1.1
		c-1.4,0-2.5,0.4-3.4,1.3c-0.8,0.8-1.2,2-1.2,3.5v6.9h-1.8v-13.2h1.7v2.4c0.5-0.8,1.2-1.4,2-1.9c0.9-0.4,1.9-0.7,3-0.7
		C370.5,520.4,371.8,520.9,372.7,521.9z"/>
	<path class="st1" d="M379,517.3c-0.2-0.2-0.4-0.5-0.4-0.9c0-0.3,0.1-0.6,0.4-0.9s0.6-0.4,0.9-0.4c0.4,0,0.7,0.1,0.9,0.4
		c0.2,0.2,0.4,0.5,0.4,0.9c0,0.4-0.1,0.7-0.4,0.9s-0.6,0.4-0.9,0.4C379.6,517.7,379.3,517.5,379,517.3z M379,520.5h1.8v13.2H379
		V520.5z"/>
	<path class="st1" d="M392.7,532.9c-0.3,0.3-0.7,0.5-1.2,0.7c-0.5,0.2-1,0.2-1.5,0.2c-1.2,0-2.2-0.3-2.9-1c-0.7-0.7-1-1.6-1-2.8v-8
		h-2.4v-1.5h2.4v-2.9h1.8v2.9h4v1.5h-4v7.9c0,0.8,0.2,1.4,0.6,1.8c0.4,0.4,1,0.6,1.7,0.6c0.4,0,0.7-0.1,1.1-0.2
		c0.3-0.1,0.6-0.3,0.9-0.5L392.7,532.9z"/>
	<path class="st1" d="M406.9,527.7h-11c0.1,1.4,0.6,2.5,1.6,3.3c1,0.8,2.1,1.3,3.6,1.3c0.8,0,1.6-0.1,2.2-0.4
		c0.7-0.3,1.3-0.7,1.8-1.3l1,1.1c-0.6,0.7-1.3,1.2-2.2,1.6s-1.8,0.5-2.9,0.5c-1.3,0-2.5-0.3-3.6-0.9s-1.9-1.4-2.4-2.4
		s-0.9-2.2-0.9-3.5c0-1.3,0.3-2.4,0.8-3.5c0.6-1,1.3-1.8,2.3-2.4c1-0.6,2.1-0.8,3.3-0.8c1.2,0,2.3,0.3,3.3,0.8
		c1,0.6,1.7,1.4,2.3,2.4c0.5,1,0.8,2.2,0.8,3.5L406.9,527.7z M397.3,523.2c-0.9,0.8-1.3,1.9-1.5,3.2h9.3c-0.1-1.3-0.6-2.4-1.5-3.2
		c-0.9-0.8-1.9-1.2-3.2-1.2C399.3,522,398.2,522.4,397.3,523.2z M402.3,515.4h2.4l-4,3.1h-1.8L402.3,515.4z"/>
</g>
<g class="st7">
	<path class="st1" d="M297.5,41.6v1.6h-12.4V25.7h12v1.6H287v6.2h9v1.6h-9v6.5H297.5z M293,21.2h2.4l-4,3.1h-1.8L293,21.2z"/>
	<path class="st1" d="M308.1,42.4c-0.3,0.3-0.7,0.5-1.2,0.7c-0.5,0.2-1,0.2-1.5,0.2c-1.2,0-2.2-0.3-2.9-1c-0.7-0.7-1-1.6-1-2.8v-7.9
		h-2.4V30h2.4v-2.9h1.8V30h4v1.5h-4v7.9c0,0.8,0.2,1.4,0.6,1.8c0.4,0.4,1,0.6,1.7,0.6c0.4,0,0.7-0.1,1.1-0.2
		c0.3-0.1,0.6-0.3,0.9-0.5L308.1,42.4z"/>
	<path class="st1" d="M319.8,31.2c0.9,0.9,1.4,2.1,1.4,3.8v8.1h-1.7v-2c-0.4,0.7-1,1.2-1.8,1.6c-0.8,0.4-1.7,0.6-2.8,0.6
		c-1.5,0-2.6-0.4-3.5-1c-0.9-0.7-1.3-1.6-1.3-2.8c0-1.1,0.4-2,1.2-2.7c0.8-0.7,2.1-1,3.9-1h4.2V35c0-1.1-0.3-2-1-2.6
		c-0.6-0.6-1.6-0.9-2.8-0.9c-0.8,0-1.6,0.1-2.4,0.4s-1.4,0.7-2,1.1l-0.8-1.3c0.7-0.6,1.5-1,2.4-1.3c0.9-0.3,1.9-0.5,3-0.5
		C317.6,29.9,318.9,30.4,319.8,31.2z M317.8,41.2c0.7-0.5,1.2-1.1,1.6-2v-2.1h-4.1c-2.2,0-3.4,0.8-3.4,2.4c0,0.8,0.3,1.4,0.9,1.8
		c0.6,0.4,1.4,0.7,2.5,0.7C316.3,41.9,317.1,41.7,317.8,41.2z"/>
	<path class="st1" d="M336.2,30.8c1,0.6,1.8,1.3,2.4,2.4c0.6,1,0.8,2.2,0.8,3.5c0,1.3-0.3,2.5-0.8,3.5c-0.6,1-1.3,1.8-2.3,2.4
		c-1,0.6-2.1,0.8-3.4,0.8c-1.1,0-2-0.2-2.9-0.7c-0.9-0.4-1.6-1.1-2.1-1.9V48H326V30h1.7v2.6c0.5-0.9,1.2-1.5,2.1-2s1.9-0.7,3-0.7
		C334,29.9,335.2,30.2,336.2,30.8z M335.2,41.1c0.8-0.4,1.3-1,1.8-1.8c0.4-0.8,0.6-1.7,0.6-2.7s-0.2-1.9-0.6-2.7
		c-0.4-0.8-1-1.4-1.8-1.8s-1.6-0.7-2.5-0.7c-0.9,0-1.8,0.2-2.5,0.7s-1.3,1-1.8,1.8c-0.4,0.8-0.6,1.7-0.6,2.7s0.2,1.9,0.6,2.7
		c0.4,0.8,1,1.4,1.8,1.8c0.7,0.4,1.6,0.6,2.5,0.6C333.6,41.7,334.4,41.5,335.2,41.1z"/>
	<path class="st1" d="M354.4,37.2h-11c0.1,1.4,0.6,2.5,1.6,3.3c1,0.8,2.1,1.3,3.6,1.3c0.8,0,1.6-0.1,2.2-0.4
		c0.7-0.3,1.3-0.7,1.8-1.3l1,1.1c-0.6,0.7-1.3,1.2-2.2,1.6s-1.8,0.5-2.9,0.5c-1.3,0-2.5-0.3-3.6-0.9c-1-0.6-1.9-1.4-2.4-2.4
		s-0.9-2.2-0.9-3.5c0-1.3,0.3-2.4,0.8-3.4s1.3-1.8,2.3-2.4c1-0.6,2.1-0.9,3.3-0.9c1.2,0,2.3,0.3,3.3,0.9c1,0.6,1.7,1.4,2.3,2.4
		c0.5,1,0.8,2.2,0.8,3.5L354.4,37.2z M344.9,32.7c-0.9,0.8-1.3,1.9-1.5,3.2h9.3c-0.1-1.3-0.6-2.4-1.5-3.2c-0.9-0.8-1.9-1.2-3.2-1.2
		C346.8,31.5,345.8,31.9,344.9,32.7z"/>
	<path class="st1" d="M373.6,34.7c1,0.9,1.4,2.1,1.4,3.5c0,1-0.2,1.9-0.7,2.7c-0.5,0.8-1.2,1.4-2.1,1.8c-1,0.4-2.1,0.7-3.5,0.7
		c-1.3,0-2.5-0.2-3.6-0.6c-1.1-0.4-2-1-2.7-1.6l0.9-1.4c0.6,0.6,1.4,1.1,2.3,1.5s2,0.6,3.1,0.6c1.4,0,2.5-0.3,3.3-0.9
		c0.8-0.6,1.2-1.5,1.2-2.6c0-1.1-0.4-1.9-1.2-2.6c-0.8-0.6-2-0.9-3.6-0.9h-1.2v-1.3l4.9-6.1h-8.9v-1.6h11.2V27l-5,6.2
		C371.2,33.3,372.6,33.8,373.6,34.7z"/>
	<path class="st1" d="M378,32.3c-0.3-0.3-0.4-0.6-0.4-1s0.1-0.7,0.4-1s0.6-0.4,0.9-0.4s0.7,0.1,1,0.4c0.3,0.3,0.4,0.6,0.4,1
		s-0.1,0.7-0.4,1c-0.3,0.3-0.6,0.4-1,0.4S378.2,32.5,378,32.3z M378,42.9c-0.3-0.3-0.4-0.6-0.4-1c0-0.4,0.1-0.7,0.4-1
		s0.6-0.4,0.9-0.4s0.7,0.1,1,0.4c0.3,0.3,0.4,0.6,0.4,1c0,0.4-0.1,0.7-0.4,1c-0.3,0.3-0.6,0.4-1,0.4S378.2,43.2,378,42.9z"/>
</g>
<g class="st7">
	<path class="st1" d="M297,58.6c1.3,1.1,1.9,2.5,1.9,4.4c0,1.9-0.6,3.3-1.9,4.4s-3,1.6-5.2,1.6H287v5.5h-1.9V57h6.5
		C293.9,57,295.7,57.5,297,58.6z M295.6,66.2c0.9-0.8,1.4-1.8,1.4-3.2c0-1.4-0.5-2.5-1.4-3.3c-0.9-0.8-2.2-1.1-4-1.1H287v8.8h4.6
		C293.4,67.3,294.7,67,295.6,66.2z"/>
	<path class="st1" d="M305.7,61.9c0.8-0.4,1.8-0.7,3.1-0.7V63l-0.4,0c-1.4,0-2.5,0.4-3.2,1.3s-1.2,2-1.2,3.6v6.7h-1.8V61.3h1.7v2.6
		C304.3,63,304.9,62.4,305.7,61.9z"/>
	<path class="st1" d="M313.8,73.8c-1-0.6-1.8-1.4-2.4-2.4s-0.9-2.2-0.9-3.5c0-1.3,0.3-2.4,0.9-3.4s1.4-1.8,2.4-2.4
		c1-0.6,2.2-0.9,3.4-0.9c1.3,0,2.4,0.3,3.4,0.9c1,0.6,1.8,1.4,2.4,2.4c0.6,1,0.9,2.2,0.9,3.4c0,1.3-0.3,2.4-0.9,3.5
		c-0.6,1-1.4,1.8-2.4,2.4c-1,0.6-2.2,0.9-3.4,0.9C316,74.6,314.8,74.3,313.8,73.8z M319.8,72.4c0.7-0.4,1.3-1,1.7-1.8
		c0.4-0.8,0.6-1.7,0.6-2.7s-0.2-1.9-0.6-2.7c-0.4-0.8-1-1.4-1.7-1.8s-1.6-0.6-2.5-0.6c-0.9,0-1.8,0.2-2.5,0.6s-1.3,1-1.8,1.8
		c-0.4,0.8-0.6,1.7-0.6,2.7s0.2,1.9,0.6,2.7c0.4,0.8,1,1.4,1.8,1.8c0.7,0.4,1.6,0.6,2.5,0.6C318.2,73,319,72.8,319.8,72.4z"/>
	<path class="st1" d="M337.7,62.1c1,0.6,1.8,1.3,2.4,2.4c0.6,1,0.8,2.2,0.8,3.5c0,1.3-0.3,2.5-0.8,3.5c-0.6,1-1.3,1.8-2.3,2.4
		c-1,0.6-2.1,0.8-3.4,0.8c-1.1,0-2-0.2-2.9-0.7c-0.9-0.4-1.6-1.1-2.1-1.9v7.3h-1.8v-18h1.7v2.6c0.5-0.9,1.2-1.5,2.1-2s1.9-0.7,3-0.7
		C335.5,61.2,336.7,61.5,337.7,62.1z M336.7,72.4c0.8-0.4,1.3-1,1.8-1.8c0.4-0.8,0.6-1.7,0.6-2.7s-0.2-1.9-0.6-2.7
		c-0.4-0.8-1-1.4-1.8-1.8s-1.6-0.7-2.5-0.7c-0.9,0-1.8,0.2-2.5,0.7s-1.3,1-1.8,1.8c-0.4,0.8-0.6,1.7-0.6,2.7s0.2,1.9,0.6,2.7
		c0.4,0.8,1,1.4,1.8,1.8c0.7,0.4,1.6,0.6,2.5,0.6C335.1,73,335.9,72.8,336.7,72.4z"/>
	<path class="st1" d="M346.4,73.8c-1-0.6-1.8-1.4-2.4-2.4s-0.9-2.2-0.9-3.5c0-1.3,0.3-2.4,0.9-3.4s1.4-1.8,2.4-2.4
		c1-0.6,2.2-0.9,3.4-0.9c1.3,0,2.4,0.3,3.4,0.9c1,0.6,1.8,1.4,2.4,2.4c0.6,1,0.9,2.2,0.9,3.4c0,1.3-0.3,2.4-0.9,3.5
		c-0.6,1-1.4,1.8-2.4,2.4c-1,0.6-2.2,0.9-3.4,0.9C348.6,74.6,347.5,74.3,346.4,73.8z M352.4,72.4c0.7-0.4,1.3-1,1.7-1.8
		c0.4-0.8,0.6-1.7,0.6-2.7s-0.2-1.9-0.6-2.7c-0.4-0.8-1-1.4-1.7-1.8s-1.6-0.6-2.5-0.6c-0.9,0-1.8,0.2-2.5,0.6s-1.3,1-1.8,1.8
		c-0.4,0.8-0.6,1.7-0.6,2.7s0.2,1.9,0.6,2.7c0.4,0.8,1,1.4,1.8,1.8c0.7,0.4,1.6,0.6,2.5,0.6C350.8,73,351.6,72.8,352.4,72.4z"/>
	<path class="st1" d="M360.6,74.2c-1-0.3-1.7-0.7-2.3-1.2l0.8-1.4c0.5,0.4,1.2,0.8,2.1,1.1s1.7,0.4,2.6,0.4c1.2,0,2.1-0.2,2.7-0.6
		c0.6-0.4,0.9-0.9,0.9-1.6c0-0.5-0.2-0.9-0.5-1.1s-0.7-0.5-1.2-0.6c-0.5-0.1-1.1-0.3-1.9-0.4c-1.1-0.2-1.9-0.4-2.6-0.6
		s-1.2-0.6-1.7-1.1c-0.5-0.5-0.7-1.2-0.7-2.1c0-1.1,0.5-2,1.4-2.7c0.9-0.7,2.2-1,3.8-1c0.8,0,1.7,0.1,2.5,0.3s1.5,0.5,2.1,0.9
		l-0.8,1.4c-1.1-0.8-2.4-1.1-3.9-1.1c-1.1,0-2,0.2-2.6,0.6c-0.6,0.4-0.9,0.9-0.9,1.6c0,0.5,0.2,0.9,0.5,1.2c0.3,0.3,0.7,0.5,1.2,0.7
		c0.5,0.1,1.1,0.3,2,0.4c1,0.2,1.9,0.4,2.5,0.6c0.6,0.2,1.2,0.5,1.6,1s0.7,1.1,0.7,2c0,1.1-0.5,2.1-1.4,2.7c-1,0.7-2.3,1-4,1
		C362.6,74.6,361.6,74.5,360.6,74.2z"/>
	<path class="st1" d="M372.4,58.1c-0.2-0.2-0.4-0.6-0.4-0.9c0-0.3,0.1-0.6,0.4-0.9s0.6-0.4,0.9-0.4c0.4,0,0.7,0.1,0.9,0.4
		c0.2,0.2,0.4,0.5,0.4,0.9c0,0.4-0.1,0.7-0.4,0.9s-0.6,0.4-0.9,0.4C372.9,58.5,372.6,58.3,372.4,58.1z M372.4,61.3h1.8v13.1h-1.8
		V61.3z"/>
	<path class="st1" d="M386,73.7c-0.3,0.3-0.7,0.5-1.2,0.7c-0.5,0.2-1,0.2-1.5,0.2c-1.2,0-2.2-0.3-2.9-1c-0.7-0.7-1-1.6-1-2.8v-7.9
		h-2.4v-1.5h2.4v-2.9h1.8v2.9h4v1.5h-4v7.9c0,0.8,0.2,1.4,0.6,1.8c0.4,0.4,1,0.6,1.7,0.6c0.4,0,0.7-0.1,1.1-0.2
		c0.3-0.1,0.6-0.3,0.9-0.5L386,73.7z"/>
	<path class="st1" d="M389.2,58.1c-0.2-0.2-0.4-0.6-0.4-0.9c0-0.3,0.1-0.6,0.4-0.9s0.6-0.4,0.9-0.4c0.4,0,0.7,0.1,0.9,0.4
		c0.2,0.2,0.4,0.5,0.4,0.9c0,0.4-0.1,0.7-0.4,0.9s-0.6,0.4-0.9,0.4C389.8,58.5,389.5,58.3,389.2,58.1z M389.3,61.3h1.8v13.1h-1.8
		V61.3z"/>
	<path class="st1" d="M397.9,73.8c-1-0.6-1.8-1.4-2.4-2.4s-0.9-2.2-0.9-3.5c0-1.3,0.3-2.4,0.9-3.4s1.4-1.8,2.4-2.4
		c1-0.6,2.2-0.9,3.4-0.9c1.3,0,2.4,0.3,3.4,0.9c1,0.6,1.8,1.4,2.4,2.4c0.6,1,0.9,2.2,0.9,3.4c0,1.3-0.3,2.4-0.9,3.5
		c-0.6,1-1.4,1.8-2.4,2.4c-1,0.6-2.2,0.9-3.4,0.9C400.1,74.6,399,74.3,397.9,73.8z M403.9,72.4c0.7-0.4,1.3-1,1.7-1.8
		c0.4-0.8,0.6-1.7,0.6-2.7s-0.2-1.9-0.6-2.7c-0.4-0.8-1-1.4-1.7-1.8s-1.6-0.6-2.5-0.6c-0.9,0-1.8,0.2-2.5,0.6s-1.3,1-1.8,1.8
		c-0.4,0.8-0.6,1.7-0.6,2.7s0.2,1.9,0.6,2.7c0.4,0.8,1,1.4,1.8,1.8c0.7,0.4,1.6,0.6,2.5,0.6C402.3,73,403.1,72.8,403.9,72.4z"/>
	<path class="st1" d="M422.3,62.7c1,1,1.5,2.4,1.5,4.2v7.6H422V67c0-1.4-0.3-2.4-1-3.1c-0.7-0.7-1.7-1.1-2.9-1.1
		c-1.4,0-2.5,0.4-3.4,1.3c-0.8,0.8-1.2,2-1.2,3.5v6.9h-1.8V61.3h1.7v2.4c0.5-0.8,1.2-1.4,2-1.9c0.9-0.4,1.9-0.7,3-0.7
		C420,61.2,421.3,61.7,422.3,62.7z"/>
	<path class="st1" d="M447.1,55.9v18.5h-1.7v-2.6c-0.5,0.9-1.2,1.6-2.1,2c-0.9,0.5-1.9,0.7-3,0.7c-1.2,0-2.4-0.3-3.4-0.9
		c-1-0.6-1.8-1.4-2.3-2.4c-0.6-1-0.8-2.2-0.8-3.5c0-1.3,0.3-2.5,0.8-3.5s1.3-1.8,2.3-2.4c1-0.6,2.1-0.8,3.4-0.8c1.1,0,2,0.2,2.9,0.7
		c0.9,0.4,1.6,1.1,2.1,1.9v-7.9H447.1z M443,72.4c0.7-0.4,1.3-1,1.8-1.8c0.4-0.8,0.6-1.7,0.6-2.7s-0.2-1.9-0.6-2.7
		c-0.4-0.8-1-1.4-1.8-1.8c-0.7-0.4-1.6-0.6-2.5-0.6c-0.9,0-1.8,0.2-2.5,0.6c-0.7,0.4-1.3,1-1.8,1.8c-0.4,0.8-0.6,1.7-0.6,2.7
		s0.2,1.9,0.6,2.7c0.4,0.8,1,1.4,1.8,1.8c0.7,0.4,1.6,0.6,2.5,0.6C441.4,73,442.3,72.8,443,72.4z"/>
	<path class="st1" d="M453.2,56.2c0.2,0.3,0.4,0.6,0.4,1c0,0.2,0,0.4-0.1,0.6c-0.1,0.2-0.1,0.5-0.2,0.8l-1.1,3.4H451l0.9-3.6
		c-0.3-0.1-0.5-0.2-0.7-0.5c-0.2-0.2-0.2-0.5-0.2-0.8c0-0.4,0.1-0.7,0.4-1s0.6-0.4,1-0.4C452.7,55.8,453,56,453.2,56.2z"/>
	<path class="st1" d="M469.2,61.3v13.1h-1.7v-2.4c-0.5,0.8-1.1,1.4-1.9,1.9c-0.8,0.4-1.8,0.7-2.8,0.7c-1.7,0-3.1-0.5-4.1-1.4
		c-1-1-1.5-2.4-1.5-4.2v-7.6h1.8v7.4c0,1.4,0.3,2.4,1,3.2c0.7,0.7,1.7,1.1,2.9,1.1c1.4,0,2.5-0.4,3.3-1.3c0.8-0.8,1.2-2,1.2-3.5
		v-6.9H469.2z"/>
	<path class="st1" d="M484.8,62.7c1,1,1.5,2.4,1.5,4.2v7.6h-1.8V67c0-1.4-0.3-2.4-1-3.1c-0.7-0.7-1.7-1.1-2.9-1.1
		c-1.4,0-2.5,0.4-3.4,1.3c-0.8,0.8-1.2,2-1.2,3.5v6.9h-1.8V61.3h1.7v2.4c0.5-0.8,1.2-1.4,2-1.9c0.9-0.4,1.9-0.7,3-0.7
		C482.6,61.2,483.9,61.7,484.8,62.7z"/>
</g>
<g class="st7">
	<path class="st1" d="M285.3,105.4c-1-0.3-1.7-0.7-2.3-1.2l0.8-1.4c0.5,0.4,1.2,0.8,2.1,1.1s1.7,0.4,2.6,0.4c1.2,0,2.1-0.2,2.7-0.6
		c0.6-0.4,0.9-0.9,0.9-1.6c0-0.5-0.2-0.9-0.5-1.1s-0.7-0.5-1.2-0.6c-0.5-0.1-1.1-0.3-1.9-0.4c-1.1-0.2-1.9-0.4-2.6-0.6
		s-1.2-0.6-1.7-1.1c-0.5-0.5-0.7-1.2-0.7-2.1c0-1.1,0.5-2,1.4-2.7c0.9-0.7,2.2-1,3.8-1c0.8,0,1.7,0.1,2.5,0.3s1.5,0.5,2.1,0.9
		l-0.8,1.4c-1.1-0.8-2.4-1.1-3.9-1.1c-1.1,0-2,0.2-2.6,0.6c-0.6,0.4-0.9,0.9-0.9,1.6c0,0.5,0.2,0.9,0.5,1.2c0.3,0.3,0.7,0.5,1.2,0.7
		c0.5,0.1,1.1,0.3,2,0.4c1,0.2,1.9,0.4,2.5,0.6c0.6,0.2,1.2,0.5,1.6,1s0.7,1.1,0.7,2c0,1.1-0.5,2.1-1.4,2.7c-1,0.7-2.3,1-4,1
		C287.2,105.8,286.2,105.7,285.3,105.4z"/>
	<path class="st1" d="M299,105c-1-0.6-1.8-1.4-2.4-2.4c-0.6-1-0.9-2.2-0.9-3.5c0-1.3,0.3-2.4,0.9-3.4s1.4-1.8,2.4-2.4
		c1-0.6,2.2-0.9,3.5-0.9c1.1,0,2.1,0.2,3,0.7c0.9,0.4,1.6,1.1,2.1,1.9l-1.3,0.9c-0.4-0.6-1-1.1-1.6-1.5c-0.7-0.3-1.4-0.5-2.2-0.5
		c-0.9,0-1.8,0.2-2.6,0.6s-1.3,1-1.8,1.8c-0.4,0.8-0.6,1.7-0.6,2.7c0,1,0.2,1.9,0.6,2.7c0.4,0.8,1,1.4,1.8,1.8
		c0.8,0.4,1.6,0.6,2.6,0.6c0.8,0,1.5-0.2,2.2-0.5c0.7-0.3,1.2-0.8,1.6-1.5l1.3,0.9c-0.5,0.9-1.2,1.5-2.1,1.9c-0.9,0.4-1.9,0.7-3,0.7
		C301.2,105.8,300,105.5,299,105z"/>
	<path class="st1" d="M322.3,99.7h-11c0.1,1.4,0.6,2.5,1.6,3.3c1,0.8,2.1,1.3,3.6,1.3c0.8,0,1.6-0.1,2.2-0.4
		c0.7-0.3,1.3-0.7,1.8-1.3l1,1.1c-0.6,0.7-1.3,1.2-2.2,1.6s-1.8,0.5-2.9,0.5c-1.3,0-2.5-0.3-3.6-0.9c-1-0.6-1.9-1.4-2.4-2.4
		s-0.9-2.2-0.9-3.5c0-1.3,0.3-2.4,0.8-3.4s1.3-1.8,2.3-2.4c1-0.6,2.1-0.9,3.3-0.9c1.2,0,2.3,0.3,3.3,0.9c1,0.6,1.7,1.4,2.3,2.4
		c0.5,1,0.8,2.2,0.8,3.5L322.3,99.7z M312.8,95.2c-0.9,0.8-1.3,1.9-1.5,3.2h9.3c-0.1-1.3-0.6-2.4-1.5-3.2c-0.9-0.8-1.9-1.2-3.2-1.2
		C314.7,94,313.6,94.4,312.8,95.2z M317.8,87.4h2.4l-4,3.1h-1.8L317.8,87.4z"/>
	<path class="st1" d="M336.6,93.9c1,1,1.5,2.4,1.5,4.2v7.6h-1.8v-7.5c0-1.4-0.3-2.4-1-3.1c-0.7-0.7-1.7-1.1-2.9-1.1
		c-1.4,0-2.5,0.4-3.4,1.3c-0.8,0.8-1.2,2-1.2,3.5v6.9H326V92.5h1.7V95c0.5-0.8,1.2-1.4,2-1.9c0.9-0.4,1.9-0.7,3-0.7
		C334.3,92.4,335.6,92.9,336.6,93.9z"/>
	<path class="st1" d="M351.4,93.7c0.9,0.9,1.4,2.1,1.4,3.8v8.1h-1.7v-2c-0.4,0.7-1,1.2-1.8,1.6c-0.8,0.4-1.7,0.6-2.8,0.6
		c-1.5,0-2.6-0.4-3.5-1c-0.9-0.7-1.3-1.6-1.3-2.8c0-1.1,0.4-2,1.2-2.7c0.8-0.7,2.1-1,3.9-1h4.2v-0.8c0-1.1-0.3-2-1-2.6
		c-0.6-0.6-1.6-0.9-2.8-0.9c-0.8,0-1.6,0.1-2.4,0.4s-1.4,0.7-2,1.1l-0.8-1.3c0.7-0.6,1.5-1,2.4-1.3c0.9-0.3,1.9-0.5,3-0.5
		C349.2,92.4,350.5,92.9,351.4,93.7z M349.4,103.7c0.7-0.5,1.2-1.1,1.6-2v-2.1h-4.1c-2.2,0-3.4,0.8-3.4,2.4c0,0.8,0.3,1.4,0.9,1.8
		c0.6,0.4,1.4,0.7,2.5,0.7C347.9,104.4,348.7,104.2,349.4,103.7z"/>
	<path class="st1" d="M361.2,93.1c0.8-0.4,1.8-0.7,3.1-0.7v1.7l-0.4,0c-1.4,0-2.5,0.4-3.2,1.3s-1.2,2-1.2,3.6v6.7h-1.8V92.5h1.7v2.6
		C359.8,94.2,360.4,93.6,361.2,93.1z"/>
	<path class="st1" d="M367.4,89.3c-0.2-0.2-0.4-0.6-0.4-0.9c0-0.3,0.1-0.6,0.4-0.9s0.6-0.4,0.9-0.4c0.4,0,0.7,0.1,0.9,0.4
		c0.2,0.2,0.4,0.5,0.4,0.9c0,0.4-0.1,0.7-0.4,0.9s-0.6,0.4-0.9,0.4C368,89.7,367.7,89.5,367.4,89.3z M367.5,92.5h1.8v13.1h-1.8V92.5
		z"/>
	<path class="st1" d="M376.1,105c-1-0.6-1.8-1.4-2.4-2.4s-0.9-2.2-0.9-3.5c0-1.3,0.3-2.4,0.9-3.4s1.4-1.8,2.4-2.4
		c1-0.6,2.2-0.9,3.4-0.9c1.3,0,2.4,0.3,3.4,0.9c1,0.6,1.8,1.4,2.4,2.4c0.6,1,0.9,2.2,0.9,3.4c0,1.3-0.3,2.4-0.9,3.5
		c-0.6,1-1.4,1.8-2.4,2.4c-1,0.6-2.2,0.9-3.4,0.9C378.3,105.8,377.2,105.5,376.1,105z M382.1,103.6c0.7-0.4,1.3-1,1.7-1.8
		c0.4-0.8,0.6-1.7,0.6-2.7s-0.2-1.9-0.6-2.7c-0.4-0.8-1-1.4-1.7-1.8s-1.6-0.6-2.5-0.6c-0.9,0-1.8,0.2-2.5,0.6s-1.3,1-1.8,1.8
		c-0.4,0.8-0.6,1.7-0.6,2.7s0.2,1.9,0.6,2.7c0.4,0.8,1,1.4,1.8,1.8c0.7,0.4,1.6,0.6,2.5,0.6C380.5,104.2,381.3,104,382.1,103.6z"/>
	<path class="st1" d="M408.4,87.1v18.5h-1.7v-2.6c-0.5,0.9-1.2,1.6-2.1,2c-0.9,0.5-1.9,0.7-3,0.7c-1.2,0-2.4-0.3-3.4-0.9
		c-1-0.6-1.8-1.4-2.4-2.4c-0.6-1-0.9-2.2-0.9-3.5c0-1.3,0.3-2.5,0.9-3.5c0.6-1,1.4-1.8,2.4-2.4c1-0.6,2.1-0.8,3.4-0.8
		c1.1,0,2,0.2,2.9,0.7c0.9,0.4,1.6,1.1,2.1,1.9v-7.9H408.4z M404.3,103.6c0.7-0.4,1.3-1,1.8-1.8c0.4-0.8,0.6-1.7,0.6-2.7
		s-0.2-1.9-0.6-2.7c-0.4-0.8-1-1.4-1.8-1.8s-1.6-0.6-2.5-0.6c-0.9,0-1.8,0.2-2.5,0.6s-1.3,1-1.8,1.8c-0.4,0.8-0.6,1.7-0.6,2.7
		s0.2,1.9,0.6,2.7c0.4,0.8,1,1.4,1.8,1.8c0.7,0.4,1.6,0.6,2.5,0.6C402.7,104.2,403.5,104,404.3,103.6z"/>
	<path class="st1" d="M414.5,87.4c0.2,0.3,0.4,0.6,0.4,1c0,0.2,0,0.4-0.1,0.6c-0.1,0.2-0.1,0.5-0.2,0.8l-1.1,3.4h-1.2l0.9-3.6
		c-0.3-0.1-0.5-0.2-0.7-0.5c-0.2-0.2-0.2-0.5-0.2-0.8c0-0.4,0.1-0.7,0.4-1s0.6-0.4,0.9-0.4S414.3,87.2,414.5,87.4z"/>
	<path class="st1" d="M418.6,89.3c-0.2-0.2-0.4-0.6-0.4-0.9c0-0.3,0.1-0.6,0.4-0.9s0.6-0.4,0.9-0.4c0.4,0,0.7,0.1,0.9,0.4
		c0.2,0.2,0.4,0.5,0.4,0.9c0,0.4-0.1,0.7-0.4,0.9s-0.6,0.4-0.9,0.4C419.2,89.7,418.9,89.5,418.6,89.3z M418.7,92.5h1.8v13.1h-1.8
		V92.5z"/>
	<path class="st1" d="M436,93.9c1,1,1.5,2.4,1.5,4.2v7.6h-1.8v-7.5c0-1.4-0.3-2.4-1-3.1c-0.7-0.7-1.7-1.1-2.9-1.1
		c-1.4,0-2.5,0.4-3.4,1.3c-0.8,0.8-1.2,2-1.2,3.5v6.9h-1.8V92.5h1.7V95c0.5-0.8,1.2-1.4,2-1.9c0.9-0.4,1.9-0.7,3-0.7
		C433.7,92.4,435,92.9,436,93.9z"/>
	<path class="st1" d="M453.1,92.5l-5.8,13.1h-1.8l-5.8-13.1h1.8l4.9,11.2l5-11.2H453.1z"/>
	<path class="st1" d="M466.7,99.7h-11c0.1,1.4,0.6,2.5,1.6,3.3c0.9,0.8,2.1,1.3,3.6,1.3c0.8,0,1.6-0.1,2.2-0.4
		c0.7-0.3,1.3-0.7,1.8-1.3l1,1.1c-0.6,0.7-1.3,1.2-2.2,1.6s-1.8,0.5-2.9,0.5c-1.3,0-2.5-0.3-3.6-0.9c-1-0.6-1.9-1.4-2.4-2.4
		s-0.9-2.2-0.9-3.5c0-1.3,0.3-2.4,0.8-3.4s1.3-1.8,2.3-2.4c1-0.6,2.1-0.9,3.3-0.9s2.3,0.3,3.3,0.9c1,0.6,1.7,1.4,2.3,2.4
		c0.5,1,0.8,2.2,0.8,3.5L466.7,99.7z M457.1,95.2c-0.9,0.8-1.3,1.9-1.5,3.2h9.3c-0.1-1.3-0.6-2.4-1.5-3.2c-0.9-0.8-1.9-1.2-3.2-1.2
		C459.1,94,458,94.4,457.1,95.2z"/>
	<path class="st1" d="M470.8,105.4c-1-0.3-1.7-0.7-2.3-1.2l0.8-1.4c0.5,0.4,1.2,0.8,2.1,1.1c0.8,0.3,1.7,0.4,2.6,0.4
		c1.2,0,2.1-0.2,2.7-0.6c0.6-0.4,0.9-0.9,0.9-1.6c0-0.5-0.2-0.9-0.5-1.1s-0.7-0.5-1.2-0.6s-1.1-0.3-1.9-0.4
		c-1.1-0.2-1.9-0.4-2.6-0.6c-0.6-0.2-1.2-0.6-1.7-1.1c-0.5-0.5-0.7-1.2-0.7-2.1c0-1.1,0.5-2,1.4-2.7c0.9-0.7,2.2-1,3.8-1
		c0.8,0,1.7,0.1,2.5,0.3s1.5,0.5,2.1,0.9l-0.8,1.4c-1.1-0.8-2.4-1.1-3.9-1.1c-1.1,0-2,0.2-2.6,0.6s-0.9,0.9-0.9,1.6
		c0,0.5,0.2,0.9,0.5,1.2c0.3,0.3,0.7,0.5,1.2,0.7s1.2,0.3,2,0.4c1.1,0.2,1.9,0.4,2.5,0.6c0.6,0.2,1.2,0.5,1.6,1s0.7,1.1,0.7,2
		c0,1.1-0.5,2.1-1.4,2.7c-1,0.7-2.3,1-4,1C472.8,105.8,471.8,105.7,470.8,105.4z"/>
	<path class="st1" d="M489.5,104.9c-0.3,0.3-0.7,0.5-1.2,0.7c-0.5,0.2-1,0.2-1.5,0.2c-1.2,0-2.2-0.3-2.8-1c-0.7-0.7-1-1.6-1-2.8V94
		h-2.4v-1.5h2.4v-2.9h1.8v2.9h4V94h-4v7.9c0,0.8,0.2,1.4,0.6,1.8c0.4,0.4,1,0.6,1.7,0.6c0.4,0,0.7-0.1,1.1-0.2
		c0.3-0.1,0.6-0.3,0.9-0.5L489.5,104.9z"/>
	<path class="st1" d="M492.7,89.3c-0.2-0.2-0.4-0.6-0.4-0.9c0-0.3,0.1-0.6,0.4-0.9s0.6-0.4,0.9-0.4c0.4,0,0.7,0.1,0.9,0.4
		c0.2,0.2,0.4,0.5,0.4,0.9c0,0.4-0.1,0.7-0.4,0.9s-0.6,0.4-0.9,0.4C493.2,89.7,492.9,89.5,492.7,89.3z M492.7,92.5h1.8v13.1h-1.8
		V92.5z"/>
	<path class="st1" d="M499.9,105.4c-1-0.3-1.7-0.7-2.3-1.2l0.8-1.4c0.5,0.4,1.2,0.8,2.1,1.1c0.8,0.3,1.7,0.4,2.6,0.4
		c1.2,0,2.1-0.2,2.7-0.6c0.6-0.4,0.9-0.9,0.9-1.6c0-0.5-0.2-0.9-0.5-1.1s-0.7-0.5-1.2-0.6s-1.1-0.3-1.9-0.4
		c-1.1-0.2-1.9-0.4-2.6-0.6c-0.6-0.2-1.2-0.6-1.7-1.1c-0.5-0.5-0.7-1.2-0.7-2.1c0-1.1,0.5-2,1.4-2.7c0.9-0.7,2.2-1,3.8-1
		c0.8,0,1.7,0.1,2.5,0.3s1.5,0.5,2.1,0.9l-0.8,1.4c-1.1-0.8-2.4-1.1-3.9-1.1c-1.1,0-2,0.2-2.6,0.6s-0.9,0.9-0.9,1.6
		c0,0.5,0.2,0.9,0.5,1.2c0.3,0.3,0.7,0.5,1.2,0.7s1.2,0.3,2,0.4c1.1,0.2,1.9,0.4,2.5,0.6c0.6,0.2,1.2,0.5,1.6,1s0.7,1.1,0.7,2
		c0,1.1-0.5,2.1-1.4,2.7c-1,0.7-2.3,1-4,1C501.9,105.8,500.9,105.7,499.9,105.4z"/>
	<path class="st1" d="M512.1,105.4c-1-0.3-1.7-0.7-2.3-1.2l0.8-1.4c0.5,0.4,1.2,0.8,2.1,1.1c0.8,0.3,1.7,0.4,2.6,0.4
		c1.2,0,2.1-0.2,2.7-0.6c0.6-0.4,0.9-0.9,0.9-1.6c0-0.5-0.2-0.9-0.5-1.1s-0.7-0.5-1.2-0.6s-1.1-0.3-1.9-0.4
		c-1.1-0.2-1.9-0.4-2.6-0.6c-0.6-0.2-1.2-0.6-1.7-1.1c-0.5-0.5-0.7-1.2-0.7-2.1c0-1.1,0.5-2,1.4-2.7c0.9-0.7,2.2-1,3.8-1
		c0.8,0,1.7,0.1,2.5,0.3s1.5,0.5,2.1,0.9l-0.8,1.4c-1.1-0.8-2.4-1.1-3.9-1.1c-1.1,0-2,0.2-2.6,0.6s-0.9,0.9-0.9,1.6
		c0,0.5,0.2,0.9,0.5,1.2c0.3,0.3,0.7,0.5,1.2,0.7s1.2,0.3,2,0.4c1.1,0.2,1.9,0.4,2.5,0.6c0.6,0.2,1.2,0.5,1.6,1s0.7,1.1,0.7,2
		c0,1.1-0.5,2.1-1.4,2.7c-1,0.7-2.3,1-4,1C514.1,105.8,513.1,105.7,512.1,105.4z"/>
	<path class="st1" d="M535.3,99.7h-11c0.1,1.4,0.6,2.5,1.6,3.3c1,0.8,2.2,1.3,3.6,1.3c0.8,0,1.6-0.1,2.2-0.4
		c0.7-0.3,1.3-0.7,1.8-1.3l1,1.1c-0.6,0.7-1.3,1.2-2.2,1.6s-1.8,0.5-2.9,0.5c-1.3,0-2.5-0.3-3.6-0.9c-1-0.6-1.9-1.4-2.4-2.4
		s-0.9-2.2-0.9-3.5c0-1.3,0.3-2.4,0.8-3.4s1.3-1.8,2.3-2.4c1-0.6,2.1-0.9,3.3-0.9c1.2,0,2.3,0.3,3.3,0.9c1,0.6,1.7,1.4,2.3,2.4
		c0.6,1,0.8,2.2,0.8,3.5L535.3,99.7z M525.8,95.2c-0.9,0.8-1.3,1.9-1.5,3.2h9.3c-0.1-1.3-0.6-2.4-1.5-3.2c-0.9-0.8-1.9-1.2-3.2-1.2
		C527.7,94,526.7,94.4,525.8,95.2z"/>
	<path class="st1" d="M559.3,93.9c0.9,1,1.4,2.4,1.4,4.2v7.6h-1.8v-7.5c0-1.4-0.3-2.4-1-3.1c-0.7-0.7-1.6-1.1-2.8-1.1
		c-1.4,0-2.4,0.4-3.2,1.3c-0.8,0.8-1.2,2-1.2,3.5v6.9H549v-7.5c0-1.4-0.3-2.4-1-3.1c-0.7-0.7-1.6-1.1-2.8-1.1
		c-1.3,0-2.4,0.4-3.2,1.3c-0.8,0.8-1.2,2-1.2,3.5v6.9H539V92.5h1.7v2.4c0.5-0.8,1.1-1.4,1.9-1.9c0.8-0.4,1.8-0.6,2.9-0.6
		c1.1,0,2.1,0.2,2.9,0.7s1.4,1.2,1.8,2.1c0.5-0.9,1.2-1.5,2.1-2c0.9-0.5,1.9-0.7,3.1-0.7C557,92.4,558.3,92.9,559.3,93.9z"/>
	<path class="st1" d="M577,99.7h-11c0.1,1.4,0.6,2.5,1.6,3.3c1,0.8,2.1,1.3,3.6,1.3c0.8,0,1.6-0.1,2.2-0.4c0.7-0.3,1.3-0.7,1.8-1.3
		l1,1.1c-0.6,0.7-1.3,1.2-2.2,1.6s-1.8,0.5-2.9,0.5c-1.3,0-2.5-0.3-3.6-0.9c-1-0.6-1.9-1.4-2.4-2.4c-0.6-1-0.9-2.2-0.9-3.5
		c0-1.3,0.3-2.4,0.8-3.4s1.3-1.8,2.3-2.4c1-0.6,2.1-0.9,3.3-0.9s2.3,0.3,3.3,0.9c1,0.6,1.7,1.4,2.3,2.4c0.5,1,0.8,2.2,0.8,3.5
		L577,99.7z M567.5,95.2c-0.9,0.8-1.3,1.9-1.5,3.2h9.3c-0.1-1.3-0.6-2.4-1.5-3.2c-0.9-0.8-1.9-1.2-3.2-1.2
		C569.4,94,568.3,94.4,567.5,95.2z"/>
	<path class="st1" d="M591.3,93.9c1,1,1.5,2.4,1.5,4.2v7.6H591v-7.5c0-1.4-0.3-2.4-1-3.1c-0.7-0.7-1.7-1.1-2.9-1.1
		c-1.4,0-2.5,0.4-3.4,1.3c-0.8,0.8-1.2,2-1.2,3.5v6.9h-1.8V92.5h1.7V95c0.5-0.8,1.2-1.4,2-1.9c0.9-0.4,1.9-0.7,3-0.7
		C589,92.4,590.3,92.9,591.3,93.9z"/>
	<path class="st1" d="M604.5,104.9c-0.3,0.3-0.7,0.5-1.2,0.7c-0.5,0.2-1,0.2-1.5,0.2c-1.2,0-2.2-0.3-2.8-1c-0.7-0.7-1-1.6-1-2.8V94
		h-2.4v-1.5h2.4v-2.9h1.8v2.9h4V94h-4v7.9c0,0.8,0.2,1.4,0.6,1.8c0.4,0.4,1,0.6,1.7,0.6c0.4,0,0.7-0.1,1.1-0.2
		c0.3-0.1,0.6-0.3,0.9-0.5L604.5,104.9z"/>
</g>
<g class="st7">
	<path class="st1" d="M474.2,469.6v1.6h-12.4v-17.5h12v1.6h-10.1v6.2h9v1.6h-9v6.5H474.2z M469.7,449.2h2.4l-4,3.1h-1.8L469.7,449.2
		z"/>
	<path class="st1" d="M484.7,470.4c-0.3,0.3-0.7,0.5-1.2,0.7c-0.5,0.2-1,0.2-1.5,0.2c-1.2,0-2.2-0.3-2.8-1c-0.7-0.7-1-1.6-1-2.8v-8
		h-2.4V458h2.4v-2.9h1.8v2.9h4v1.5h-4v7.9c0,0.8,0.2,1.4,0.6,1.8c0.4,0.4,1,0.6,1.7,0.6c0.4,0,0.7-0.1,1.1-0.2
		c0.3-0.1,0.6-0.3,0.9-0.5L484.7,470.4z"/>
	<path class="st1" d="M496.5,459.2c0.9,0.9,1.4,2.1,1.4,3.8v8.2h-1.7v-2c-0.4,0.7-1,1.2-1.8,1.6c-0.8,0.4-1.7,0.6-2.8,0.6
		c-1.5,0-2.6-0.3-3.5-1c-0.9-0.7-1.3-1.6-1.3-2.8c0-1.1,0.4-2,1.2-2.7c0.8-0.7,2.1-1,3.9-1h4.2V463c0-1.1-0.3-2-1-2.6
		c-0.6-0.6-1.6-0.9-2.8-0.9c-0.8,0-1.6,0.1-2.4,0.4c-0.8,0.3-1.4,0.7-2,1.1l-0.8-1.3c0.7-0.6,1.5-1,2.4-1.3c0.9-0.3,1.9-0.5,2.9-0.5
		C494.3,457.9,495.6,458.4,496.5,459.2z M494.5,469.2c0.7-0.5,1.2-1.1,1.6-2v-2.1H492c-2.2,0-3.4,0.8-3.4,2.3c0,0.8,0.3,1.4,0.9,1.8
		c0.6,0.4,1.4,0.7,2.4,0.7C492.9,469.9,493.8,469.7,494.5,469.2z"/>
	<path class="st1" d="M512.8,458.8c1,0.6,1.8,1.3,2.3,2.4s0.8,2.2,0.8,3.5c0,1.3-0.3,2.5-0.8,3.5s-1.3,1.8-2.3,2.4
		c-1,0.6-2.1,0.8-3.4,0.8c-1.1,0-2-0.2-2.9-0.7c-0.9-0.4-1.6-1.1-2.1-1.9v7.3h-1.8v-18h1.7v2.6c0.5-0.9,1.2-1.5,2.1-2s1.9-0.7,3-0.7
		C510.7,457.9,511.8,458.2,512.8,458.8z M511.9,469.1c0.8-0.4,1.3-1,1.8-1.8c0.4-0.8,0.6-1.7,0.6-2.7s-0.2-1.9-0.6-2.7
		c-0.4-0.8-1-1.4-1.8-1.8s-1.6-0.7-2.5-0.7c-0.9,0-1.8,0.2-2.5,0.7c-0.7,0.4-1.3,1-1.8,1.8c-0.4,0.8-0.6,1.7-0.6,2.7
		s0.2,1.9,0.6,2.7c0.4,0.8,1,1.4,1.8,1.8c0.7,0.4,1.6,0.6,2.5,0.6C510.3,469.7,511.1,469.5,511.9,469.1z"/>
	<path class="st1" d="M531.1,465.2h-11c0.1,1.4,0.6,2.5,1.6,3.3c1,0.8,2.2,1.3,3.6,1.3c0.8,0,1.6-0.1,2.2-0.4
		c0.7-0.3,1.3-0.7,1.8-1.3l1,1.1c-0.6,0.7-1.3,1.2-2.2,1.6s-1.8,0.5-2.9,0.5c-1.3,0-2.5-0.3-3.6-0.9c-1-0.6-1.9-1.4-2.4-2.4
		c-0.6-1-0.9-2.2-0.9-3.5c0-1.3,0.3-2.4,0.8-3.5c0.6-1,1.3-1.8,2.3-2.4c1-0.6,2.1-0.8,3.3-0.8c1.2,0,2.3,0.3,3.3,0.8
		c1,0.6,1.7,1.4,2.3,2.4c0.5,1,0.8,2.2,0.8,3.5L531.1,465.2z M521.6,460.7c-0.9,0.8-1.3,1.9-1.5,3.2h9.3c-0.1-1.3-0.6-2.4-1.5-3.2
		c-0.9-0.8-1.9-1.2-3.2-1.2C523.5,459.5,522.4,459.9,521.6,460.7z"/>
	<path class="st1" d="M555,466.6h-3.5v4.6h-1.8v-4.6h-9.9v-1.3l9.3-11.6h2l-8.9,11.3h7.6v-4h1.8v4h3.5V466.6z"/>
	<path class="st1" d="M557.2,460.3c-0.3-0.3-0.4-0.6-0.4-1c0-0.4,0.1-0.7,0.4-1c0.3-0.3,0.6-0.4,0.9-0.4c0.4,0,0.7,0.1,0.9,0.4
		s0.4,0.6,0.4,1c0,0.4-0.1,0.7-0.4,1s-0.6,0.4-0.9,0.4C557.8,460.7,557.5,460.5,557.2,460.3z M557.2,470.9c-0.3-0.3-0.4-0.6-0.4-1
		c0-0.4,0.1-0.7,0.4-1c0.3-0.3,0.6-0.4,0.9-0.4c0.4,0,0.7,0.1,0.9,0.4c0.3,0.3,0.4,0.6,0.4,1c0,0.4-0.1,0.7-0.4,1
		c-0.3,0.3-0.6,0.4-0.9,0.4C557.8,471.3,557.5,471.2,557.2,470.9z"/>
</g>
<g class="st7">
	<path class="st1" d="M465.2,486.6h-6.2V485h14.2v1.6h-6.2v15.9h-1.8V486.6z"/>
	<path class="st1" d="M479,489.9c0.8-0.5,1.8-0.7,3.1-0.7v1.7l-0.4,0c-1.4,0-2.5,0.4-3.2,1.3c-0.8,0.9-1.2,2-1.2,3.6v6.7h-1.8v-13.2
		h1.7v2.6C477.6,491,478.2,490.4,479,489.9z"/>
	<path class="st1" d="M493.8,490.5c0.9,0.9,1.4,2.1,1.4,3.8v8.2h-1.7v-2c-0.4,0.7-1,1.2-1.8,1.6c-0.8,0.4-1.7,0.6-2.8,0.6
		c-1.5,0-2.6-0.3-3.5-1s-1.3-1.6-1.3-2.8c0-1.1,0.4-2,1.2-2.7c0.8-0.7,2.1-1,3.9-1h4.2v-0.8c0-1.1-0.3-2-1-2.6s-1.6-0.9-2.8-0.9
		c-0.8,0-1.6,0.1-2.4,0.4c-0.8,0.3-1.4,0.7-2,1.1l-0.8-1.3c0.7-0.6,1.5-1,2.4-1.3c0.9-0.3,1.9-0.5,3-0.5
		C491.6,489.2,492.9,489.7,493.8,490.5z M491.8,500.5c0.7-0.5,1.2-1.1,1.6-2v-2.1h-4.1c-2.2,0-3.4,0.8-3.4,2.3
		c0,0.8,0.3,1.4,0.9,1.8s1.4,0.7,2.5,0.7C490.2,501.2,491.1,501,491.8,500.5z"/>
	<path class="st1" d="M510.8,489.3l-5.8,13.2h-1.8l-5.8-13.2h1.9l4.9,11.2l5-11.2H510.8z"/>
	<path class="st1" d="M521.5,490.5c0.9,0.9,1.4,2.1,1.4,3.8v8.2h-1.7v-2c-0.4,0.7-1,1.2-1.8,1.6c-0.8,0.4-1.7,0.6-2.8,0.6
		c-1.5,0-2.6-0.3-3.5-1s-1.3-1.6-1.3-2.8c0-1.1,0.4-2,1.2-2.7c0.8-0.7,2.1-1,3.9-1h4.2v-0.8c0-1.1-0.3-2-1-2.6s-1.6-0.9-2.8-0.9
		c-0.8,0-1.6,0.1-2.4,0.4c-0.8,0.3-1.4,0.7-2,1.1l-0.8-1.3c0.7-0.6,1.5-1,2.4-1.3c0.9-0.3,1.9-0.5,3-0.5
		C519.2,489.2,520.5,489.7,521.5,490.5z M519.5,500.5c0.7-0.5,1.2-1.1,1.6-2v-2.1h-4.1c-2.2,0-3.4,0.8-3.4,2.3
		c0,0.8,0.3,1.4,0.9,1.8s1.4,0.7,2.5,0.7C517.9,501.2,518.7,501,519.5,500.5z"/>
	<path class="st1" d="M539.5,489.3v13.2h-1.7v-2.4c-0.5,0.8-1.1,1.4-1.9,1.9c-0.8,0.4-1.8,0.7-2.8,0.7c-1.7,0-3.1-0.5-4.1-1.4
		c-1-1-1.5-2.4-1.5-4.2v-7.6h1.8v7.5c0,1.4,0.3,2.4,1,3.2s1.7,1.1,2.9,1.1c1.4,0,2.5-0.4,3.3-1.3s1.2-2,1.2-3.5v-6.9H539.5z"/>
	<path class="st1" d="M552.9,502.5l-4.2-5.5l-4.2,5.5h-2l5.2-6.8l-4.9-6.4h2l3.9,5.2l4-5.2h2l-5,6.4l5.2,6.8H552.9z"/>
	<path class="st1" d="M559,500.3c0.2,0.3,0.4,0.6,0.4,1c0,0.2,0,0.4-0.1,0.7s-0.1,0.5-0.3,0.8l-1,3.5h-1.2l0.9-3.6
		c-0.3-0.1-0.5-0.2-0.7-0.5c-0.2-0.2-0.2-0.5-0.2-0.8c0-0.4,0.1-0.7,0.4-1c0.2-0.3,0.6-0.4,0.9-0.4C558.4,499.9,558.7,500,559,500.3
		z"/>
	<path class="st1" d="M578.2,490.5c0.9,0.9,1.4,2.1,1.4,3.8v8.2h-1.7v-2c-0.4,0.7-1,1.2-1.8,1.6c-0.8,0.4-1.7,0.6-2.8,0.6
		c-1.5,0-2.6-0.3-3.5-1c-0.9-0.7-1.3-1.6-1.3-2.8c0-1.1,0.4-2,1.2-2.7c0.8-0.7,2.1-1,3.9-1h4.2v-0.8c0-1.1-0.3-2-1-2.6
		c-0.6-0.6-1.6-0.9-2.8-0.9c-0.8,0-1.6,0.1-2.4,0.4c-0.8,0.3-1.4,0.7-2,1.1l-0.8-1.3c0.7-0.6,1.5-1,2.4-1.3c0.9-0.3,1.9-0.5,2.9-0.5
		C576,489.2,577.3,489.7,578.2,490.5z M576.2,500.5c0.7-0.5,1.2-1.1,1.6-2v-2.1h-4.1c-2.2,0-3.4,0.8-3.4,2.3c0,0.8,0.3,1.4,0.9,1.8
		c0.6,0.4,1.4,0.7,2.4,0.7C574.7,501.2,575.5,501,576.2,500.5z"/>
	<path class="st1" d="M604.7,490.7c0.9,1,1.4,2.4,1.4,4.2v7.6h-1.8V495c0-1.4-0.3-2.4-1-3.1c-0.7-0.7-1.6-1.1-2.8-1.1
		c-1.4,0-2.4,0.4-3.2,1.3c-0.8,0.8-1.2,2-1.2,3.5v6.9h-1.8V495c0-1.4-0.3-2.4-1-3.1c-0.7-0.7-1.6-1.1-2.8-1.1
		c-1.4,0-2.4,0.4-3.2,1.3c-0.8,0.8-1.2,2-1.2,3.5v6.9h-1.8v-13.2h1.7v2.4c0.5-0.8,1.1-1.4,2-1.8c0.8-0.4,1.8-0.7,2.9-0.7
		c1.1,0,2.1,0.2,2.9,0.7s1.4,1.2,1.8,2.1c0.5-0.9,1.2-1.5,2.1-2c0.9-0.5,1.9-0.7,3.1-0.7C602.5,489.2,603.8,489.7,604.7,490.7z"/>
	<path class="st1" d="M622.5,496.5h-11c0.1,1.4,0.6,2.5,1.6,3.3c1,0.8,2.2,1.3,3.6,1.3c0.8,0,1.6-0.1,2.2-0.4
		c0.7-0.3,1.3-0.7,1.8-1.3l1,1.1c-0.6,0.7-1.3,1.2-2.2,1.6s-1.8,0.5-2.9,0.5c-1.3,0-2.5-0.3-3.6-0.9c-1-0.6-1.9-1.4-2.4-2.4
		c-0.6-1-0.9-2.2-0.9-3.5c0-1.3,0.3-2.4,0.8-3.5c0.6-1,1.3-1.8,2.3-2.4c1-0.6,2.1-0.8,3.3-0.8c1.2,0,2.3,0.3,3.3,0.8
		c1,0.6,1.7,1.4,2.3,2.4c0.5,1,0.8,2.2,0.8,3.5L622.5,496.5z M612.9,492c-0.9,0.8-1.3,1.9-1.5,3.2h9.3c-0.1-1.3-0.6-2.4-1.5-3.2
		c-0.9-0.8-1.9-1.2-3.2-1.2C614.8,490.8,613.8,491.2,612.9,492z M617.9,484.2h2.4l-4,3.1h-1.8L617.9,484.2z"/>
	<path class="st1" d="M636.7,490.7c1,1,1.5,2.4,1.5,4.2v7.6h-1.8V495c0-1.4-0.3-2.4-1-3.1c-0.7-0.7-1.7-1.1-2.9-1.1
		c-1.4,0-2.5,0.4-3.4,1.3c-0.8,0.8-1.2,2-1.2,3.5v6.9h-1.8v-13.2h1.7v2.4c0.5-0.8,1.2-1.4,2-1.9c0.9-0.4,1.9-0.7,3-0.7
		C634.5,489.2,635.8,489.7,636.7,490.7z"/>
	<path class="st1" d="M651.6,490.5c0.9,0.9,1.4,2.1,1.4,3.8v8.2h-1.7v-2c-0.4,0.7-1,1.2-1.8,1.6c-0.8,0.4-1.7,0.6-2.8,0.6
		c-1.5,0-2.6-0.3-3.5-1s-1.3-1.6-1.3-2.8c0-1.1,0.4-2,1.2-2.7c0.8-0.7,2.1-1,3.9-1h4.2v-0.8c0-1.1-0.3-2-1-2.6s-1.6-0.9-2.8-0.9
		c-0.8,0-1.6,0.1-2.4,0.4c-0.8,0.3-1.4,0.7-2,1.1l-0.8-1.3c0.7-0.6,1.5-1,2.4-1.3c0.9-0.3,1.9-0.5,3-0.5
		C649.3,489.2,650.7,489.7,651.6,490.5z M649.6,500.5c0.7-0.5,1.2-1.1,1.6-2v-2.1h-4.1c-2.2,0-3.4,0.8-3.4,2.3
		c0,0.8,0.3,1.4,0.9,1.8s1.4,0.7,2.5,0.7C648,501.2,648.9,501,649.6,500.5z"/>
	<path class="st1" d="M670,489.3v11.6c0,2.2-0.5,3.9-1.6,5c-1.1,1.1-2.7,1.6-4.9,1.6c-1.2,0-2.4-0.2-3.5-0.5s-2-0.9-2.7-1.5l0.9-1.4
		c0.6,0.6,1.4,1,2.3,1.3s1.9,0.5,2.9,0.5c1.7,0,2.9-0.4,3.7-1.2c0.8-0.8,1.2-2,1.2-3.6v-1.7c-0.5,0.8-1.3,1.5-2.2,1.9
		c-0.9,0.4-1.9,0.7-3,0.7c-1.2,0-2.4-0.3-3.4-0.8c-1-0.5-1.8-1.3-2.4-2.3c-0.6-1-0.9-2.1-0.9-3.3c0-1.2,0.3-2.3,0.9-3.3
		c0.6-1,1.4-1.7,2.4-2.2c1-0.5,2.1-0.8,3.4-0.8c1.1,0,2.1,0.2,3,0.7c0.9,0.5,1.6,1.1,2.2,2v-2.5H670z M665.9,499.8
		c0.8-0.4,1.4-1,1.8-1.7c0.4-0.7,0.6-1.6,0.6-2.5c0-0.9-0.2-1.8-0.6-2.5c-0.4-0.7-1-1.3-1.8-1.7c-0.8-0.4-1.6-0.6-2.6-0.6
		c-1,0-1.8,0.2-2.6,0.6c-0.8,0.4-1.3,1-1.8,1.7c-0.4,0.7-0.6,1.6-0.6,2.5c0,0.9,0.2,1.8,0.6,2.5c0.4,0.7,1,1.3,1.8,1.7
		s1.6,0.6,2.6,0.6S665.1,500.2,665.9,499.8z"/>
	<path class="st1" d="M686.4,496.5h-11c0.1,1.4,0.6,2.5,1.6,3.3c0.9,0.8,2.1,1.3,3.6,1.3c0.8,0,1.6-0.1,2.2-0.4
		c0.7-0.3,1.3-0.7,1.8-1.3l1,1.1c-0.6,0.7-1.3,1.2-2.2,1.6s-1.8,0.5-2.9,0.5c-1.3,0-2.5-0.3-3.6-0.9s-1.9-1.4-2.4-2.4
		s-0.9-2.2-0.9-3.5c0-1.3,0.3-2.4,0.8-3.5c0.6-1,1.3-1.8,2.3-2.4c1-0.6,2.1-0.8,3.3-0.8s2.3,0.3,3.3,0.8c1,0.6,1.7,1.4,2.3,2.4
		c0.5,1,0.8,2.2,0.8,3.5L686.4,496.5z M676.9,492c-0.9,0.8-1.3,1.9-1.5,3.2h9.3c-0.1-1.3-0.6-2.4-1.5-3.2c-0.9-0.8-1.9-1.2-3.2-1.2
		C678.8,490.8,677.7,491.2,676.9,492z"/>
	<path class="st1" d="M710.4,490.7c0.9,1,1.4,2.4,1.4,4.2v7.6H710V495c0-1.4-0.3-2.4-1-3.1c-0.7-0.7-1.6-1.1-2.8-1.1
		c-1.4,0-2.4,0.4-3.2,1.3c-0.8,0.8-1.2,2-1.2,3.5v6.9h-1.8V495c0-1.4-0.3-2.4-1-3.1c-0.7-0.7-1.6-1.1-2.8-1.1
		c-1.4,0-2.4,0.4-3.2,1.3c-0.8,0.8-1.2,2-1.2,3.5v6.9h-1.8v-13.2h1.7v2.4c0.5-0.8,1.1-1.4,2-1.8c0.8-0.4,1.8-0.7,2.9-0.7
		c1.1,0,2.1,0.2,2.9,0.7s1.4,1.2,1.8,2.1c0.5-0.9,1.2-1.5,2.1-2c0.9-0.5,1.9-0.7,3.1-0.7C708.1,489.2,709.4,489.7,710.4,490.7z"/>
	<path class="st1" d="M728.1,496.5h-11c0.1,1.4,0.6,2.5,1.6,3.3c1,0.8,2.2,1.3,3.6,1.3c0.8,0,1.6-0.1,2.2-0.4
		c0.7-0.3,1.3-0.7,1.8-1.3l1,1.1c-0.6,0.7-1.3,1.2-2.2,1.6s-1.8,0.5-2.9,0.5c-1.3,0-2.5-0.3-3.6-0.9c-1-0.6-1.9-1.4-2.4-2.4
		c-0.6-1-0.9-2.2-0.9-3.5c0-1.3,0.3-2.4,0.8-3.5c0.6-1,1.3-1.8,2.3-2.4c1-0.6,2.1-0.8,3.3-0.8c1.2,0,2.3,0.3,3.3,0.8
		c1,0.6,1.7,1.4,2.3,2.4c0.5,1,0.8,2.2,0.8,3.5L728.1,496.5z M718.6,492c-0.9,0.8-1.3,1.9-1.5,3.2h9.3c-0.1-1.3-0.6-2.4-1.5-3.2
		c-0.9-0.8-1.9-1.2-3.2-1.2C720.5,490.8,719.4,491.2,718.6,492z"/>
	<path class="st1" d="M742.4,490.7c1,1,1.5,2.4,1.5,4.2v7.6h-1.8V495c0-1.4-0.3-2.4-1-3.1c-0.7-0.7-1.7-1.1-2.9-1.1
		c-1.4,0-2.5,0.4-3.4,1.3c-0.8,0.8-1.2,2-1.2,3.5v6.9h-1.8v-13.2h1.7v2.4c0.5-0.8,1.2-1.4,2-1.9c0.9-0.4,1.9-0.7,3-0.7
		C740.1,489.2,741.4,489.7,742.4,490.7z"/>
	<path class="st1" d="M755.6,501.7c-0.3,0.3-0.7,0.5-1.2,0.7c-0.5,0.2-1,0.2-1.5,0.2c-1.2,0-2.2-0.3-2.8-1c-0.7-0.7-1-1.6-1-2.8v-8
		h-2.4v-1.5h2.4v-2.9h1.8v2.9h4v1.5h-4v7.9c0,0.8,0.2,1.4,0.6,1.8c0.4,0.4,1,0.6,1.7,0.6c0.4,0,0.7-0.1,1.1-0.2
		c0.3-0.1,0.6-0.3,0.9-0.5L755.6,501.7z"/>
	<path class="st1" d="M760.1,500.2c0.3,0.3,0.4,0.6,0.4,1c0,0.2,0,0.4-0.1,0.7c-0.1,0.2-0.2,0.5-0.3,0.8l-1.1,3.6h-1.2l0.9-3.8
		c-0.3-0.1-0.5-0.2-0.7-0.5c-0.2-0.2-0.3-0.5-0.3-0.8c0-0.4,0.1-0.7,0.4-1s0.6-0.4,1-0.4C759.5,499.8,759.9,499.9,760.1,500.2z"/>
</g>
<g class="st7">
	<path class="st1" d="M473.5,515.1v18.5h-1.7v-2.6c-0.5,0.9-1.2,1.6-2.1,2c-0.9,0.5-1.9,0.7-3,0.7c-1.2,0-2.4-0.3-3.4-0.8
		s-1.8-1.4-2.3-2.4s-0.8-2.2-0.8-3.5s0.3-2.5,0.8-3.5s1.3-1.8,2.3-2.4s2.1-0.8,3.4-0.8c1.1,0,2,0.2,2.9,0.7c0.9,0.4,1.6,1.1,2.1,1.9
		v-7.9H473.5z M469.3,531.6c0.7-0.4,1.3-1,1.8-1.8c0.4-0.8,0.6-1.7,0.6-2.7s-0.2-1.9-0.6-2.7c-0.4-0.8-1-1.4-1.8-1.8
		c-0.7-0.4-1.6-0.6-2.5-0.6c-0.9,0-1.8,0.2-2.5,0.6c-0.7,0.4-1.3,1-1.8,1.8c-0.4,0.8-0.6,1.7-0.6,2.7s0.2,1.9,0.6,2.7
		c0.4,0.8,1,1.4,1.8,1.8c0.7,0.4,1.6,0.6,2.5,0.6C467.7,532.2,468.6,532,469.3,531.6z"/>
	<path class="st1" d="M489.9,527.7h-11c0.1,1.4,0.6,2.5,1.6,3.3c1,0.8,2.2,1.3,3.6,1.3c0.8,0,1.6-0.1,2.2-0.4
		c0.7-0.3,1.3-0.7,1.8-1.3l1,1.1c-0.6,0.7-1.3,1.2-2.2,1.6s-1.8,0.5-2.9,0.5c-1.3,0-2.5-0.3-3.6-0.9s-1.9-1.4-2.4-2.4
		s-0.9-2.2-0.9-3.5c0-1.3,0.3-2.4,0.8-3.5c0.6-1,1.3-1.8,2.3-2.4c1-0.6,2.1-0.8,3.3-0.8c1.2,0,2.3,0.3,3.3,0.8
		c1,0.6,1.7,1.4,2.3,2.4c0.6,1,0.8,2.2,0.8,3.5L489.9,527.7z M480.3,523.2c-0.9,0.8-1.3,1.9-1.5,3.2h9.3c-0.1-1.3-0.6-2.4-1.5-3.2
		c-0.9-0.8-1.9-1.2-3.2-1.2C482.2,522,481.2,522.4,480.3,523.2z M485.3,515.4h2.4l-4,3.1h-1.8L485.3,515.4z"/>
	<path class="st1" d="M495.5,533c-1-0.6-1.8-1.4-2.4-2.4c-0.6-1-0.9-2.2-0.9-3.5c0-1.3,0.3-2.4,0.9-3.5c0.6-1,1.4-1.8,2.4-2.4
		c1-0.6,2.2-0.8,3.5-0.8c1.1,0,2.1,0.2,3,0.7c0.9,0.4,1.6,1.1,2.1,1.9l-1.3,0.9c-0.4-0.7-1-1.1-1.6-1.5c-0.7-0.3-1.4-0.5-2.2-0.5
		c-0.9,0-1.8,0.2-2.6,0.6s-1.3,1-1.8,1.8c-0.4,0.8-0.6,1.7-0.6,2.7c0,1,0.2,1.9,0.6,2.7c0.4,0.8,1,1.4,1.8,1.8
		c0.8,0.4,1.6,0.6,2.6,0.6c0.8,0,1.5-0.2,2.2-0.5c0.7-0.3,1.2-0.8,1.6-1.5l1.3,0.9c-0.5,0.8-1.2,1.5-2.1,1.9s-1.9,0.7-3,0.7
		C497.7,533.8,496.5,533.5,495.5,533z"/>
	<path class="st1" d="M509.3,533c-1-0.6-1.8-1.4-2.4-2.4c-0.6-1-0.9-2.2-0.9-3.5c0-1.3,0.3-2.4,0.9-3.5c0.6-1,1.4-1.8,2.4-2.4
		c1-0.6,2.2-0.8,3.4-0.8c1.3,0,2.4,0.3,3.4,0.8c1,0.6,1.8,1.4,2.4,2.4c0.6,1,0.9,2.2,0.9,3.5c0,1.3-0.3,2.4-0.9,3.5
		c-0.6,1-1.4,1.8-2.4,2.4c-1,0.6-2.2,0.9-3.4,0.9C511.5,533.8,510.3,533.5,509.3,533z M515.2,531.6c0.7-0.4,1.3-1,1.7-1.8
		c0.4-0.8,0.6-1.7,0.6-2.7s-0.2-1.9-0.6-2.7c-0.4-0.8-1-1.4-1.7-1.8s-1.6-0.6-2.5-0.6c-0.9,0-1.8,0.2-2.5,0.6
		c-0.7,0.4-1.3,1-1.8,1.8c-0.4,0.8-0.6,1.7-0.6,2.7s0.2,1.9,0.6,2.7c0.4,0.8,1,1.4,1.8,1.8c0.7,0.4,1.6,0.6,2.5,0.6
		C513.7,532.2,514.5,532,515.2,531.6z"/>
	<path class="st1" d="M526.6,521.1c0.8-0.5,1.8-0.7,3.1-0.7v1.7l-0.4,0c-1.4,0-2.5,0.4-3.2,1.3c-0.8,0.9-1.2,2-1.2,3.6v6.7H523
		v-13.2h1.7v2.6C525.1,522.2,525.8,521.6,526.6,521.1z"/>
	<path class="st1" d="M541.4,521.7c0.9,0.9,1.4,2.1,1.4,3.8v8.2h-1.7v-2c-0.4,0.7-1,1.2-1.8,1.6c-0.8,0.4-1.7,0.6-2.8,0.6
		c-1.5,0-2.6-0.3-3.5-1c-0.9-0.7-1.3-1.6-1.3-2.8c0-1.1,0.4-2,1.2-2.7c0.8-0.7,2.1-1,3.9-1h4.2v-0.8c0-1.1-0.3-2-1-2.6
		c-0.6-0.6-1.6-0.9-2.8-0.9c-0.8,0-1.6,0.1-2.4,0.4c-0.8,0.3-1.4,0.7-2,1.1l-0.8-1.3c0.7-0.6,1.5-1,2.4-1.3c0.9-0.3,1.9-0.5,2.9-0.5
		C539.1,520.4,540.5,520.9,541.4,521.7z M539.4,531.7c0.7-0.5,1.2-1.1,1.6-2v-2.1h-4.1c-2.2,0-3.4,0.8-3.4,2.3
		c0,0.8,0.3,1.4,0.9,1.8c0.6,0.4,1.4,0.7,2.4,0.7C537.8,532.4,538.7,532.2,539.4,531.7z"/>
	<path class="st1" d="M554.5,532.9c-0.3,0.3-0.7,0.5-1.2,0.7c-0.5,0.2-1,0.2-1.5,0.2c-1.2,0-2.2-0.3-2.9-1c-0.7-0.7-1-1.6-1-2.8v-8
		h-2.4v-1.5h2.4v-2.9h1.8v2.9h4v1.5h-4v7.9c0,0.8,0.2,1.4,0.6,1.8c0.4,0.4,1,0.6,1.7,0.6c0.4,0,0.7-0.1,1.1-0.2
		c0.3-0.1,0.6-0.3,0.9-0.5L554.5,532.9z"/>
	<path class="st1" d="M557.7,517.3c-0.2-0.2-0.4-0.5-0.4-0.9c0-0.3,0.1-0.6,0.4-0.9s0.6-0.4,0.9-0.4s0.7,0.1,0.9,0.4
		c0.2,0.2,0.4,0.5,0.4,0.9c0,0.4-0.1,0.7-0.4,0.9s-0.6,0.4-0.9,0.4S558,517.5,557.7,517.3z M557.7,520.5h1.8v13.2h-1.8V520.5z"/>
	<path class="st1" d="M566.4,533c-1-0.6-1.8-1.4-2.4-2.4c-0.6-1-0.9-2.2-0.9-3.5c0-1.3,0.3-2.4,0.9-3.5c0.6-1,1.4-1.8,2.4-2.4
		c1-0.6,2.2-0.8,3.4-0.8c1.3,0,2.4,0.3,3.4,0.8c1,0.6,1.8,1.4,2.4,2.4c0.6,1,0.9,2.2,0.9,3.5c0,1.3-0.3,2.4-0.9,3.5
		c-0.6,1-1.4,1.8-2.4,2.4c-1,0.6-2.2,0.9-3.4,0.9C568.6,533.8,567.4,533.5,566.4,533z M572.3,531.6c0.7-0.4,1.3-1,1.7-1.8
		c0.4-0.8,0.6-1.7,0.6-2.7s-0.2-1.9-0.6-2.7c-0.4-0.8-1-1.4-1.7-1.8s-1.6-0.6-2.5-0.6c-0.9,0-1.8,0.2-2.5,0.6
		c-0.7,0.4-1.3,1-1.8,1.8c-0.4,0.8-0.6,1.7-0.6,2.7s0.2,1.9,0.6,2.7c0.4,0.8,1,1.4,1.8,1.8c0.7,0.4,1.6,0.6,2.5,0.6
		C570.8,532.2,571.6,532,572.3,531.6z"/>
	<path class="st1" d="M590.8,521.9c1,1,1.5,2.4,1.5,4.2v7.6h-1.8v-7.5c0-1.4-0.3-2.4-1-3.1c-0.7-0.7-1.7-1.1-2.9-1.1
		c-1.4,0-2.5,0.4-3.4,1.3c-0.8,0.8-1.2,2-1.2,3.5v6.9h-1.8v-13.2h1.7v2.4c0.5-0.8,1.2-1.4,2-1.9c0.9-0.4,1.9-0.7,3-0.7
		C588.5,520.4,589.8,520.9,590.8,521.9z"/>
</g>
<g class="st7">
	<path class="st1" d="M30.9,72.8v1.6H18.5V56.9h12v1.6H20.4v6.2h9v1.6h-9v6.5H30.9z M26.3,52.3h2.4l-4,3.1h-1.8L26.3,52.3z"/>
	<path class="st1" d="M41.4,73.6c-0.3,0.3-0.7,0.5-1.2,0.7c-0.5,0.2-1,0.2-1.5,0.2c-1.2,0-2.2-0.3-2.9-1c-0.7-0.7-1-1.6-1-2.8v-8
		h-2.4v-1.5h2.4v-2.9h1.8v2.9h4v1.5h-4v7.9c0,0.8,0.2,1.4,0.6,1.8c0.4,0.4,1,0.6,1.7,0.6c0.4,0,0.7-0.1,1.1-0.2
		c0.3-0.1,0.6-0.3,0.9-0.5L41.4,73.6z"/>
	<path class="st1" d="M53.2,62.4c0.9,0.9,1.4,2.1,1.4,3.8v8.2h-1.7v-2c-0.4,0.7-1,1.2-1.8,1.6c-0.8,0.4-1.7,0.6-2.8,0.6
		c-1.5,0-2.6-0.3-3.5-1s-1.3-1.6-1.3-2.8c0-1.1,0.4-2,1.2-2.7c0.8-0.7,2.1-1,3.9-1h4.2v-0.8c0-1.1-0.3-2-1-2.6s-1.6-0.9-2.8-0.9
		c-0.8,0-1.6,0.1-2.4,0.4c-0.8,0.3-1.4,0.7-2,1.1l-0.8-1.3c0.7-0.6,1.5-1,2.4-1.3c0.9-0.3,1.9-0.5,3-0.5
		C51,61.1,52.3,61.5,53.2,62.4z M51.2,72.4c0.7-0.5,1.2-1.1,1.6-2v-2.1h-4.1c-2.2,0-3.4,0.8-3.4,2.3c0,0.8,0.3,1.4,0.9,1.8
		c0.6,0.4,1.4,0.7,2.5,0.7C49.6,73.1,50.5,72.8,51.2,72.4z"/>
	<path class="st1" d="M69.5,61.9c1,0.6,1.8,1.3,2.4,2.4c0.6,1,0.8,2.2,0.8,3.5c0,1.3-0.3,2.5-0.8,3.5c-0.6,1-1.3,1.8-2.3,2.4
		c-1,0.6-2.1,0.8-3.4,0.8c-1.1,0-2-0.2-2.9-0.7s-1.6-1.1-2.1-1.9v7.3h-1.8v-18h1.7v2.6c0.5-0.9,1.2-1.5,2.1-2s1.9-0.7,3-0.7
		C67.4,61.1,68.5,61.4,69.5,61.9z M68.5,72.3c0.8-0.4,1.3-1,1.8-1.8c0.4-0.8,0.6-1.7,0.6-2.7s-0.2-1.9-0.6-2.7
		c-0.4-0.8-1-1.4-1.8-1.8S67,62.7,66,62.7c-0.9,0-1.8,0.2-2.5,0.7s-1.3,1-1.8,1.8c-0.4,0.8-0.6,1.7-0.6,2.7s0.2,1.9,0.6,2.7
		c0.4,0.8,1,1.4,1.8,1.8c0.7,0.4,1.6,0.6,2.5,0.6C67,72.9,67.8,72.7,68.5,72.3z"/>
	<path class="st1" d="M87.8,68.3h-11c0.1,1.4,0.6,2.5,1.6,3.3c1,0.8,2.1,1.3,3.6,1.3c0.8,0,1.6-0.1,2.2-0.4c0.7-0.3,1.3-0.7,1.8-1.3
		l1,1.1c-0.6,0.7-1.3,1.2-2.2,1.6s-1.8,0.5-2.9,0.5c-1.3,0-2.5-0.3-3.6-0.9s-1.9-1.4-2.4-2.4S75,69.1,75,67.8c0-1.3,0.3-2.4,0.8-3.5
		c0.6-1,1.3-1.8,2.3-2.4c1-0.6,2.1-0.8,3.3-0.8c1.2,0,2.3,0.3,3.3,0.8c1,0.6,1.7,1.4,2.3,2.4c0.5,1,0.8,2.2,0.8,3.5L87.8,68.3z
		 M78.3,63.8c-0.9,0.8-1.3,1.9-1.5,3.2h9.3c-0.1-1.3-0.6-2.4-1.5-3.2c-0.9-0.8-1.9-1.2-3.2-1.2C80.2,62.6,79.1,63,78.3,63.8z"/>
	<path class="st1" d="M101.7,56.9v17.5h-1.8V58.5h-4.1v-1.6H101.7z"/>
	<path class="st1" d="M106.3,63.4c-0.3-0.3-0.4-0.6-0.4-1c0-0.4,0.1-0.7,0.4-1s0.6-0.4,0.9-0.4s0.7,0.1,1,0.4c0.3,0.3,0.4,0.6,0.4,1
		c0,0.4-0.1,0.7-0.4,1c-0.3,0.3-0.6,0.4-1,0.4S106.5,63.7,106.3,63.4z M106.3,74.1c-0.3-0.3-0.4-0.6-0.4-1c0-0.4,0.1-0.7,0.4-1
		c0.3-0.3,0.6-0.4,0.9-0.4s0.7,0.1,1,0.4c0.3,0.3,0.4,0.6,0.4,1c0,0.4-0.1,0.7-0.4,1c-0.3,0.3-0.6,0.4-1,0.4S106.5,74.3,106.3,74.1z
		"/>
</g>
<g class="st7">
	<path class="st1" d="M18.4,88.8h6.8c1.8,0,3.3,0.4,4.7,1.1c1.4,0.7,2.4,1.7,3.2,3c0.8,1.3,1.1,2.7,1.1,4.4c0,1.6-0.4,3.1-1.1,4.4
		c-0.8,1.3-1.8,2.3-3.2,3c-1.4,0.7-2.9,1.1-4.7,1.1h-6.8V88.8z M25.2,104c1.5,0,2.8-0.3,3.9-0.9s2-1.4,2.6-2.4
		c0.6-1,0.9-2.2,0.9-3.6c0-1.3-0.3-2.5-0.9-3.6c-0.6-1-1.5-1.8-2.6-2.4s-2.4-0.9-3.9-0.9h-5V104H25.2z"/>
	<path class="st1" d="M48.9,99.8H38.3c0.1,1.3,0.6,2.4,1.5,3.2c0.9,0.8,2.1,1.2,3.5,1.2c0.8,0,1.5-0.1,2.2-0.4
		c0.7-0.3,1.2-0.7,1.7-1.2l1,1.1c-0.6,0.7-1.3,1.2-2.1,1.5c-0.8,0.4-1.8,0.5-2.8,0.5c-1.3,0-2.4-0.3-3.4-0.8c-1-0.6-1.8-1.3-2.3-2.3
		c-0.6-1-0.8-2.1-0.8-3.3c0-1.2,0.3-2.3,0.8-3.3c0.5-1,1.3-1.7,2.2-2.3c0.9-0.5,2-0.8,3.2-0.8s2.2,0.3,3.1,0.8
		c0.9,0.5,1.7,1.3,2.2,2.3c0.5,1,0.8,2.1,0.8,3.3L48.9,99.8z M39.7,95.5c-0.8,0.8-1.3,1.8-1.4,3h9c-0.1-1.2-0.6-2.3-1.4-3
		c-0.8-0.8-1.9-1.2-3.1-1.2C41.6,94.3,40.5,94.7,39.7,95.5z M44.5,88h2.3l-3.9,3h-1.7L44.5,88z"/>
	<path class="st1" d="M54.9,89.7c-0.4,0.4-0.6,1-0.6,1.8v1.5h3.9v1.4h-3.8v11.2h-1.7V94.4h-2.3v-1.4h2.3v-1.6c0-1.2,0.3-2.1,1-2.7
		c0.7-0.7,1.6-1,2.8-1c0.5,0,0.9,0.1,1.4,0.2c0.4,0.1,0.8,0.3,1.1,0.6l-0.6,1.3c-0.5-0.4-1.1-0.6-1.9-0.6
		C55.8,89.1,55.3,89.3,54.9,89.7z M62.4,89.8c-0.2-0.2-0.4-0.5-0.4-0.9c0-0.3,0.1-0.6,0.4-0.8c0.2-0.2,0.5-0.4,0.9-0.4
		s0.6,0.1,0.9,0.3c0.2,0.2,0.4,0.5,0.4,0.8c0,0.4-0.1,0.6-0.4,0.9c-0.2,0.2-0.5,0.4-0.9,0.4S62.6,90,62.4,89.8z M62.4,92.9h1.7v12.6
		h-1.7V92.9z"/>
	<path class="st1" d="M79.1,94.2c0.9,0.9,1.4,2.3,1.4,4v7.3h-1.7v-7.2c0-1.3-0.3-2.3-1-3c-0.7-0.7-1.6-1-2.8-1
		c-1.4,0-2.4,0.4-3.2,1.2s-1.2,1.9-1.2,3.3v6.6h-1.7V92.9h1.6v2.3c0.5-0.8,1.1-1.4,1.9-1.8c0.8-0.4,1.8-0.6,2.9-0.6
		C76.9,92.8,78.2,93.3,79.1,94.2z"/>
	<path class="st1" d="M85.1,89.8c-0.2-0.2-0.4-0.5-0.4-0.9c0-0.3,0.1-0.6,0.4-0.8c0.2-0.2,0.5-0.4,0.9-0.4c0.4,0,0.6,0.1,0.9,0.3
		c0.2,0.2,0.4,0.5,0.4,0.8c0,0.4-0.1,0.6-0.4,0.9c-0.2,0.2-0.5,0.4-0.9,0.4C85.6,90.2,85.3,90,85.1,89.8z M85.1,92.9h1.7v12.6h-1.7
		V92.9z"/>
	<path class="st1" d="M95,93.5c0.8-0.4,1.8-0.6,2.9-0.6v1.7l-0.4,0c-1.3,0-2.4,0.4-3.1,1.2c-0.8,0.8-1.1,2-1.1,3.4v6.4h-1.7V92.9
		h1.6v2.5C93.6,94.6,94.2,93.9,95,93.5z"/>
	<path class="st1" d="M107.5,87.7h1.7v17.8h-1.7V87.7z"/>
	<path class="st1" d="M124.9,99.8h-10.6c0.1,1.3,0.6,2.4,1.5,3.2c0.9,0.8,2.1,1.2,3.5,1.2c0.8,0,1.5-0.1,2.2-0.4
		c0.7-0.3,1.2-0.7,1.7-1.2l1,1.1c-0.6,0.7-1.3,1.2-2.1,1.5c-0.8,0.4-1.8,0.5-2.8,0.5c-1.3,0-2.4-0.3-3.4-0.8c-1-0.6-1.8-1.3-2.3-2.3
		c-0.6-1-0.8-2.1-0.8-3.3c0-1.2,0.3-2.3,0.8-3.3c0.5-1,1.3-1.7,2.2-2.3c0.9-0.5,2-0.8,3.2-0.8s2.2,0.3,3.1,0.8
		c0.9,0.5,1.7,1.3,2.2,2.3c0.5,1,0.8,2.1,0.8,3.3L124.9,99.8z M115.8,95.5c-0.8,0.8-1.3,1.8-1.4,3h9c-0.1-1.2-0.6-2.3-1.4-3
		c-0.8-0.8-1.9-1.2-3.1-1.2C117.6,94.3,116.6,94.7,115.8,95.5z"/>
	<path class="st1" d="M128.9,105.2c-0.9-0.3-1.7-0.7-2.2-1.1l0.8-1.3c0.5,0.4,1.2,0.8,2,1c0.8,0.3,1.6,0.4,2.5,0.4
		c1.2,0,2-0.2,2.6-0.5c0.6-0.4,0.8-0.9,0.8-1.5c0-0.5-0.2-0.8-0.5-1.1c-0.3-0.3-0.7-0.5-1.2-0.6c-0.5-0.1-1.1-0.3-1.8-0.4
		c-1-0.2-1.8-0.4-2.5-0.6c-0.6-0.2-1.2-0.5-1.6-1c-0.4-0.5-0.7-1.1-0.7-2c0-1.1,0.4-1.9,1.3-2.6s2.1-1,3.7-1c0.8,0,1.6,0.1,2.4,0.3
		c0.8,0.2,1.5,0.5,2,0.9l-0.7,1.4c-1-0.7-2.3-1.1-3.7-1.1c-1.1,0-1.9,0.2-2.5,0.6c-0.6,0.4-0.8,0.9-0.8,1.5c0,0.5,0.2,0.9,0.5,1.2
		s0.7,0.5,1.2,0.6c0.5,0.1,1.1,0.3,1.9,0.4c1,0.2,1.8,0.4,2.4,0.6c0.6,0.2,1.1,0.5,1.6,1c0.4,0.5,0.6,1.1,0.6,1.9
		c0,1.1-0.5,2-1.4,2.6c-0.9,0.6-2.2,1-3.8,1C130.8,105.7,129.8,105.5,128.9,105.2z"/>
	<path class="st1" d="M148.3,104.8c-1-0.6-1.7-1.3-2.3-2.3c-0.6-1-0.8-2.1-0.8-3.3c0-1.2,0.3-2.3,0.8-3.3c0.6-1,1.3-1.7,2.3-2.3
		c1-0.5,2.1-0.8,3.3-0.8c1.2,0,2.3,0.3,3.3,0.8c1,0.5,1.7,1.3,2.3,2.3c0.6,1,0.8,2.1,0.8,3.3c0,1.2-0.3,2.3-0.8,3.3
		c-0.6,1-1.3,1.7-2.3,2.3c-1,0.6-2.1,0.8-3.3,0.8C150.4,105.7,149.3,105.4,148.3,104.8z M154,103.5c0.7-0.4,1.3-1,1.7-1.7
		c0.4-0.8,0.6-1.6,0.6-2.6c0-1-0.2-1.8-0.6-2.6c-0.4-0.8-1-1.3-1.7-1.7c-0.7-0.4-1.5-0.6-2.4-0.6c-0.9,0-1.7,0.2-2.4,0.6
		s-1.3,1-1.7,1.7c-0.4,0.8-0.6,1.6-0.6,2.6c0,1,0.2,1.8,0.6,2.6c0.4,0.8,1,1.3,1.7,1.7s1.5,0.6,2.4,0.6
		C152.5,104.2,153.3,104,154,103.5z"/>
	<path class="st1" d="M171.2,93.6c1,0.5,1.7,1.3,2.3,2.3c0.5,1,0.8,2.1,0.8,3.3c0,1.2-0.3,2.4-0.8,3.3c-0.5,1-1.3,1.7-2.3,2.3
		s-2,0.8-3.2,0.8c-1.1,0-2-0.2-2.8-0.7c-0.8-0.4-1.5-1.1-2-1.9v2.5h-1.6V87.7h1.7v7.6c0.5-0.8,1.2-1.4,2-1.9
		c0.8-0.4,1.7-0.6,2.8-0.6C169.2,92.8,170.3,93.1,171.2,93.6z M170.3,103.5c0.7-0.4,1.3-1,1.7-1.7c0.4-0.8,0.6-1.6,0.6-2.6
		c0-1-0.2-1.8-0.6-2.6c-0.4-0.8-1-1.3-1.7-1.7c-0.7-0.4-1.5-0.6-2.4-0.6c-0.9,0-1.7,0.2-2.4,0.6c-0.7,0.4-1.3,1-1.7,1.7
		s-0.6,1.6-0.6,2.6c0,1,0.2,1.8,0.6,2.6s1,1.3,1.7,1.7c0.7,0.4,1.5,0.6,2.4,0.6C168.8,104.2,169.6,104,170.3,103.5z"/>
	<path class="st1" d="M174.4,110.1c-0.5-0.1-0.9-0.3-1.2-0.6l0.6-1.3c0.5,0.4,1.2,0.6,2,0.6c0.7,0,1.2-0.2,1.5-0.6
		c0.4-0.4,0.5-1,0.5-1.8V92.9h1.7v13.6c0,1.2-0.3,2.1-1,2.8c-0.6,0.7-1.6,1-2.7,1C175.4,110.3,174.9,110.3,174.4,110.1z M177.9,89.8
		c-0.2-0.2-0.4-0.5-0.4-0.9c0-0.3,0.1-0.6,0.4-0.8c0.2-0.2,0.5-0.4,0.9-0.4s0.6,0.1,0.9,0.3c0.2,0.2,0.4,0.5,0.4,0.8
		c0,0.4-0.1,0.6-0.4,0.9c-0.2,0.2-0.5,0.4-0.9,0.4S178.1,90,177.9,89.8z"/>
	<path class="st1" d="M195.4,99.8h-10.6c0.1,1.3,0.6,2.4,1.5,3.2c0.9,0.8,2.1,1.2,3.5,1.2c0.8,0,1.5-0.1,2.2-0.4
		c0.7-0.3,1.2-0.7,1.7-1.2l1,1.1c-0.6,0.7-1.3,1.2-2.1,1.5c-0.8,0.4-1.8,0.5-2.8,0.5c-1.3,0-2.4-0.3-3.4-0.8c-1-0.6-1.8-1.3-2.3-2.3
		c-0.6-1-0.8-2.1-0.8-3.3c0-1.2,0.3-2.3,0.8-3.3c0.5-1,1.3-1.7,2.2-2.3c0.9-0.5,2-0.8,3.2-0.8s2.2,0.3,3.1,0.8
		c0.9,0.5,1.7,1.3,2.2,2.3c0.5,1,0.8,2.1,0.8,3.3L195.4,99.8z M186.2,95.5c-0.8,0.8-1.3,1.8-1.4,3h9c-0.1-1.2-0.6-2.3-1.4-3
		c-0.8-0.8-1.9-1.2-3.1-1.2C188,94.3,187,94.7,186.2,95.5z"/>
	<path class="st1" d="M200.7,104.9c-1-0.5-1.8-1.3-2.3-2.3c-0.6-1-0.8-2.1-0.8-3.3c0-1.2,0.3-2.3,0.8-3.3c0.6-1,1.3-1.7,2.3-2.3
		c1-0.5,2.1-0.8,3.3-0.8c1.1,0,2.1,0.2,2.9,0.6s1.5,1,2,1.9l-1.3,0.9c-0.4-0.6-0.9-1.1-1.6-1.4c-0.6-0.3-1.3-0.5-2.1-0.5
		c-0.9,0-1.7,0.2-2.5,0.6s-1.3,1-1.7,1.7c-0.4,0.8-0.6,1.6-0.6,2.6c0,1,0.2,1.8,0.6,2.6c0.4,0.7,1,1.3,1.7,1.7s1.5,0.6,2.5,0.6
		c0.8,0,1.4-0.2,2.1-0.5s1.2-0.8,1.6-1.4l1.3,0.9c-0.5,0.8-1.2,1.4-2,1.9c-0.9,0.4-1.8,0.6-2.9,0.6
		C202.8,105.7,201.7,105.4,200.7,104.9z"/>
	<path class="st1" d="M219.2,104.8c-0.3,0.3-0.7,0.5-1.2,0.7c-0.5,0.2-1,0.2-1.5,0.2c-1.2,0-2.1-0.3-2.7-1c-0.6-0.6-1-1.5-1-2.7
		v-7.6h-2.3v-1.4h2.3v-2.8h1.7v2.8h3.8v1.4h-3.8v7.5c0,0.8,0.2,1.3,0.6,1.7c0.4,0.4,0.9,0.6,1.6,0.6c0.4,0,0.7-0.1,1-0.2
		s0.6-0.3,0.9-0.5L219.2,104.8z"/>
	<path class="st1" d="M222.2,89.8c-0.2-0.2-0.4-0.5-0.4-0.9c0-0.3,0.1-0.6,0.4-0.8c0.2-0.2,0.5-0.4,0.9-0.4c0.4,0,0.6,0.1,0.9,0.3
		c0.2,0.2,0.4,0.5,0.4,0.8c0,0.4-0.1,0.6-0.4,0.9c-0.2,0.2-0.5,0.4-0.9,0.4C222.8,90.2,222.5,90,222.2,89.8z M222.3,92.9h1.7v12.6
		h-1.7V92.9z"/>
	<path class="st1" d="M231.2,89.7c-0.4,0.4-0.6,1-0.6,1.8v1.5h3.9v1.4h-3.8v11.2H229V94.4h-2.3v-1.4h2.3v-1.6c0-1.2,0.3-2.1,1-2.7
		c0.7-0.7,1.6-1,2.8-1c0.5,0,0.9,0.1,1.4,0.2c0.4,0.1,0.8,0.3,1.1,0.6l-0.6,1.3c-0.5-0.4-1.1-0.6-1.9-0.6
		C232.2,89.1,231.6,89.3,231.2,89.7z"/>
	<path class="st1" d="M237.3,105.2c-0.9-0.3-1.7-0.7-2.2-1.1l0.8-1.3c0.5,0.4,1.2,0.8,2,1c0.8,0.3,1.6,0.4,2.5,0.4
		c1.2,0,2-0.2,2.6-0.5c0.6-0.4,0.8-0.9,0.8-1.5c0-0.5-0.2-0.8-0.5-1.1c-0.3-0.3-0.7-0.5-1.2-0.6c-0.5-0.1-1.1-0.3-1.8-0.4
		c-1-0.2-1.8-0.4-2.5-0.6c-0.6-0.2-1.2-0.5-1.6-1c-0.4-0.5-0.7-1.1-0.7-2c0-1.1,0.4-1.9,1.3-2.6s2.1-1,3.7-1c0.8,0,1.6,0.1,2.4,0.3
		c0.8,0.2,1.5,0.5,2,0.9l-0.7,1.4c-1-0.7-2.3-1.1-3.7-1.1c-1.1,0-1.9,0.2-2.5,0.6c-0.6,0.4-0.8,0.9-0.8,1.5c0,0.5,0.2,0.9,0.5,1.2
		s0.7,0.5,1.2,0.6c0.5,0.1,1.1,0.3,1.9,0.4c1,0.2,1.8,0.4,2.4,0.6c0.6,0.2,1.1,0.5,1.6,1c0.4,0.5,0.6,1.1,0.6,1.9
		c0,1.1-0.5,2-1.4,2.6c-0.9,0.6-2.2,1-3.8,1C239.2,105.7,238.2,105.5,237.3,105.2z"/>
</g>
</svg>
