<?xml version="1.0" encoding="utf-8"?>
<!-- Generator: Adobe Illustrator 21.1.0, SVG Export Plug-In . SVG Version: 6.00 Build 0)  -->
<svg version="1.1" id="Calque_1" xmlns="http://www.w3.org/2000/svg" xmlns:xlink="http://www.w3.org/1999/xlink" x="0px" y="0px"
	 viewBox="0 0 666 759" style="enable-background:new 0 0 666 759;" xml:space="preserve">
<style type="text/css">
	.st0{fill:none;stroke:url(#SVGID_1_);stroke-width:11;stroke-miterlimit:10;}
	.st1{fill:#456F90;}
	.st2{fill:none;stroke:#FFFFFF;stroke-width:3;stroke-linecap:round;stroke-linejoin:round;stroke-miterlimit:10;}
	.st3{fill:none;stroke:#FFFFFF;stroke-width:3;stroke-linecap:round;stroke-linejoin:round;}
	.st4{fill:none;stroke:#FFFFFF;stroke-width:5;stroke-linecap:round;stroke-linejoin:round;}
	.st5{fill:none;stroke:#FFFFFF;stroke-width:3;stroke-miterlimit:10;}
	.st6{fill:none;stroke:#FFFFFF;stroke-width:3;stroke-linejoin:round;stroke-miterlimit:10;}
	.st7{font-family:'Questrial-Regular';}
	.st8{font-size:20px;}
</style>
<linearGradient id="SVGID_1_" gradientUnits="userSpaceOnUse" x1="-303.0007" y1="462.1712" x2="445.8395" y2="462.1712" gradientTransform="matrix(0 1 1 0 -307.2668 307.2668)">
	<stop  offset="0" style="stop-color:#D1DBE4"/>
	<stop  offset="1" style="stop-color:#456F90"/>
</linearGradient>
<path class="st0" d="M209.1,4.3c0,22-8.4,44-25.2,60.7s-38.8,25.2-60.7,25.2H94.1l0,0c-22,0-44,8.4-60.7,25.2S8.2,154,8.2,176
	c0,22,8.4,44,25.2,60.7s38.8,25.2,60.7,25.2s44-8.4,60.7-25.2l0,0c33.5-33.5,87.9-33.5,121.5,0s33.5,87.9,0,121.5
	s-87.9,33.5-121.5,0l0,0c-33.5-33.5-87.9-33.5-121.5,0s-33.5,87.9,0,121.5s87.9,33.5,121.5,0l0.1-0.1c33.5-33.5,87.9-33.5,121.5,0
	s33.5,87.9,0,121.5s-87.9,33.5-121.5,0l0-0.1c-16.8-16.8-38.8-25.2-60.7-25.2s-44,8.4-60.7,25.2S8.3,639.7,8.3,661.7
	c0,22,8.4,44,25.2,60.7s38.8,25.2,60.7,25.2s44-8.4,60.7-25.2"/>
<g>
	<circle class="st1" cx="215" cy="540.6" r="75.8"/>
</g>
<g>
	<circle class="st1" cx="215.8" cy="297.1" r="75.8"/>
</g>
<g>
	<circle class="st1" cx="94.1" cy="176.6" r="75.8"/>
</g>
<g>
	<circle class="st1" cx="93.8" cy="418.6" r="75.8"/>
</g>
<g>
	<circle class="st1" cx="94.2" cy="661.7" r="75.8"/>
</g>
<g id="Group_1_" transform="translate(1660.000000, 581.000000)">
	<path id="Layer-1_1_" class="st2" d="M-1561.9-368.5c22.1,0,39.9-17.9,39.9-39.9c0-22.1-17.9-39.9-39.9-39.9
		c-22.1,0-39.9,17.9-39.9,39.9C-1601.8-386.4-1583.9-368.5-1561.9-368.5L-1561.9-368.5z"/>
	<path id="Layer-2_1_" class="st2" d="M-1561.9-383c14,0,25.4-11.4,25.4-25.4s-11.4-25.4-25.4-25.4c-14,0-25.4,11.4-25.4,25.4
		S-1575.9-383-1561.9-383L-1561.9-383z"/>
	<path id="Layer-3_1_" class="st2" d="M-1561.9-397.5c6,0,10.9-4.9,10.9-10.9c0-6-4.9-10.9-10.9-10.9c-6,0-10.9,4.9-10.9,10.9
		C-1572.8-402.4-1567.9-397.5-1561.9-397.5L-1561.9-397.5z"/>
	<path id="Layer-4_1_" class="st2" d="M-1562.3-407.9l-41.5,41.5"/>
	<polyline id="Layer-5_1_" class="st2" points="-1565.8,-410.4 -1559.8,-410.4 -1559.8,-404.4 	"/>
	<polyline id="Layer-6_1_" class="st2" points="-1609.8,-366.4 -1603.8,-366.4 -1603.8,-360.4 	"/>
</g>
<g>
	<g id="_x34_8.-Home-Copy_1_" transform="translate(1532.000000, 969.000000)">
		<path id="Layer-1_3_" class="st3" d="M-1328.5-709.9c-0.3-0.3-0.9-0.3-1.3,0l-19.6,20.2c-0.9,0.9-0.6,1.7,0.7,1.7h3.6v21.6
			c0,0.5,0.4,0.9,0.9,0.9h30.1c0.5,0,0.9-0.4,0.9-0.9V-688h3.6c1.3,0,1.6-0.8,0.8-1.7l-6-6.6V-707h-6.2v4.4L-1328.5-709.9z"/>
		<polyline id="Layer-2_4_" class="st3" points="-1335.5,-665.5 -1335.5,-685 -1335.5,-685 -1322.5,-685 -1322.5,-665.5 		"/>
	</g>
	<path id="Layer-1_2_" class="st3" d="M203.3,322.9c22.1,0,40-17.9,40-40c0-22.1-17.9-40-40-40c-22.1,0-40,17.9-40,40
		C163.3,305,181.2,322.9,203.3,322.9z"/>
	<path id="Layer-2_3_" class="st3" d="M259.3,338.9l-27.5-27.5"/>
	<path id="Layer-2_2_" class="st4" d="M258.9,338.6L241.2,321"/>
</g>
<g id="paint-roller_2_">
	<path class="st2" d="M223.3,582.3h-11.8c-1.1,0-2-0.9-2-2l0-29.4c0-1.1,0.9-2,2-2h10.8c1.1,0,2,0.9,2,2l0,30.4
		C224.3,581.9,223.8,582.3,223.3,582.3z"/>
	<line class="st2" x1="254" y1="511.8" x2="250.2" y2="511.8"/>
	<path class="st2" d="M185.3,511.8l-5.6,0c-2,0-3.7,1.7-3.7,3.7v16.7c0,2,1.7,3.7,3.7,3.7h33.4c2,0,3.7,1.7,3.7,3.7l0,7.4"/>
	<path class="st2" d="M224.3,582.3h-14.8l0-30.4c0-1.7,1.3-3,3-3h8.8c1.7,0,3,1.3,3,3L224.3,582.3z"/>
	<path class="st2" d="M246.2,524.8l-58.8,0c-2.2,0-4-1.8-4-4l0-18c0-2.2,1.8-4,4-4l58.8,0c2.2,0,4,1.8,4,4v18
		C250.2,523,248.5,524.8,246.2,524.8z"/>
	<line class="st2" x1="215" y1="565.6" x2="218.7" y2="565.6"/>
	<line class="st2" x1="215" y1="558.2" x2="218.7" y2="558.2"/>
	<line class="st2" x1="215" y1="573.1" x2="218.7" y2="573.1"/>
</g>
<g>
	<polyline class="st5" points="45.4,660.2 56.4,660.2 56.4,697.7 45.2,697.7 	"/>
	<path class="st6" d="M63.6,663.4l0.1,31.7l0,0c0,0,28,8.7,28.9,9c1,0.3,3.8,0.9,5.4,0.9s4.2-0.8,4.2-0.8s36.5-12.5,38-13.1
		s3.6-3.1,2.7-7.1c-1.5-5.1-4.6-5.9-6.8-5.4c-2,0.4-26,6.1-27.7,6.1c-0.9,0-2.3,0.2-3.7,0.2c-1.2,0-2.4-0.2-3.2-0.2
		c-1.7,0-17.9-8.9-17.9-8.9s2-0.8,3.8-0.8c1.8,0,5.1,2.2,8,2.2s6.1-2.4,6.1-4.8c0-1.4,0.4-4.2-3-6.7c-3.9-2.8-12-5.2-15.2-5.2
		c-4.3,0-8.3,2.8-10.1,2.8S63.6,663.4,63.6,663.4z"/>
	<circle class="st6" cx="118" cy="635.1" r="16.8"/>
	<circle class="st6" cx="123.6" cy="635.1" r="6.1"/>
	<polygon class="st6" points="96.4,632 96.4,632 88.8,624.7 84.4,628.1 79.3,624.9 74.9,628 71.7,625 64.8,625 54.4,633.4 64,642 
		96.5,642 96.5,636.9 66.5,636.9 65.6,634.5 66.5,632 	"/>
</g>
<g>
	<rect x="84.7" y="369.4" class="st2" width="46.6" height="25.4"/>
	<circle class="st5" cx="55.3" cy="446.1" r="15.6"/>
	<circle class="st5" cx="114.5" cy="445.6" r="15.6"/>
	<line class="st2" x1="70.9" y1="446.3" x2="98.9" y2="446.3"/>
	<line class="st2" x1="114.5" y1="430" x2="114.6" y2="395.8"/>
	<path class="st2" d="M55.3,430c0-17.7,4.2-38.9,28.7-48.4"/>
	<polyline class="st2" points="93,440.9 98.7,446.7 93,452.4 	"/>
	<polyline class="st2" points="61.1,424.1 55.3,429.9 49.5,424.1 	"/>
	<polyline class="st2" points="109.1,401.5 114.8,395.8 120.6,401.6 	"/>
</g>
<text transform="matrix(1 0 0 1 372.3137 161.6608)"><tspan x="0" y="0" class="st1 st7 st8">Étape 1:</tspan><tspan x="0" y="24" class="st1 st7 st8">Définir les objectif</tspan></text>
<text transform="matrix(1 0 0 1 371.3137 637.6608)"><tspan x="0" y="0" class="st1 st7 st8">Étape 5:</tspan><tspan x="0" y="24" class="st1 st7 st8">Mise en location </tspan><tspan x="0" y="48" class="st1 st7 st8">et gestion</tspan></text>
<text transform="matrix(0.9983 0 0 1 371.3134 273.6973)"><tspan x="0" y="0" class="st1 st7 st8">Étape 2:</tspan><tspan x="0" y="24" class="st1 st7 st8">Recherche </tspan><tspan x="0" y="48" class="st1 st7 st8">d’une opportunité</tspan></text>
<text transform="matrix(0.9983 0 0 1 373.3134 393.6973)"><tspan x="0" y="0" class="st1 st7 st8">Étape 3:</tspan><tspan x="0" y="24" class="st1 st7 st8">Proposition d’un </tspan><tspan x="0" y="48" class="st1 st7 st8">scénario d’investisement</tspan></text>
<text transform="matrix(0.9983 0 0 1 371.3134 517.6973)"><tspan x="0" y="0" class="st1 st7 st8">Étape 4:</tspan><tspan x="0" y="24" class="st1 st7 st8">Travaux aménagement,</tspan><tspan x="0" y="48" class="st1 st7 st8">Décoration</tspan></text>
</svg>
