<?xml version="1.0" encoding="utf-8"?>
<!-- Generator: Adobe Illustrator 21.1.0, SVG Export Plug-In . SVG Version: 6.00 Build 0)  -->
<svg version="1.1" id="Calque_1" xmlns="http://www.w3.org/2000/svg" xmlns:xlink="http://www.w3.org/1999/xlink" x="0px" y="0px"
	 viewBox="0 0 82 88" style="enable-background:new 0 0 82 88;" xml:space="preserve">
<style type="text/css">
	.st0{fill:none;stroke:#FFFFFF;stroke-width:4;stroke-linecap:round;stroke-linejoin:round;stroke-miterlimit:10;}
</style>
<g id="paint-roller">
	<path class="st0" d="M49.5,85.5H37.7c-1.1,0-2-0.9-2-2V54.1c0-1.1,0.9-2,2-2h10.8c1.1,0,2,0.9,2,2v30.4
		C50.5,85,50.1,85.5,49.5,85.5z"/>
	<line class="st0" x1="80.2" y1="15" x2="76.5" y2="15"/>
	<path class="st0" d="M11.6,15H6c-2,0-3.7,1.7-3.7,3.7v16.7c0,2,1.7,3.7,3.7,3.7h33.4c2,0,3.7,1.7,3.7,3.7v7.4"/>
	<path class="st0" d="M50.5,85.5H35.7V55.1c0-1.7,1.3-3,3-3h8.8c1.7,0,3,1.3,3,3V85.5z"/>
	<path class="st0" d="M72.5,28H13.7c-2.2,0-4-1.8-4-4V6c0-2.2,1.8-4,4-4h58.8c2.2,0,4,1.8,4,4v18C76.5,26.2,74.7,28,72.5,28z"/>
	<line class="st0" x1="41.3" y1="68.8" x2="45" y2="68.8"/>
	<line class="st0" x1="41.3" y1="61.4" x2="45" y2="61.4"/>
	<line class="st0" x1="41.3" y1="76.2" x2="45" y2="76.2"/>
</g>
</svg>
