<?xml version="1.0" encoding="utf-8"?>
<!-- Generator: Adobe Illustrator 21.1.0, SVG Export Plug-In . SVG Version: 6.00 Build 0)  -->
<svg version="1.1" id="Calque_1" xmlns="http://www.w3.org/2000/svg" xmlns:xlink="http://www.w3.org/1999/xlink" x="0px" y="0px"
	 viewBox="0 0 92 92" style="enable-background:new 0 0 92 92;" xml:space="preserve">
<style type="text/css">
	.st0{fill:none;stroke:#FFFFFF;stroke-width:4;stroke-linecap:round;stroke-linejoin:round;stroke-miterlimit:10;}
</style>
<g id="Group_64_" transform="translate(1660.000000, 581.000000)">
	<path id="Layer-1_63_" class="st0" d="M-1610-499.2c22.1,0,39.9-17.9,39.9-39.9s-17.9-39.9-39.9-39.9s-39.9,17.9-39.9,39.9
		S-1632.1-499.2-1610-499.2L-1610-499.2z"/>
	<path id="Layer-2_62_" class="st0" d="M-1610-513.7c14,0,25.4-11.4,25.4-25.4c0-14-11.4-25.4-25.4-25.4s-25.4,11.4-25.4,25.4
		C-1635.4-525.1-1624-513.7-1610-513.7L-1610-513.7z"/>
	<path id="Layer-3_55_" class="st0" d="M-1610-528.2c6,0,10.9-4.9,10.9-10.9S-1604-550-1610-550s-10.9,4.9-10.9,10.9
		S-1616-528.2-1610-528.2L-1610-528.2z"/>
	<path id="Layer-4_50_" class="st0" d="M-1610.4-538.5l-41.5,41.5"/>
	<polyline id="Layer-5_35_" class="st0" points="-1613.9,-541 -1607.9,-541 -1607.9,-535 	"/>
	<polyline id="Layer-6_26_" class="st0" points="-1657.9,-497 -1651.9,-497 -1651.9,-491 	"/>
</g>
</svg>
