<?xml version="1.0" encoding="utf-8"?>
<!-- Generator: Adobe Illustrator 21.1.0, SVG Export Plug-In . SVG Version: 6.00 Build 0)  -->
<svg version="1.1" id="Calque_1" xmlns="http://www.w3.org/2000/svg" xmlns:xlink="http://www.w3.org/1999/xlink" x="0px" y="0px"
	 viewBox="0 0 117.8 103.8" style="enable-background:new 0 0 117.8 103.8;" xml:space="preserve">
<style type="text/css">
	.st0{fill:none;stroke:#FFD600;stroke-width:3;stroke-linecap:round;stroke-linejoin:round;stroke-miterlimit:10;}
	.st1{fill:#FFD600;}
</style>
<path class="st0" d="M8.9,101.4V3.9c0-1,0.8-1.9,1.9-1.9h39.3c1,0,1.9,0.8,1.9,1.9v97.5"/>
<path class="st0" d="M111.8,101.4V26.9c0-1-0.8-1.9-1.9-1.9H84c-1,0-1.9,0.8-1.9,1.9v74.5"/>
<path class="st0" d="M2.4,101.6H116"/>
<g>
	<path class="st0" d="M23.9,23.4h-3.4c-1.6,0-3-1.4-3-3v-7c0-1.7,1.4-3,3-3h3.4c1.7,0,3,1.3,3,3v7C26.9,22.1,25.5,23.4,23.9,23.4z"
		/>
	<path class="st0" d="M40.6,23.4h-3.4c-1.6,0-3-1.4-3-3v-7c0-1.7,1.4-3,3-3h3.4c1.7,0,3,1.3,3,3v7C43.6,22.1,42.3,23.4,40.6,23.4z"
		/>
</g>
<g>
	<path class="st0" d="M23.9,46.7h-3.4c-1.6,0-3-1.4-3-3v-7c0-1.6,1.4-3,3-3h3.4c1.7,0,3,1.4,3,3v7C26.9,45.3,25.5,46.7,23.9,46.7z"
		/>
	<path class="st0" d="M40.6,46.7h-3.4c-1.6,0-3-1.4-3-3v-7c0-1.6,1.4-3,3-3h3.4c1.7,0,3,1.4,3,3v7C43.6,45.3,42.3,46.7,40.6,46.7z"
		/>
</g>
<g>
	<path class="st0" d="M23.9,69.9h-3.4c-1.6,0-3-1.3-3-3v-7c0-1.6,1.4-3,3-3h3.4c1.7,0,3,1.4,3,3v7C26.9,68.5,25.5,69.9,23.9,69.9z"
		/>
	<path class="st0" d="M40.6,69.9h-3.4c-1.6,0-3-1.3-3-3v-7c0-1.6,1.4-3,3-3h3.4c1.7,0,3,1.4,3,3v7C43.6,68.5,42.3,69.9,40.6,69.9z"
		/>
</g>
<g>
	<path class="st0" d="M23.9,93.1h-3.4c-1.6,0-3-1.3-3-3v-7c0-1.7,1.4-3,3-3h3.4c1.7,0,3,1.3,3,3v7C26.9,91.7,25.5,93.1,23.9,93.1z"
		/>
	<path class="st0" d="M40.6,93.1h-3.4c-1.6,0-3-1.3-3-3v-7c0-1.7,1.4-3,3-3h3.4c1.7,0,3,1.3,3,3v7C43.6,91.7,42.3,93.1,40.6,93.1z"
		/>
</g>
<path class="st0" d="M52.3,42.3h29.3"/>
<g>
	<path class="st0" d="M52.3,50.8h17.3"/>
	<path class="st1" d="M75.9,52L75.9,52c-0.7,0-1.3-0.6-1.3-1.3v0c0-0.7,0.6-1.3,1.3-1.3h0c0.7,0,1.3,0.6,1.3,1.3v0
		C77.2,51.4,76.6,52,75.9,52z"/>
</g>
<g>
	<path class="st0" d="M52.3,58.9h17.3"/>
	<path class="st1" d="M75.9,60.2L75.9,60.2c-0.7,0-1.3-0.6-1.3-1.3v0c0-0.7,0.6-1.3,1.3-1.3h0c0.7,0,1.3,0.6,1.3,1.3v0
		C77.2,59.6,76.6,60.2,75.9,60.2z"/>
</g>
<g>
	<path class="st0" d="M52.3,67.1h17.3"/>
	<path class="st1" d="M75.9,68.4L75.9,68.4c-0.7,0-1.3-0.6-1.3-1.3v0c0-0.7,0.6-1.3,1.3-1.3h0c0.7,0,1.3,0.6,1.3,1.3v0
		C77.2,67.8,76.6,68.4,75.9,68.4z"/>
</g>
<g>
	<path class="st0" d="M52.3,75.3h17.3"/>
	<path class="st1" d="M75.9,76.6L75.9,76.6c-0.7,0-1.3-0.6-1.3-1.3l0,0c0-0.7,0.6-1.3,1.3-1.3h0c0.7,0,1.3,0.6,1.3,1.3l0,0
		C77.2,76,76.6,76.6,75.9,76.6z"/>
</g>
<g>
	<path class="st0" d="M52.3,83.5h17.3"/>
	<path class="st1" d="M75.9,84.8L75.9,84.8c-0.7,0-1.3-0.6-1.3-1.3l0,0c0-0.7,0.6-1.3,1.3-1.3h0c0.7,0,1.3,0.6,1.3,1.3l0,0
		C77.2,84.2,76.6,84.8,75.9,84.8z"/>
</g>
<g>
	<path class="st0" d="M52.3,91.7h17.3"/>
	<path class="st1" d="M75.9,93L75.9,93c-0.7,0-1.3-0.6-1.3-1.3v0c0-0.7,0.6-1.3,1.3-1.3h0c0.7,0,1.3,0.6,1.3,1.3v0
		C77.2,92.4,76.6,93,75.9,93z"/>
</g>
<path class="st0" d="M97,101.4V25.2"/>
<path class="st0" d="M89.1,101.6V25.4"/>
<path class="st0" d="M104.9,101.6V25.4"/>
</svg>
