<?xml version="1.0" encoding="utf-8"?>
<!-- Generator: Adobe Illustrator 21.1.0, SVG Export Plug-In . SVG Version: 6.00 Build 0)  -->
<svg version="1.1" id="Calque_1" xmlns="http://www.w3.org/2000/svg" xmlns:xlink="http://www.w3.org/1999/xlink" x="0px" y="0px"
	 viewBox="0 0 107 106" style="enable-background:new 0 0 107 106;" xml:space="preserve">
<style type="text/css">
	.st0{fill:none;stroke:#FFD600;stroke-width:3;stroke-linecap:round;stroke-linejoin:round;stroke-miterlimit:10;}
</style>
<g id="Group_71_" transform="translate(660.000000, 973.000000)">
	<circle id="Layer-1_72_" class="st0" cx="-606.4" cy="-920.3" r="51.3"/>
	<path id="Layer-2_73_" class="st0" d="M-606.4-971.6V-869"/>
	<path id="Layer-3_64_" class="st0" d="M-555.1-920.3h-102.6"/>
	<path id="Layer-4_59_" class="st0" d="M-606.4-971.6c0,0,25.8,19.8,25.8,51.3s-25.8,51.3-25.8,51.3"/>
	<path id="Layer-5_44_" class="st0" d="M-606.3-971.6c0,0-25.8,19.8-25.8,51.3s25.8,51.3,25.8,51.3"/>
	<path id="Layer-6_34_" class="st0" d="M-642.4-885c8-7,20.3-14.8,35.7-14.8c15.7,0,28.1,8,36.1,15.1"/>
	<path id="Layer-7_18_" class="st0" d="M-642.4-955.9c8,7,20.3,14.8,35.7,14.8c15.7,0,28.1-8,36.1-15.1"/>
</g>
</svg>
