<?xml version="1.0" encoding="utf-8"?>
<!-- Generator: Adobe Illustrator 21.1.0, SVG Export Plug-In . SVG Version: 6.00 Build 0)  -->
<svg version="1.1" id="Calque_1" xmlns="http://www.w3.org/2000/svg" xmlns:xlink="http://www.w3.org/1999/xlink" x="0px" y="0px"
	 viewBox="0 0 110 100" style="enable-background:new 0 0 110 100;" xml:space="preserve">
<style type="text/css">
	.st0{fill:none;stroke:#456F90;stroke-width:4;stroke-miterlimit:10;}
	.st1{fill:none;stroke:#456F90;stroke-width:4;stroke-linejoin:round;stroke-miterlimit:10;}
	.st2{fill:none;stroke:#456F90;stroke-width:3;stroke-linejoin:round;stroke-miterlimit:10;}
</style>
<g>
	<polyline class="st0" points="0,48.4 12.2,48.4 12.2,89.9 -0.3,89.9 	"/>
	<path class="st1" d="M20.1,52l0.1,35.1l0,0c0,0,31,9.6,32.1,10c1.1,0.4,4.2,1,6,1s4.6-0.8,4.6-0.8s40.5-13.8,42.1-14.5
		c1.7-0.6,4-3.5,2.9-7.8c-1.7-5.6-5.1-6.5-7.6-6c-2.2,0.5-28.8,6.7-30.6,6.7c-1,0-2.6,0.2-4.1,0.2c-1.4,0-2.7-0.2-3.6-0.2
		c-1.9,0-19.9-9.9-19.9-9.9s2.3-0.9,4.2-0.9s5.7,2.4,8.8,2.4c3.2,0,6.7-2.7,6.7-5.3c0-1.5,0.4-4.7-3.3-7.4
		c-4.4-3.1-13.2-5.7-16.8-5.7c-4.8,0-9.2,3.1-11.2,3.1S20.1,52,20.1,52z"/>
	<circle class="st2" cx="80.3" cy="20.6" r="18.6"/>
	<circle class="st2" cx="86.6" cy="20.5" r="6.7"/>
	<polygon class="st2" points="56.5,17.1 56.5,17.1 48,9.1 43.2,12.8 37.5,9.2 32.6,12.7 29,9.4 21.4,9.4 9.9,18.7 20.6,28.2 
		56.5,28.2 56.5,22.5 23.4,22.5 22.4,19.9 23.4,17.1 	"/>
</g>
</svg>
