<?xml version="1.0" encoding="utf-8"?>
<!-- Generator: Adobe Illustrator 21.1.0, SVG Export Plug-In . SVG Version: 6.00 Build 0)  -->
<svg version="1.1" id="Calque_1" xmlns="http://www.w3.org/2000/svg" xmlns:xlink="http://www.w3.org/1999/xlink" x="0px" y="0px"
	 viewBox="0 0 100.2 100.5" style="enable-background:new 0 0 100.2 100.5;" xml:space="preserve">
<style type="text/css">
	.st0{fill:none;stroke:#FFD600;stroke-width:3;stroke-linecap:round;stroke-linejoin:round;stroke-miterlimit:10;}
</style>
<path class="st0" d="M14.5,31.8c0-3.2,3-2.5,3.6-3.6c0.7-1.1,1.1-2.3,2.3-5.2s4.8-0.9,6.4-1.8c1.6-0.9,2.7,0.2,2.7-1.1
	c0-1.4-0.7-4.5-3-7.1s-3.2-5.5-1.4-7.5s2.3-4.5,3.9-3.2s3.2,5.5,6.1,5.5s1.1-4.1,2.7-3.9c1.6,0.2,1.1,3,2.5,2.7s2.7-4.8,5-4.8
	c2.3,0,5.7-0.2,5.7,3.2s0,5.2,1.4,5.2s-0.2,0.5,0.2,3.4s5.2,2,5.2,3.6s0.2,3.4-1.4,7.1c-1.6,3.6-4.1,2.7-3.6,8S52.2,44,54.3,44.7
	c2,0.7,4.8,1.1,5.7,3c0.9,1.8,3.6-0.9,5.9,2.7c2.3,3.6,1.8,9.6,4.3,9.6s10.2-2.5,10.2,0.2s2.7,8,0,11.6c-2.7,3.6-2,8.6-5.7,8.6
	s-9.1,0.9-10.5,3.2c-1.4,2.3-3.2,1.6-5,0.7s2.3,3.9,2.3,5s2.5,4.5-0.2,5.2c-2.7,0.7-5.9,3.2-7.5,4.3s-3-3.9-6.4-3.9
	c-3.4,0-5-2.3-4.5-3.6s5.9-3.6,5.9-5.5s1.1-3.2-3-2.5s-5.2,0.9-10.2,0.7s-5.5-2.7-6.4-4.5c-0.9-1.8-5.5-5.5-5.5-9.6s1.8-5.9,1.4-7.1
	c-0.5-1.1-2.5-1.1-2.5-3s3-3.4,3-5.7s-5-1.8-5-4.1c0-2.3,1.4-7.7-0.7-9.6c-2-1.8-2.7-0.7-4.5-2.5C13.6,36.3,14.5,31.8,14.5,31.8z"/>
</svg>
