<?xml version="1.0" encoding="utf-8"?>
<!-- Generator: Adobe Illustrator 21.1.0, SVG Export Plug-In . SVG Version: 6.00 Build 0)  -->
<svg version="1.1" id="Calque_1" xmlns="http://www.w3.org/2000/svg" xmlns:xlink="http://www.w3.org/1999/xlink" x="0px" y="0px"
	 viewBox="0 0 99.5 99.8" style="enable-background:new 0 0 99.5 99.8;" xml:space="preserve">
<style type="text/css">
	.st0{fill:none;stroke:#FFD600;stroke-width:3;stroke-linecap:round;stroke-linejoin:round;stroke-miterlimit:10;}
</style>
<g id="Group_67_" transform="translate(1860.000000, 773.000000)">
	<path id="Layer-1_68_" class="st0" d="M-1855.3-771.2h90c1.7,0,3,1.3,3,3v90c0,1.7-1.3,3-3,3h-90c-1.7,0-3-1.3-3-3v-90
		C-1858.3-769.8-1856.9-771.2-1855.3-771.2z"/>
	<rect id="Layer-2_67_" x="-1848.7" y="-742.4" class="st0" width="19.2" height="19.2"/>
	<rect id="Layer-3_60_" x="-1829.5" y="-742.4" class="st0" width="19.2" height="19.2"/>
	<rect id="Layer-4_55_" x="-1810.3" y="-742.4" class="st0" width="19.2" height="19.2"/>
	<rect id="Layer-5_40_" x="-1791.1" y="-742.4" class="st0" width="19.2" height="19.2"/>
	<rect id="Layer-6_31_" x="-1791.1" y="-723.2" class="st0" width="19.2" height="19.2"/>
	<rect id="Layer-7_16_" x="-1810.3" y="-723.2" class="st0" width="19.2" height="19.2"/>
	<rect id="Layer-8_6_" x="-1829.5" y="-723.2" class="st0" width="19.2" height="19.2"/>
	<rect id="Layer-9_4_" x="-1848.7" y="-723.2" class="st0" width="19.2" height="19.2"/>
	<rect id="Layer-10_1_" x="-1848.7" y="-704" class="st0" width="19.2" height="19.2"/>
	<rect id="Layer-11_1_" x="-1829.5" y="-704" class="st0" width="19.2" height="19.2"/>
	<rect id="Layer-12_1_" x="-1810.3" y="-704" class="st0" width="19.2" height="19.2"/>
	<path id="Layer-13_1_" class="st0" d="M-1839.1-771.2h9.6v4.8c0,2.7-2.2,4.8-4.8,4.8l0,0c-2.7,0-4.8-2.2-4.8-4.8V-771.2z"/>
	<path id="Layer-14_1_" class="st0" d="M-1791.1-771.2h9.6v4.8c0,2.7-2.2,4.8-4.8,4.8l0,0c-2.7,0-4.8-2.2-4.8-4.8V-771.2z"/>
</g>
</svg>
