<?xml version="1.0" encoding="utf-8"?>
<!-- Generator: Adobe Illustrator 21.1.0, SVG Export Plug-In . SVG Version: 6.00 Build 0)  -->
<svg version="1.1" id="Calque_1" xmlns="http://www.w3.org/2000/svg" xmlns:xlink="http://www.w3.org/1999/xlink" x="0px" y="0px"
	 viewBox="0 0 106 106" style="enable-background:new 0 0 106 106;" xml:space="preserve">
<style type="text/css">
	.st0{fill:none;stroke:#FFD600;stroke-width:3;stroke-linecap:round;stroke-linejoin:round;stroke-miterlimit:10;}
</style>
<g id="Group_70_" transform="translate(860.000000, 1173.000000)">
	<path id="Layer-1_71_" class="st0" d="M-847.3-1096.9c-0.4,0.2-1,1.6-0.7,2.9c0.5,1.8,2.1,2.6,2.1,2.6s2.5,3.4,2.5,5.4
		s0,2.7-0.7,4.4c-0.7,1.6-14,3.6-14.6,13.3h19.4l19.6,0c-0.6-9.7-13.9-11.7-14.6-13.3c-0.7-1.6-0.7-2.4-0.7-4.4c0-2,2.5-5.4,2.5-5.4
		s1.6-0.7,2.1-2.6c0.3-1.2-0.4-2.6-0.7-2.9c1-3,2.9-13.2-8-13.6c0,0-0.1,0-0.1,0C-850.2-1110.1-848.3-1099.9-847.3-1096.9z"/>
	<path id="Layer-2_70_" class="st0" d="M-783.7-1096.9c-0.4,0.2-1,1.6-0.7,2.9c0.5,1.8,2.1,2.6,2.1,2.6s2.5,3.4,2.5,5.4
		s0,2.7-0.7,4.4c-0.7,1.6-14,3.6-14.6,13.3h19.4l19.6,0c-0.6-9.7-13.9-11.7-14.6-13.3c-0.7-1.6-0.7-2.4-0.7-4.4c0-2,2.5-5.4,2.5-5.4
		s1.6-0.7,2.1-2.6c0.3-1.2-0.4-2.6-0.7-2.9c1-3,2.9-13.2-8-13.6c0,0-0.1,0-0.1,0C-786.6-1110.1-784.6-1099.9-783.7-1096.9z"/>
	<path id="Layer-3_63_" class="st0" d="M-815.5-1157.5c-0.4,0.2-1,1.6-0.7,2.9c0.5,1.8,2.1,2.6,2.1,2.6s2.5,3.4,2.5,5.4
		s0,2.7-0.7,4.4c-0.7,1.6-14,3.6-14.6,13.3h19.4l19.6,0c-0.6-9.7-13.9-11.7-14.6-13.3c-0.7-1.6-0.7-2.4-0.7-4.4s2.5-5.4,2.5-5.4
		s1.6-0.7,2.1-2.6c0.3-1.2-0.4-2.6-0.7-2.9c1-3,2.9-13.2-8-13.6c0,0-0.1,0-0.1,0C-818.4-1170.7-816.5-1160.5-815.5-1157.5z"/>
	<path id="Layer-4_58_" class="st0" d="M-807.4-1104.4l13.3,8.2"/>
	<polyline id="Layer-5_43_" class="st0" points="-807.4,-1117.7 -807.4,-1104.4 -820.7,-1096.1 	"/>
</g>
</svg>
