<?xml version="1.0" encoding="utf-8"?>
<!-- Generator: Adobe Illustrator 21.1.0, SVG Export Plug-In . SVG Version: 6.00 Build 0)  -->
<svg version="1.1" id="Calque_1" xmlns="http://www.w3.org/2000/svg" xmlns:xlink="http://www.w3.org/1999/xlink" x="0px" y="0px"
	 viewBox="0 0 101.3 104.7" style="enable-background:new 0 0 101.3 104.7;" xml:space="preserve">
<style type="text/css">
	.st0{fill:none;stroke:#FFD600;stroke-width:4;stroke-linecap:round;stroke-linejoin:round;stroke-miterlimit:10;}
	.st1{fill:none;stroke:#456F90;stroke-width:4;stroke-linecap:round;stroke-linejoin:round;stroke-miterlimit:10;}
</style>
<g id="Group_88_" transform="translate(1060.000000, 1173.000000)">
	<polyline id="Layer-7_23_" class="st0" points="-1056.8,-1112.5 -1037.7,-1134.2 -1016.5,-1112.5 -969.7,-1156 	"/>
</g>
<polyline id="Layer-5_55_" class="st0" points="86.5,14.9 92.5,14.9 92.5,21 "/>
<g id="Group_89_" transform="translate(260.000000, 573.000000)">
	<path id="Layer-2_105_" class="st0" d="M-233.4-554.5h27.8"/>
	<path id="Layer-3_76_" class="st0" d="M-233.4-548.7h24.9"/>
	<path id="Layer-4_73_" class="st0" d="M-205.5-563.1c-2.4-1.9-5.5-3-8.8-3c-8,0-14.5,6.5-14.5,14.5c0,8,6.5,14.5,14.5,14.5l0,0
		c3.3,0,6.3-1.1,8.8-3"/>
</g>
<polyline id="Layer-6_45_" class="st0" points="99.2,102.1 2.2,102.1 2.2,3 "/>
<path id="Layer-2_106_" class="st0" d="M22.5,101.8l-0.2-53.1l-20,23"/>
<path id="Layer-2_111_" class="st1" d="M23,101.8"/>
<path id="Layer-2_108_" class="st0" d="M43.5,101.8V71.1L22.3,48.8"/>
<path id="Layer-2_110_" class="st0" d="M64.5,102V51.2L43.5,71.1"/>
<path id="Layer-2_109_" class="st0" d="M85.3,101.8V32.9L64.5,51.2"/>
</svg>
