<?xml version="1.0" encoding="utf-8"?>
<!-- Generator: Adobe Illustrator 21.1.0, SVG Export Plug-In . SVG Version: 6.00 Build 0)  -->
<svg version="1.1" id="Calque_1" xmlns="http://www.w3.org/2000/svg" xmlns:xlink="http://www.w3.org/1999/xlink" x="0px" y="0px"
	 viewBox="0 0 122.2 85" style="enable-background:new 0 0 122.2 85;" xml:space="preserve">
<style type="text/css">
	.st0{fill:none;stroke:#456F90;stroke-width:4;stroke-linecap:round;stroke-linejoin:round;stroke-miterlimit:10;}
</style>
<polyline class="st0" points="27.3,2.6 38.5,9.1 14.2,51.2 2.8,44.5 "/>
<polyline class="st0" points="95.4,3.3 84.1,9.8 108.4,51.8 119.9,45.2 "/>
<line class="st0" x1="19.5" y1="42.2" x2="25.2" y2="51.8"/>
<line class="st0" x1="34.2" y1="18.3" x2="46.8" y2="21"/>
<path class="st0" d="M86.3,16.2c0,0-3.5,0.7-6.3,0.7s-20.3-2-20.3-2s-10,2.5-10.8,3.8C48,20,38.5,37.8,38.5,37.8s2.2,3.5,6.7,2.3
	c4.5-1.2,8.7-5.5,9.7-8.2l1-2.1l4-0.8c0,0,34.2,21.4,35.8,22.6s2.6,4.2,1.2,6.6c-1.6,2.7-3.9,4.2-5.9,3.1
	c-2.5-1.5-19.5-12.6-19.5-12.6"/>
<path class="st0" d="M66.5,57.7c0,0,13.3,8.8,15,9.6c3.9,1.8,7.8-2.9,9.4-5.9"/>
<path class="st0" d="M61.9,66.1c4.2,2.5,10.7,6.7,12.1,7.6c4.4,2.6,7.2-2.4,8.8-5.5"/>
<path class="st0" d="M56.1,76.6c0,0,7.7,2.8,9.4,3.2c2.9,0.8,7.2-2.4,8.8-5.5"/>
<path class="st0" d="M47.6,80.4c1.6,1.2,4,1.4,5.6,0.2S58.9,72.4,59,70s0-5.2-3.4-6.6c-3.4-1.4-9.8,10.8-9.8,10.8S44.2,78,47.6,80.4
	z"/>
<path class="st0" d="M51.6,65.5l2-3c0.8-1.4,0.8-4.3-2.2-6.2C48.4,54.4,46,57,46,57l-8.9,12.2c0,0-1.6,2.2,1.9,4.7
	c4.6,3.2,7.3-0.8,7.3-0.8"/>
<path class="st0" d="M38.5,67.5c-1.1,1.4-4.4,5.1-8,1.5c-2.4-2.5-2.1-5.5-0.8-7.1c1.5-1.8,9.4-11.5,9.4-11.5s3-3.8,6.8-1.1
	c2.4,1.7,1.9,5.6,0.2,7.7"/>
<path class="st0" d="M29.6,61.9c-1.3,1.8-4.9,0.3-6.4-1.6c-1.8-2.4-0.8-5.4,0-6.1s5.4-4.9,6.6-5.9s3.1-0.9,5.1,0.4
	c0,0,3.1,2.3,1.9,4.8"/>
<line class="st0" x1="102.3" y1="43.3" x2="95.6" y2="51.7"/>
</svg>
