<?xml version="1.0" encoding="utf-8"?>
<!-- Generator: Adobe Illustrator 21.1.0, SVG Export Plug-In . SVG Version: 6.00 Build 0)  -->
<svg version="1.1" id="Calque_1" xmlns="http://www.w3.org/2000/svg" xmlns:xlink="http://www.w3.org/1999/xlink" x="0px" y="0px"
	 viewBox="0 0 132.5 111.5" style="enable-background:new 0 0 132.5 111.5;" xml:space="preserve">
<style type="text/css">
	.st0{fill:none;stroke:#456F90;stroke-width:4;stroke-linecap:round;stroke-linejoin:round;stroke-miterlimit:10;}
</style>
<g id="Group_82_" transform="translate(660.000000, 973.000000)">
	<path id="Layer-1_92_" class="st0" d="M-606.7-870.5c-27.5,0-49.8-22.3-49.8-49.8c0-27.5,22.3-49.8,49.8-49.8
		c21.5,0,39.9,13.7,46.8,32.8"/>
	<path id="Layer-2_96_" class="st0" d="M-606.7-970.1v99.6"/>
	<path id="Layer-3_72_" class="st0" d="M-586.5-920.3l-70,0"/>
	<path id="Layer-4_69_" class="st0" d="M-589.6-891.1c-7.3,13.1-17.1,20.6-17.1,20.6"/>
	<path id="Layer-4_68_" class="st0" d="M-606.7-970.1c0,0,21,16.1,24.6,42.3"/>
	<path id="Layer-5_52_" class="st0" d="M-606.5-970.1c0,0-25.1,19.2-25.1,49.8c0,30.6,25.1,49.8,25.1,49.8"/>
	<path id="Layer-6_41_" class="st0" d="M-641.6-886c7.7-6.8,19.7-14.4,34.7-14.4c7,0,13.3,1.6,18.8,4.1"/>
	<path id="Layer-7_20_" class="st0" d="M-641.6-954.9c7.7,6.8,19.7,14.4,34.7,14.4c15.2,0,27.3-7.8,35-14.7"/>
</g>
<path id="Layer-2_95_" class="st0" d="M128,108.3c-0.9-14.8-21.1-17.8-22.2-20.3c-1-2.5-1-3.7-1-6.7c0-3,3.9-8.2,3.9-8.2
	s2.5-1.1,3.2-3.9c0.5-1.9-0.6-4-1.1-4.4c1.5-4.5,4.4-20.1-12.2-20.7c-0.1,0-0.1,0-0.2,0C81.6,44.9,84.5,60.5,86,65
	c-0.5,0.3-1.6,2.5-1.1,4.4c0.7,2.8,3.2,3.9,3.2,3.9s3.9,5.2,3.9,8.2c0,3,0,4.2-1,6.7c-1,2.5-21.3,5.5-22.2,20.3L128,108.3z"/>
</svg>
