<?xml version="1.0" encoding="utf-8"?>
<!-- Generator: Adobe Illustrator 21.1.0, SVG Export Plug-In . SVG Version: 6.00 Build 0)  -->
<svg version="1.1" id="Calque_1" xmlns="http://www.w3.org/2000/svg" xmlns:xlink="http://www.w3.org/1999/xlink" x="0px" y="0px"
	 viewBox="0 0 71 101.5" style="enable-background:new 0 0 71 101.5;" xml:space="preserve">
<style type="text/css">
	.st0{fill:none;stroke:#456F90;stroke-width:3;stroke-linecap:round;stroke-linejoin:round;stroke-miterlimit:10;}
	.st1{fill:none;stroke:#456F90;stroke-width:4;stroke-linecap:round;stroke-linejoin:round;stroke-miterlimit:10;}
</style>
<path id="Layer-2_89_" class="st0" d="M36.3,67.3c7.7,0,13.9-6.2,13.9-13.9S44,39.6,36.3,39.6s-13.9,6.2-13.9,13.9
	S28.7,67.3,36.3,67.3L36.3,67.3z"/>
<path id="Layer-3_71_" class="st0" d="M36.3,60.7c4,0,7.3-3.2,7.3-7.3s-3.2-7.3-7.3-7.3s-7.3,3.2-7.3,7.3S32.3,60.7,36.3,60.7
	L36.3,60.7z"/>
<path id="Layer-4_67_" class="st0" d="M36.1,53.7L13.5,76.3"/>
<polyline id="Layer-5_51_" class="st0" points="34.2,52.4 37.4,52.4 37.4,55.6 "/>
<polyline id="Layer-6_40_" class="st0" points="10.2,76.3 13.5,76.3 13.5,79.6 "/>
<g id="Group_86_" transform="translate(1275.000000, 1173.000000)">
	<path id="Layer-1_99_" class="st1" d="M-1239.1-1074.1c-9.3,0-10.3-8.1-10.2-11.3h20.4C-1229.1-1082.3-1229.8-1074.1-1239.1-1074.1
		L-1239.1-1074.1z M-1249.3-1095.1c-0.4-5.5-12.3-11.1-12.3-25.1c0-14.9,10.8-22.8,22.6-23.1c11.8,0.3,22.6,8.2,22.6,23.1
		c0,14-11.9,19.5-12.5,25.1H-1249.3L-1249.3-1095.1z"/>
	<path id="Layer-2_102_" class="st1" d="M-1239.6-1170.1v14.1"/>
	<path id="Layer-3_75_" class="st1" d="M-1206.4-1161.6l-9.7,10"/>
	<path id="Layer-4_72_" class="st1" d="M-1272.6-1161.6l9.7,10"/>
</g>
</svg>
