<?xml version="1.0" encoding="utf-8"?>
<!-- Generator: Adobe Illustrator 21.1.0, SVG Export Plug-In . SVG Version: 6.00 Build 0)  -->
<svg version="1.1" id="Calque_1" xmlns="http://www.w3.org/2000/svg" xmlns:xlink="http://www.w3.org/1999/xlink" x="0px" y="0px"
	 viewBox="0 0 103 92" style="enable-background:new 0 0 103 92;" xml:space="preserve">
<style type="text/css">
	.st0{fill:none;stroke:#FFD600;stroke-width:3;stroke-linecap:round;stroke-linejoin:round;stroke-miterlimit:10;}
</style>
<polyline class="st0" points="3.5,44 14.5,44 14.5,81.5 3.3,81.5 "/>
<path class="st0" d="M21.7,47.2L21.8,79l0,0c0,0,28,8.7,28.9,9c1,0.3,3.8,0.9,5.4,0.9c1.6,0,4.2-0.8,4.2-0.8s36.5-12.5,38-13.1
	c1.5-0.6,3.6-3.1,2.7-7.1c-1.5-5.1-4.6-5.9-6.8-5.4c-2,0.4-26,6.1-27.7,6.1c-0.9,0-2.3,0.2-3.7,0.2c-1.2,0-2.4-0.2-3.2-0.2
	c-1.7,0-17.9-8.9-17.9-8.9s2-0.8,3.8-0.8s5.1,2.2,8,2.2c2.9,0,6.1-2.4,6.1-4.8c0-1.4,0.4-4.2-3-6.7c-3.9-2.8-12-5.2-15.2-5.2
	c-4.3,0-8.3,2.8-10.1,2.8C29.4,47.2,21.7,47.2,21.7,47.2z"/>
<circle class="st0" cx="76" cy="18.9" r="16.8"/>
<circle class="st0" cx="81.7" cy="18.9" r="6.1"/>
<polygon class="st0" points="54.5,15.8 54.5,10.4 51.9,11.9 46.9,8.5 42.5,11.9 37.4,8.7 33,11.8 29.7,8.8 22.8,8.8 12.5,17.2 
	22.1,25.8 54.5,25.8 54.5,20.7 24.6,20.7 23.7,18.3 24.6,15.8 "/>
</svg>
