<?xml version="1.0" encoding="utf-8"?>
<!-- Generator: Adobe Illustrator 21.1.0, SVG Export Plug-In . SVG Version: 6.00 Build 0)  -->
<svg version="1.1" id="Calque_1" xmlns="http://www.w3.org/2000/svg" xmlns:xlink="http://www.w3.org/1999/xlink" x="0px" y="0px"
	 viewBox="0 0 1000 1000" style="enable-background:new 0 0 1000 1000;" xml:space="preserve">
<style type="text/css">
	.st0{fill:#456F90;}
</style>
<g>
	<g>
		<path class="st0" d="M158,10C76.3,10,10,76.3,10,158v684c0,81.7,66.3,148,148,148h684c81.7,0,147.9-66.3,147.9-148V158
			c0-81.7-66.2-148-147.9-148H158z M277.7,132c50.4,0,81.4,33.2,82.4,76.6c0,42.5-32.1,76.5-83.4,76.5h-0.9
			c-49.4,0-81.4-34-81.4-76.5C194.3,165.1,227.3,132,277.7,132L277.7,132z M711.9,335.3c96.9,0,169.5,63.3,169.5,199.4v254.1H734.2
			V551.7c0-59.6-21.4-100.2-74.7-100.2c-40.7,0-64.8,27.3-75.4,53.8c-3.9,9.5-4.9,22.7-4.9,36v247.5H431.8c0,0,1.9-401.5,0-443.1
			h147.3v62.8C598.7,378.3,633.7,335.3,711.9,335.3z M203,345.7h147.3v443.1H203V345.7z"/>
	</g>
</g>
</svg>
