<?xml version="1.0" encoding="utf-8"?>
<!-- Generator: Adobe Illustrator 21.1.0, SVG Export Plug-In . SVG Version: 6.00 Build 0)  -->
<svg version="1.1" id="Calque_1" xmlns="http://www.w3.org/2000/svg" xmlns:xlink="http://www.w3.org/1999/xlink" x="0px" y="0px"
	 viewBox="0 0 124.8 106.2" style="enable-background:new 0 0 124.8 106.2;" xml:space="preserve">
<style type="text/css">
	.st0{fill:none;stroke:#FFD600;stroke-width:3;stroke-linecap:round;stroke-linejoin:round;stroke-miterlimit:10;}
</style>
<g id="Group_71_" transform="translate(660.000000, 973.000000)">
	<path id="Layer-1_72_" class="st0" d="M-609.6-874.3c-26.7,0-48.3-21.6-48.3-48.3s21.6-48.3,48.3-48.3c20.9,0,38.7,13.3,45.5,31.8"
		/>
	<path id="Layer-2_73_" class="st0" d="M-609.6-971v96.7"/>
	<path id="Layer-3_64_" class="st0" d="M-590-922.7l-67.9,0"/>
	<path id="Layer-4_64_" class="st0" d="M-593-894.3c-7.1,12.7-16.6,20-16.6,20"/>
	<path id="Layer-4_63_" class="st0" d="M-609.6-971c0,0,20.4,15.7,23.8,41.1"/>
	<path id="Layer-5_44_" class="st0" d="M-609.4-971c0,0-24.3,18.7-24.3,48.3s24.3,48.3,24.3,48.3"/>
	<path id="Layer-6_37_" class="st0" d="M-643.4-889.4c7.5-6.6,19.1-13.9,33.7-13.9c6.8,0,12.9,1.6,18.3,3.9"/>
	<path id="Layer-7_18_" class="st0" d="M-643.4-956.2c7.5,6.6,19.1,13.9,33.7,13.9c14.8,0,26.5-7.5,34-14.2"/>
</g>
<path id="Layer-2_85_" class="st0" d="M122.9,104.3c-0.8-14.3-20.5-17.2-21.5-19.7c-1-2.4-1-3.6-1-6.5c0-2.9,3.7-7.9,3.7-7.9
	s2.4-1.1,3.1-3.8c0.5-1.8-0.5-3.9-1.1-4.2c1.4-4.4,4.2-19.5-11.8-20c-0.1,0-0.1,0-0.2,0c-16.2,0.5-13.4,15.7-11.9,20
	c-0.5,0.3-1.5,2.4-1.1,4.2c0.7,2.7,3.1,3.8,3.1,3.8s3.7,5,3.7,7.9c0,2.9,0,4-1,6.5c-1,2.4-20.7,5.3-21.5,19.7L122.9,104.3z"/>
</svg>
