<?xml version="1.0" encoding="utf-8"?>
<!-- Generator: Adobe Illustrator 21.1.0, SVG Export Plug-In . SVG Version: 6.00 Build 0)  -->
<svg version="1.1" id="Capa_1" xmlns="http://www.w3.org/2000/svg" xmlns:xlink="http://www.w3.org/1999/xlink" x="0px" y="0px"
	 viewBox="0 0 97.3 95.7" style="enable-background:new 0 0 97.3 95.7;" xml:space="preserve">
<style type="text/css">
	.st0{fill:none;stroke:#456F90;stroke-width:4;stroke-linecap:round;stroke-linejoin:round;stroke-miterlimit:10;}
</style>
<path class="st0" d="M58.9,33.8c0,0,13.2-15,15.1-17s4.3-3,7.1-3c3.6,0,6.4,1.9,7.7,4.1c1.1,1.8,5.3,10.9,5.3,10.9s-2.7,0-4.4,0.2
	s-3.2,0.7-4.3,1.7c-1,1-1.9,2.3-2,4c0,1.3,0,7.3,0,13.4s-3.4,13-7.1,16.6c-5.4,5.4-13.4,8.9-19.6,8.9s-8.3-0.1-16-0.1
	s-11,7.6-11,7.6"/>
<path class="st0" d="M62.5,35.8l-13.6-8.4c0,0-3.8-2.4-7.1-2.4s-5.7,1-8.2,1.6c-2.5,0.6-7.6,2.1-13.9,2.1S3,28.9,3,28.9
	s10.8,19.2,13.2,21.7c2.4,2.5,9,8,19.8,8.1s15.3-3.5,20.2-7.4"/>
<path class="st0" d="M41.3,40.2c0,0-7,4.1-13.5,4.1s-13.8-1.7-18-4.1"/>
<path class="st0" d="M32.6,26.1c0,0-2.1-5.1-2.4-8.2S30.1,2.6,30.1,2.6s6.2,7.8,10.6,10.7c6.1,4,15.9,6.1,18.3,6.8
	c3.2,0.9,6,2.9,6.6,6.1"/>
<path class="st0" d="M37.6,59.5c0,0-17.2,19.8-19.2,22c-2.9,3.3-1.2,5.5,0.3,6.4c1.5,0.8,7.1,3.3,10.2,4.9c3.1,1.5,4.4-0.2,5.1-1.8
	c0.7-1.4,6.9-17.3,6.9-17.3"/>
</svg>
