<?xml version="1.0" encoding="utf-8"?>
<!-- Generator: Adobe Illustrator 21.1.0, SVG Export Plug-In . SVG Version: 6.00 Build 0)  -->
<svg version="1.1" id="Calque_1" xmlns="http://www.w3.org/2000/svg" xmlns:xlink="http://www.w3.org/1999/xlink" x="0px" y="0px"
	 viewBox="0 0 119 119" style="enable-background:new 0 0 119 119;" xml:space="preserve">
<style type="text/css">
	.st0{fill:none;stroke:#456F90;stroke-width:4;stroke-linejoin:round;stroke-miterlimit:10;}
</style>
<g>
	<polyline class="st0" points="3.3,6.4 22.8,6.4 22.8,2.2 30.7,2.2 30.7,6.6 74.1,6.6 74.1,2.2 81.8,2.2 81.8,6.6 89.7,6.6 
		89.7,2.2 96.7,2.2 96.7,4.4 99,4.4 99,6.3 116.5,6.3 116.5,14.2 7.8,14.2 7.8,107.7 	"/>
	<line class="st0" x1="85.8" y1="116.2" x2="54.1" y2="116.2"/>
	<polyline class="st0" points="33.7,116.2 46.4,116.2 46.4,108.4 54.2,108.4 73.8,108.4 	"/>
	<polyline class="st0" points="54.1,107.4 54.1,81 66.7,81 66.7,107.8 	"/>
	<line class="st0" x1="61.4" y1="94.5" x2="66.2" y2="94.5"/>
	<g>
		<rect x="86" y="81" class="st0" width="11" height="15.5"/>
		<line class="st0" x1="86.5" y1="88.8" x2="96.4" y2="88.8"/>
	</g>
	<g>
		<rect x="23.4" y="81.1" class="st0" width="11" height="15.5"/>
		<line class="st0" x1="24" y1="88.8" x2="33.8" y2="88.8"/>
	</g>
	<g>
		<rect x="86" y="53.4" class="st0" width="11" height="15.5"/>
		<line class="st0" x1="86.5" y1="61.2" x2="96.4" y2="61.2"/>
	</g>
	<g>
		<rect x="23.4" y="53.4" class="st0" width="11" height="15.5"/>
		<line class="st0" x1="24" y1="61.2" x2="33.8" y2="61.2"/>
	</g>
	<g>
		<rect x="86.1" y="26.2" class="st0" width="11" height="15.5"/>
		<line class="st0" x1="86.7" y1="33.9" x2="96.5" y2="33.9"/>
	</g>
	<g>
		<rect x="23.6" y="26.2" class="st0" width="11" height="15.5"/>
		<line class="st0" x1="24.1" y1="34" x2="33.9" y2="34"/>
	</g>
	<g>
		<rect x="54.9" y="26.2" class="st0" width="11" height="15.5"/>
		<line class="st0" x1="55.4" y1="34" x2="65.2" y2="34"/>
	</g>
	<g>
		<rect x="54.7" y="53.4" class="st0" width="11" height="15.5"/>
		<line class="st0" x1="55.3" y1="61.2" x2="65.1" y2="61.2"/>
	</g>
	<line class="st0" x1="113.1" y1="21.5" x2="113.1" y2="107.9"/>
	<path class="st0" d="M7.6,116.1c-2,0-3.9-1.2-3.9-3.9s3.4-4.9,6-3.6c0.2-1.9,2.9-4.2,5.2-4.2h0.8c2.3,0,5,2.3,5.2,4.2
		c2.6-1.3,6,0.9,6,3.6s-1.9,3.9-3.9,3.9s-11.7,0-13.9,0L7.6,116.1z"/>
	<path class="st0" d="M7.6,116.1c-2,0-3.9-1.2-3.9-3.9s3.4-4.9,6-3.6c0.2-1.9,2.9-4.2,5.2-4.2h0.8c2.3,0,5,2.3,5.2,4.2
		c2.6-1.3,6,0.9,6,3.6s-1.9,3.9-3.9,3.9s-11.7,0-13.9,0L7.6,116.1z"/>
	<path class="st0" d="M97.8,116.2c-2,0-3.9-1.2-3.9-3.9s3.4-4.9,6-3.6c0.2-1.9,2.9-4.2,5.2-4.2h0.8c2.3,0,5,2.3,5.2,4.2
		c2.6-1.3,6,0.9,6,3.6s-1.9,3.9-3.9,3.9s-11.7,0-13.9,0L97.8,116.2z"/>
</g>
</svg>
