<?xml version="1.0" encoding="utf-8"?>
<!-- Generator: Adobe Illustrator 21.1.0, SVG Export Plug-In . SVG Version: 6.00 Build 0)  -->
<svg version="1.1" id="Calque_1" xmlns="http://www.w3.org/2000/svg" xmlns:xlink="http://www.w3.org/1999/xlink" x="0px" y="0px"
	 viewBox="0 0 666 759" style="enable-background:new 0 0 666 759;" xml:space="preserve">
<style type="text/css">
	.st0{fill:none;stroke:url(#SVGID_1_);stroke-width:11;stroke-miterlimit:10;}
	.st1{fill:#456F90;}
	.st2{fill:none;stroke:#FFFFFF;stroke-width:3;stroke-linecap:round;stroke-linejoin:round;stroke-miterlimit:10;}
	.st3{fill:none;stroke:#FFFFFF;stroke-width:3;stroke-linecap:round;stroke-linejoin:round;}
	.st4{fill:none;stroke:#FFFFFF;stroke-width:5;stroke-linecap:round;stroke-linejoin:round;}
	.st5{fill:none;stroke:#FFFFFF;stroke-width:3;stroke-miterlimit:10;}
	.st6{fill:none;stroke:#FFFFFF;stroke-width:3;stroke-linejoin:round;stroke-miterlimit:10;}
</style>
<linearGradient id="SVGID_1_" gradientUnits="userSpaceOnUse" x1="-303.0007" y1="462.1712" x2="445.8395" y2="462.1712" gradientTransform="matrix(6.123234e-17 1 1 -6.123234e-17 -307.2668 307.2668)">
	<stop  offset="0" style="stop-color:#D1DBE4"/>
	<stop  offset="1" style="stop-color:#456F90"/>
</linearGradient>
<path class="st0" d="M209.1,4.3c0,22-8.4,44-25.2,60.7s-38.8,25.2-60.7,25.2H94.1l0,0c-22,0-44,8.4-60.7,25.2S8.2,154,8.2,176
	c0,22,8.4,44,25.2,60.7s38.8,25.2,60.7,25.2s44-8.4,60.7-25.2l0,0c33.5-33.5,87.9-33.5,121.5,0s33.5,87.9,0,121.5
	s-87.9,33.5-121.5,0l0,0c-33.5-33.5-87.9-33.5-121.5,0s-33.5,87.9,0,121.5s87.9,33.5,121.5,0l0.1-0.1c33.5-33.5,87.9-33.5,121.5,0
	s33.5,87.9,0,121.5s-87.9,33.5-121.5,0l0-0.1c-16.8-16.8-38.8-25.2-60.7-25.2s-44,8.4-60.7,25.2S8.3,639.7,8.3,661.7
	c0,22,8.4,44,25.2,60.7s38.8,25.2,60.7,25.2s44-8.4,60.7-25.2"/>
<g>
	<circle class="st1" cx="215" cy="540.6" r="75.8"/>
</g>
<g>
	<circle class="st1" cx="215.8" cy="297.1" r="75.8"/>
</g>
<g>
	<circle class="st1" cx="94.1" cy="176.6" r="75.8"/>
</g>
<g>
	<circle class="st1" cx="93.8" cy="418.6" r="75.8"/>
</g>
<g>
	<circle class="st1" cx="94.2" cy="661.7" r="75.8"/>
</g>
<g id="Group_1_" transform="translate(1660.000000, 581.000000)">
	<path id="Layer-1_1_" class="st2" d="M-1561.9-368.5c22.1,0,39.9-17.9,39.9-39.9c0-22.1-17.9-39.9-39.9-39.9
		c-22.1,0-39.9,17.9-39.9,39.9C-1601.8-386.4-1583.9-368.5-1561.9-368.5L-1561.9-368.5z"/>
	<path id="Layer-2_1_" class="st2" d="M-1561.9-383c14,0,25.4-11.4,25.4-25.4s-11.4-25.4-25.4-25.4c-14,0-25.4,11.4-25.4,25.4
		S-1575.9-383-1561.9-383L-1561.9-383z"/>
	<path id="Layer-3_1_" class="st2" d="M-1561.9-397.5c6,0,10.9-4.9,10.9-10.9c0-6-4.9-10.9-10.9-10.9c-6,0-10.9,4.9-10.9,10.9
		C-1572.8-402.4-1567.9-397.5-1561.9-397.5L-1561.9-397.5z"/>
	<path id="Layer-4_1_" class="st2" d="M-1562.3-407.9l-41.5,41.5"/>
	<polyline id="Layer-5_1_" class="st2" points="-1565.8,-410.4 -1559.8,-410.4 -1559.8,-404.4 	"/>
	<polyline id="Layer-6_1_" class="st2" points="-1609.8,-366.4 -1603.8,-366.4 -1603.8,-360.4 	"/>
</g>
<g>
	<g id="_x34_8.-Home-Copy_1_" transform="translate(1532.000000, 969.000000)">
		<path id="Layer-1_3_" class="st3" d="M-1328.5-709.9c-0.3-0.3-0.9-0.3-1.3,0l-19.6,20.2c-0.9,0.9-0.6,1.7,0.7,1.7h3.6v21.6
			c0,0.5,0.4,0.9,0.9,0.9h30.1c0.5,0,0.9-0.4,0.9-0.9V-688h3.6c1.3,0,1.6-0.8,0.8-1.7l-6-6.6V-707h-6.2v4.4L-1328.5-709.9z"/>
		<polyline id="Layer-2_4_" class="st3" points="-1335.5,-665.5 -1335.5,-685 -1335.5,-685 -1322.5,-685 -1322.5,-665.5 		"/>
	</g>
	<path id="Layer-1_2_" class="st3" d="M203.3,322.9c22.1,0,40-17.9,40-40c0-22.1-17.9-40-40-40c-22.1,0-40,17.9-40,40
		C163.3,305,181.2,322.9,203.3,322.9z"/>
	<path id="Layer-2_3_" class="st3" d="M259.3,338.9l-27.5-27.5"/>
	<path id="Layer-2_2_" class="st4" d="M258.9,338.6L241.2,321"/>
</g>
<g id="paint-roller_2_">
	<path class="st2" d="M223.3,582.3h-11.8c-1.1,0-2-0.9-2-2l0-29.4c0-1.1,0.9-2,2-2h10.8c1.1,0,2,0.9,2,2l0,30.4
		C224.3,581.9,223.8,582.3,223.3,582.3z"/>
	<line class="st2" x1="254" y1="511.8" x2="250.2" y2="511.8"/>
	<path class="st2" d="M185.3,511.8l-5.6,0c-2,0-3.7,1.7-3.7,3.7v16.7c0,2,1.7,3.7,3.7,3.7h33.4c2,0,3.7,1.7,3.7,3.7l0,7.4"/>
	<path class="st2" d="M224.3,582.3h-14.8l0-30.4c0-1.7,1.3-3,3-3h8.8c1.7,0,3,1.3,3,3L224.3,582.3z"/>
	<path class="st2" d="M246.2,524.8l-58.8,0c-2.2,0-4-1.8-4-4l0-18c0-2.2,1.8-4,4-4l58.8,0c2.2,0,4,1.8,4,4v18
		C250.2,523,248.5,524.8,246.2,524.8z"/>
	<line class="st2" x1="215" y1="565.6" x2="218.7" y2="565.6"/>
	<line class="st2" x1="215" y1="558.2" x2="218.7" y2="558.2"/>
	<line class="st2" x1="215" y1="573.1" x2="218.7" y2="573.1"/>
</g>
<g>
	<polyline class="st5" points="45.4,660.2 56.4,660.2 56.4,697.7 45.2,697.7 	"/>
	<path class="st6" d="M63.6,663.4l0.1,31.7l0,0c0,0,28,8.7,28.9,9c1,0.3,3.8,0.9,5.4,0.9s4.2-0.8,4.2-0.8s36.5-12.5,38-13.1
		s3.6-3.1,2.7-7.1c-1.5-5.1-4.6-5.9-6.8-5.4c-2,0.4-26,6.1-27.7,6.1c-0.9,0-2.3,0.2-3.7,0.2c-1.2,0-2.4-0.2-3.2-0.2
		c-1.7,0-17.9-8.9-17.9-8.9s2-0.8,3.8-0.8c1.8,0,5.1,2.2,8,2.2s6.1-2.4,6.1-4.8c0-1.4,0.4-4.2-3-6.7c-3.9-2.8-12-5.2-15.2-5.2
		c-4.3,0-8.3,2.8-10.1,2.8S63.6,663.4,63.6,663.4z"/>
	<circle class="st6" cx="118" cy="635.1" r="16.8"/>
	<circle class="st6" cx="123.6" cy="635.1" r="6.1"/>
	<polygon class="st6" points="96.4,632 96.4,632 88.8,624.7 84.4,628.1 79.3,624.9 74.9,628 71.7,625 64.8,625 54.4,633.4 64,642 
		96.5,642 96.5,636.9 66.5,636.9 65.6,634.5 66.5,632 	"/>
</g>
<g>
	<rect x="84.7" y="369.4" class="st2" width="46.6" height="25.4"/>
	<circle class="st5" cx="55.3" cy="446.1" r="15.6"/>
	<circle class="st5" cx="114.5" cy="445.6" r="15.6"/>
	<line class="st2" x1="70.9" y1="446.3" x2="98.9" y2="446.3"/>
	<line class="st2" x1="114.5" y1="430" x2="114.6" y2="395.8"/>
	<path class="st2" d="M55.3,430c0-17.7,4.2-38.9,28.7-48.4"/>
	<polyline class="st2" points="93,440.9 98.7,446.7 93,452.4 	"/>
	<polyline class="st2" points="61.1,424.1 55.3,429.9 49.5,424.1 	"/>
	<polyline class="st2" points="109.1,401.5 114.8,395.8 120.6,401.6 	"/>
</g>
<g>
	<path class="st1" d="M376.4,143.3v5.8h9.6v1.9h-9.6v5.8h10.7v1.9h-12.7v-17.2h12.7v1.9H376.4z M380.8,137.3h2.8l-2.8,2.7h-1.6
		L380.8,137.3z"/>
	<path class="st1" d="M402.4,143.3h-6v15.3h-2v-15.3h-6v-1.9h14V143.3z"/>
	<path class="st1" d="M418.4,158.7h-2.2l-2.1-5h-8.5l-2.1,5h-2.2l7.3-17.2h2.4L418.4,158.7z M413.4,151.9l-3.5-8.4l-3.5,8.4H413.4z"
		/>
	<path class="st1" d="M422.5,158.7h-1.9v-17.2h7.7c1.8,0,3.3,0.5,4.3,1.5c1.1,1,1.6,2.3,1.6,4c0,1.7-0.5,3-1.6,4
		c-1.1,1-2.5,1.5-4.3,1.5h-5.8V158.7z M422.5,143.3v7.4h5.7c1.4,0,2.4-0.3,3.1-1s1-1.6,1-2.7c0-1.2-0.3-2.1-1-2.7s-1.7-1-3.1-1
		H422.5z"/>
	<path class="st1" d="M438.9,143.3v5.8h9.6v1.9h-9.6v5.8h10.7v1.9h-12.7v-17.2h12.7v1.9H438.9z"/>
	<path class="st1" d="M465.3,141.4v17.2h-1.9v-15.3h-3.6v-1.9H465.3z"/>
	<path class="st1" d="M474.4,145.7v2.7h-2.5v-2.7H474.4z M474.4,156v2.7h-2.5V156H474.4z"/>
	<path class="st1" d="M381.7,172.6c1,0,2,0.2,3,0.6c1,0.4,1.8,1,2.5,1.7c1.6,1.6,2.4,3.8,2.4,6.3c0,2.6-0.8,4.7-2.4,6.3
		c-0.7,0.7-1.6,1.3-2.5,1.7c-1,0.4-1.9,0.6-3,0.6h-7.3v-17.2H381.7z M381.6,188c1.8,0,3.3-0.7,4.4-2c1.1-1.3,1.6-2.9,1.6-4.8
		c0-1.9-0.5-3.5-1.6-4.8c-1.1-1.3-2.6-2-4.4-2h-5.2V188H381.6z"/>
	<path class="st1" d="M398.1,188.3c1.8,0,3-0.7,3.8-2.2h2.1c-0.5,1.2-1.2,2.1-2.1,2.9c-1,0.7-2.2,1.1-3.8,1.1c-2,0-3.6-0.6-4.8-2
		c-1.2-1.3-1.8-2.9-1.8-4.8c0-1.9,0.6-3.5,1.7-4.8c1.2-1.3,2.8-2,4.7-2s3.5,0.6,4.7,2c1.1,1.2,1.7,2.8,1.7,4.8v0.8h-10.9
		c0.1,1.2,0.6,2.2,1.4,3C395.8,187.9,396.8,188.3,398.1,188.3z M397.9,178.4c-1.2,0-2.2,0.4-3,1.1c-0.8,0.7-1.2,1.6-1.4,2.8h8.8
		c-0.2-1.1-0.6-2.1-1.4-2.8C400.2,178.8,399.1,178.4,397.9,178.4z M397.7,172.3h2.8l-2.8,2.7h-1.6L397.7,172.3z"/>
	<path class="st1" d="M412.3,173.3c-0.9,0-1.6,0.2-2.1,0.6c-0.5,0.4-0.7,1.1-0.7,2v1h3v1.7h-3v11.3h-2v-11.3h-2.2v-1.7h2.2v-1.1
		c0-1.4,0.4-2.5,1.3-3.2s2-1.1,3.5-1.1h0.2v1.8H412.3z"/>
	<path class="st1" d="M416.7,172.1v2.5h-2.1v-2.5H416.7z M414.7,176.9h1.9v13h-1.9V176.9z"/>
	<path class="st1" d="M421.9,176.9v2c0.5-0.6,1-1.2,1.7-1.6c0.7-0.4,1.4-0.6,2.3-0.6c0.9,0,1.6,0.1,2.2,0.4c0.6,0.2,1.2,0.6,1.6,1.1
		c1.1,1.1,1.6,2.5,1.6,4.2v7.6h-2v-7.5c0-1.2-0.3-2.1-1-2.9c-0.7-0.7-1.6-1.1-2.6-1.1c-1.1,0-2,0.4-2.8,1.1
		c-0.8,0.7-1.1,1.7-1.1,2.9v7.5H420v-13H421.9z"/>
	<path class="st1" d="M436.7,172.1v2.5h-2.1v-2.5H436.7z M434.7,176.9h1.9v13h-1.9V176.9z"/>
	<path class="st1" d="M446.9,176.7v2h-0.2c-1.4,0-2.5,0.6-3.4,1.7c-0.8,1.1-1.2,2.4-1.2,3.8v5.7H440v-13h1.9v3.2
		c0.4-1.4,1.3-2.3,2.7-3c0.6-0.3,1.3-0.4,2.1-0.4H446.9z"/>
	<path class="st1" d="M456.5,189.9h-1.9v-18.2h1.9V189.9z"/>
	<path class="st1" d="M465.7,188.3c1.8,0,3-0.7,3.8-2.2h2.1c-0.5,1.2-1.2,2.1-2.1,2.9c-1,0.7-2.2,1.1-3.8,1.1c-2,0-3.6-0.6-4.8-2
		c-1.2-1.3-1.8-2.9-1.8-4.8c0-1.9,0.6-3.5,1.7-4.8c1.2-1.3,2.8-2,4.7-2s3.5,0.6,4.7,2c1.1,1.2,1.7,2.8,1.7,4.8v0.8h-10.9
		c0.1,1.2,0.6,2.2,1.4,3C463.3,187.9,464.4,188.3,465.7,188.3z M465.5,178.4c-1.2,0-2.2,0.4-3,1.1c-0.8,0.7-1.2,1.6-1.4,2.8h8.8
		c-0.2-1.1-0.6-2.1-1.4-2.8C467.7,178.8,466.7,178.4,465.5,178.4z"/>
	<path class="st1" d="M482,180.3c-0.2-1.4-1.3-2-3.3-2s-3,0.6-3,1.9c0,0.5,0.2,0.9,0.6,1.2s1,0.5,1.6,0.7c0.6,0.2,1.3,0.3,2.1,0.5
		c0.8,0.1,1.5,0.4,2.1,0.6c0.6,0.3,1.2,0.6,1.6,1.1c0.4,0.5,0.6,1.1,0.6,1.9c0,1.3-0.5,2.2-1.4,2.9c-1,0.7-2.2,1-3.9,1
		c-1.7,0-3.1-0.4-4.1-1.3c-0.9-0.8-1.4-1.8-1.5-3h2c0.1,1.2,0.8,2,2,2.4c0.5,0.1,0.9,0.2,1.3,0.2c0.4,0,0.9,0,1.2-0.1
		c0.4-0.1,0.8-0.1,1.1-0.3c0.8-0.3,1.2-0.9,1.2-1.7c0-0.5-0.2-0.9-0.6-1.2c-0.4-0.3-1-0.5-1.6-0.7c-0.6-0.2-1.3-0.3-2.1-0.5
		c-0.8-0.1-1.5-0.4-2.1-0.6c-0.6-0.3-1.2-0.6-1.6-1.1c-0.4-0.5-0.6-1.1-0.6-1.9c0-1.2,0.4-2.1,1.3-2.7c0.9-0.6,2.1-1,3.8-1
		c1.6,0,2.9,0.4,3.8,1.1c0.8,0.6,1.2,1.5,1.3,2.5H482z"/>
	<path class="st1" d="M498.1,176.7c1.9,0,3.5,0.6,4.7,2c1.1,1.2,1.7,2.8,1.7,4.8s-0.6,3.5-1.7,4.8c-1.2,1.3-2.8,2-4.7,2
		s-3.5-0.6-4.7-2c-1.1-1.2-1.7-2.8-1.7-4.8s0.6-3.5,1.7-4.8C494.6,177.3,496.1,176.7,498.1,176.7z M498.1,188.3
		c1.4,0,2.5-0.5,3.3-1.5c0.8-0.9,1.2-2.1,1.2-3.5s-0.4-2.6-1.2-3.5c-0.8-1-1.9-1.5-3.3-1.5s-2.5,0.5-3.3,1.5
		c-0.8,0.9-1.2,2.1-1.2,3.5s0.4,2.6,1.2,3.5C495.6,187.8,496.7,188.3,498.1,188.3z"/>
	<path class="st1" d="M509,179c1.1-1.5,2.6-2.3,4.7-2.3c1.9,0,3.4,0.6,4.5,2c1.2,1.3,1.7,2.9,1.7,4.8c0,1.9-0.6,3.5-1.7,4.8
		c-1.2,1.3-2.7,2-4.7,2c-2,0-3.5-0.8-4.5-2.3v2.1h-1.9v-18.2h1.9V179z M513.4,188.3c1.4,0,2.5-0.5,3.4-1.5c0.8-0.9,1.2-2.1,1.2-3.5
		s-0.4-2.6-1.2-3.5c-0.9-1-2-1.5-3.4-1.5c-1.4,0-2.5,0.5-3.3,1.5c-0.8,0.9-1.2,2.1-1.2,3.5s0.4,2.6,1.2,3.5
		C510.9,187.8,512,188.3,513.4,188.3z"/>
	<path class="st1" d="M524.6,172.1v2.5h-2.1v-2.5H524.6z M522.5,176.9h1.9V195h-1.9V176.9z"/>
	<path class="st1" d="M533.7,188.3c1.8,0,3-0.7,3.8-2.2h2.1c-0.5,1.2-1.2,2.1-2.1,2.9c-1,0.7-2.2,1.1-3.8,1.1c-2,0-3.6-0.6-4.8-2
		c-1.2-1.3-1.8-2.9-1.8-4.8c0-1.9,0.6-3.5,1.7-4.8c1.2-1.3,2.8-2,4.7-2s3.5,0.6,4.7,2c1.1,1.2,1.7,2.8,1.7,4.8v0.8h-10.9
		c0.1,1.2,0.6,2.2,1.4,3C531.3,187.9,532.4,188.3,533.7,188.3z M533.5,178.4c-1.2,0-2.2,0.4-3,1.1c-0.8,0.7-1.2,1.6-1.4,2.8h8.8
		c-0.2-1.1-0.6-2.1-1.4-2.8C535.7,178.8,534.7,178.4,533.5,178.4z"/>
	<path class="st1" d="M548.4,188.3c0.8,0,1.6-0.2,2.2-0.7c0.6-0.5,1.1-1.1,1.4-1.8h2.1c-0.4,1.3-1.1,2.3-2.2,3.1
		c-1.1,0.8-2.4,1.2-4,1.2c-1.9,0-3.5-0.6-4.7-2c-1.2-1.3-1.7-2.9-1.7-4.8s0.6-3.5,1.7-4.8c1.2-1.3,2.7-2,4.7-2c1.5,0,2.8,0.4,4,1.2
		c1.1,0.8,1.8,1.8,2.2,3.1H552c-0.3-0.7-0.8-1.4-1.4-1.8c-0.6-0.5-1.4-0.7-2.2-0.7s-1.5,0.1-2.1,0.4c-0.6,0.3-1.1,0.6-1.5,1.1
		c-0.8,0.9-1.3,2.1-1.3,3.5s0.4,2.5,1.3,3.5C545.6,187.8,546.8,188.3,548.4,188.3z"/>
	<path class="st1" d="M557.9,189.9v-11.3h-2.7v-1.7h2.7v-4.7h2v4.7h3v1.7h-3v11.3H557.9z"/>
	<path class="st1" d="M567,172.1v2.5h-2.1v-2.5H567z M565,176.9h1.9v13H565V176.9z"/>
	<path class="st1" d="M575.9,173.3c-0.9,0-1.6,0.2-2.1,0.6c-0.5,0.4-0.7,1.1-0.7,2v1h3v1.7h-3v11.3h-2v-11.3h-2.2v-1.7h2.2v-1.1
		c0-1.4,0.4-2.5,1.3-3.2s2-1.1,3.5-1.1h0.2v1.8H575.9z"/>
</g>
<g>
	<path class="st1" d="M375.4,622.3v5.8h9.6v1.9h-9.6v5.8h10.7v1.9h-12.7v-17.2h12.7v1.9H375.4z M379.8,616.3h2.8l-2.8,2.7h-1.6
		L379.8,616.3z"/>
	<path class="st1" d="M401.4,622.3h-6v15.3h-2v-15.3h-6v-1.9h14V622.3z"/>
	<path class="st1" d="M417.4,637.7h-2.2l-2.1-5h-8.5l-2.1,5h-2.2l7.3-17.2h2.4L417.4,637.7z M412.4,630.9l-3.5-8.4l-3.5,8.4H412.4z"
		/>
	<path class="st1" d="M421.5,637.7h-1.9v-17.2h7.7c1.8,0,3.3,0.5,4.3,1.5c1.1,1,1.6,2.3,1.6,4c0,1.7-0.5,3-1.6,4
		c-1.1,1-2.5,1.5-4.3,1.5h-5.8V637.7z M421.5,622.3v7.4h5.7c1.4,0,2.4-0.3,3.1-1c0.7-0.7,1-1.6,1-2.7c0-1.2-0.3-2.1-1-2.7
		c-0.7-0.7-1.7-1-3.1-1H421.5z"/>
	<path class="st1" d="M437.9,622.3v5.8h9.6v1.9h-9.6v5.8h10.7v1.9h-12.7v-17.2h12.7v1.9H437.9z"/>
	<path class="st1" d="M459.4,627.3c0.9-0.5,1.8-0.8,2.8-0.8s1.9,0.1,2.6,0.4c0.7,0.3,1.3,0.7,1.8,1.2c1.1,1,1.6,2.4,1.6,4.1
		c0,1.6-0.6,2.9-1.7,4.1c-1.1,1.1-2.5,1.7-4.1,1.7c-2,0-3.5-0.5-4.6-1.6c-0.8-0.8-1.3-1.8-1.6-2.9h2c0.4,1.2,1.2,2,2.4,2.4
		c0.5,0.2,1,0.2,1.6,0.2s1.2-0.1,1.6-0.3s0.9-0.5,1.2-0.8c0.7-0.7,1.1-1.6,1.1-2.7c0-1.1-0.4-2-1.1-2.8c-0.7-0.7-1.6-1.1-2.8-1.1
		c-0.8,0-1.5,0.1-2.1,0.4c-0.6,0.3-1,0.6-1.3,0.9l-1.8-1.1l1.2-8.2h9v1.9h-7.2L459.4,627.3z"/>
	<path class="st1" d="M473.4,624.7v2.7h-2.5v-2.7H473.4z M473.4,635v2.7h-2.5V635H473.4z"/>
	<path class="st1" d="M390.2,651.6v17.2h-1.9v-14.2l-6.4,8.2l-6.5-8.2v14.2h-1.9v-17.2h2.3l6.2,8.2l6.1-8.2H390.2z"/>
	<path class="st1" d="M395.9,651.1v2.5h-2.1v-2.5H395.9z M393.8,655.9h1.9v13h-1.9V655.9z"/>
	<path class="st1" d="M406.8,659.3c-0.2-1.4-1.3-2-3.3-2s-3,0.6-3,1.9c0,0.5,0.2,0.9,0.6,1.2s1,0.5,1.6,0.7c0.6,0.2,1.3,0.3,2.1,0.5
		c0.8,0.1,1.5,0.4,2.1,0.6c0.6,0.3,1.2,0.6,1.6,1.1c0.4,0.5,0.6,1.1,0.6,1.9c0,1.3-0.5,2.2-1.4,2.9c-1,0.7-2.2,1-3.9,1
		c-1.7,0-3.1-0.4-4.1-1.3c-0.9-0.8-1.4-1.8-1.5-3h2c0.1,1.2,0.8,2,2,2.4c0.5,0.1,0.9,0.2,1.3,0.2c0.4,0,0.9,0,1.2-0.1
		c0.4-0.1,0.8-0.1,1.1-0.3c0.8-0.3,1.2-0.9,1.2-1.7c0-0.5-0.2-0.9-0.6-1.2c-0.4-0.3-1-0.5-1.6-0.7c-0.6-0.2-1.3-0.3-2.1-0.5
		s-1.5-0.4-2.1-0.6c-0.6-0.3-1.2-0.6-1.6-1.1c-0.4-0.5-0.6-1.1-0.6-1.9c0-1.2,0.4-2.1,1.3-2.7c0.9-0.7,2.1-1,3.8-1
		c1.6,0,2.9,0.4,3.8,1.1c0.8,0.6,1.2,1.5,1.3,2.5H406.8z"/>
	<path class="st1" d="M417.5,667.3c1.8,0,3-0.7,3.8-2.2h2.1c-0.5,1.2-1.2,2.1-2.1,2.9c-1,0.7-2.2,1.1-3.8,1.1c-2,0-3.6-0.6-4.8-2
		c-1.2-1.3-1.8-2.9-1.8-4.8c0-1.9,0.6-3.5,1.7-4.8c1.2-1.3,2.8-2,4.7-2s3.5,0.7,4.7,2c1.1,1.2,1.7,2.8,1.7,4.8v0.8h-10.9
		c0.1,1.2,0.6,2.2,1.4,3C415.1,666.9,416.2,667.3,417.5,667.3z M417.3,657.4c-1.2,0-2.2,0.4-3,1.1c-0.8,0.7-1.2,1.6-1.4,2.8h8.8
		c-0.2-1.1-0.6-2.1-1.4-2.8C419.5,657.8,418.5,657.4,417.3,657.4z"/>
	<path class="st1" d="M437.5,667.3c1.8,0,3-0.7,3.8-2.2h2.1c-0.5,1.2-1.2,2.1-2.1,2.9c-1,0.7-2.2,1.1-3.8,1.1c-2,0-3.6-0.6-4.8-2
		c-1.2-1.3-1.8-2.9-1.8-4.8c0-1.9,0.6-3.5,1.7-4.8c1.2-1.3,2.8-2,4.7-2s3.5,0.7,4.7,2c1.1,1.2,1.7,2.8,1.7,4.8v0.8h-10.9
		c0.1,1.2,0.6,2.2,1.4,3C435.2,666.9,436.2,667.3,437.5,667.3z M437.4,657.4c-1.2,0-2.2,0.4-3,1.1c-0.8,0.7-1.2,1.6-1.4,2.8h8.8
		c-0.2-1.1-0.6-2.1-1.4-2.8C439.6,657.8,438.5,657.4,437.4,657.4z"/>
	<path class="st1" d="M448.1,655.9v2c0.5-0.6,1-1.2,1.7-1.6c0.7-0.4,1.4-0.7,2.3-0.7c0.9,0,1.6,0.1,2.2,0.4c0.6,0.2,1.2,0.6,1.6,1.1
		c1.1,1.1,1.6,2.5,1.6,4.2v7.6h-2v-7.5c0-1.2-0.3-2.1-1-2.9c-0.7-0.7-1.6-1.1-2.6-1.1c-1.1,0-2,0.4-2.8,1.1
		c-0.8,0.7-1.1,1.7-1.1,2.9v7.5h-1.9v-13H448.1z"/>
	<path class="st1" d="M468.4,668.9h-1.9v-18.2h1.9V668.9z"/>
	<path class="st1" d="M477.4,655.7c1.9,0,3.5,0.7,4.7,2c1.1,1.2,1.7,2.8,1.7,4.8s-0.6,3.5-1.7,4.8c-1.2,1.3-2.8,2-4.7,2
		s-3.5-0.6-4.7-2c-1.1-1.2-1.7-2.8-1.7-4.8s0.6-3.5,1.7-4.8C473.9,656.3,475.5,655.7,477.4,655.7z M477.4,667.3
		c1.4,0,2.5-0.5,3.3-1.5c0.8-0.9,1.2-2.1,1.2-3.5c0-1.4-0.4-2.6-1.2-3.5c-0.8-1-1.9-1.5-3.3-1.5s-2.5,0.5-3.3,1.5
		c-0.8,0.9-1.2,2.1-1.2,3.5c0,1.4,0.4,2.6,1.2,3.5C474.9,666.8,476,667.3,477.4,667.3z"/>
	<path class="st1" d="M492.4,667.3c0.8,0,1.6-0.2,2.2-0.7c0.6-0.5,1.1-1.1,1.4-1.8h2.1c-0.4,1.3-1.1,2.3-2.2,3.1
		c-1.1,0.8-2.4,1.2-4,1.2c-1.9,0-3.5-0.6-4.7-2c-1.2-1.3-1.7-2.9-1.7-4.8c0-1.9,0.6-3.5,1.7-4.8c1.2-1.3,2.7-2,4.7-2
		c1.5,0,2.8,0.4,4,1.2c1.1,0.8,1.8,1.8,2.2,3.1h-2.1c-0.3-0.7-0.8-1.4-1.4-1.8c-0.6-0.5-1.4-0.7-2.2-0.7s-1.5,0.1-2.1,0.4
		c-0.6,0.3-1.1,0.6-1.5,1.1c-0.8,0.9-1.3,2.1-1.3,3.5s0.4,2.5,1.3,3.5C489.7,666.8,490.9,667.3,492.4,667.3z"/>
	<path class="st1" d="M510.7,666.8c-1,1.5-2.6,2.3-4.7,2.3c-1.9,0-3.4-0.6-4.6-2c-1.1-1.3-1.7-2.9-1.7-4.8c0-1.9,0.6-3.5,1.7-4.8
		c1.2-1.3,2.7-2,4.7-2s3.5,0.8,4.5,2.3v-2.1h2v13h-2V666.8z M506.3,667.3c1.4,0,2.5-0.5,3.3-1.5c0.8-0.9,1.2-2.1,1.2-3.5
		c0-1.4-0.4-2.6-1.2-3.5c-0.8-1-1.9-1.5-3.3-1.5c-1.4,0-2.5,0.5-3.4,1.5c-0.8,0.9-1.2,2.1-1.2,3.5c0,1.4,0.4,2.6,1.2,3.5
		C503.8,666.8,504.9,667.3,506.3,667.3z"/>
	<path class="st1" d="M517.5,668.9v-11.3h-2.7v-1.7h2.7v-4.7h2v4.7h3v1.7h-3v11.3H517.5z"/>
	<path class="st1" d="M526.6,651.1v2.5h-2.1v-2.5H526.6z M524.5,655.9h1.9v13h-1.9V655.9z"/>
	<path class="st1" d="M535.5,655.7c1.9,0,3.5,0.7,4.7,2c1.1,1.2,1.7,2.8,1.7,4.8s-0.6,3.5-1.7,4.8c-1.2,1.3-2.8,2-4.7,2
		s-3.5-0.6-4.7-2c-1.1-1.2-1.7-2.8-1.7-4.8s0.6-3.5,1.7-4.8C532,656.3,533.6,655.7,535.5,655.7z M535.5,667.3c1.4,0,2.5-0.5,3.3-1.5
		c0.8-0.9,1.2-2.1,1.2-3.5c0-1.4-0.4-2.6-1.2-3.5c-0.8-1-1.9-1.5-3.3-1.5s-2.5,0.5-3.3,1.5c-0.8,0.9-1.2,2.1-1.2,3.5
		c0,1.4,0.4,2.6,1.2,3.5C533,666.8,534.1,667.3,535.5,667.3z"/>
	<path class="st1" d="M546.5,655.9v2c0.5-0.6,1-1.2,1.7-1.6c0.7-0.4,1.4-0.7,2.3-0.7c0.9,0,1.6,0.1,2.2,0.4c0.6,0.2,1.2,0.6,1.6,1.1
		c1.1,1.1,1.6,2.5,1.6,4.2v7.6h-2v-7.5c0-1.2-0.3-2.1-1-2.9c-0.7-0.7-1.6-1.1-2.6-1.1c-1.1,0-2,0.4-2.8,1.1
		c-0.8,0.7-1.1,1.7-1.1,2.9v7.5h-1.9v-13H546.5z"/>
	<path class="st1" d="M378.8,698.5c1.8,0,3-0.7,3.8-2.2h2.1c-0.5,1.2-1.2,2.1-2.1,2.9c-1,0.7-2.2,1.1-3.8,1.1c-2,0-3.6-0.7-4.8-2
		c-1.2-1.3-1.8-2.9-1.8-4.8c0-1.9,0.6-3.5,1.7-4.8c1.2-1.3,2.8-2,4.7-2s3.5,0.6,4.7,2c1.1,1.2,1.7,2.8,1.7,4.8v0.8h-10.9
		c0.1,1.2,0.6,2.2,1.4,3C376.5,698.1,377.5,698.5,378.8,698.5z M378.6,688.6c-1.2,0-2.2,0.4-3,1.1c-0.8,0.7-1.2,1.6-1.4,2.8h8.8
		c-0.2-1.1-0.6-2.1-1.4-2.8C380.8,689,379.8,688.6,378.6,688.6z"/>
	<path class="st1" d="M388.7,700.1v-11.3h-2.7v-1.7h2.7v-4.7h2v4.7h3v1.7h-3v11.3H388.7z"/>
	<path class="st1" d="M411.5,689.1v-2.1h2v12.6c0,1.9-0.5,3.3-1.6,4.3c-1.1,1-2.5,1.5-4.3,1.5s-3.2-0.3-4.2-1
		c-1-0.7-1.7-1.6-2.1-2.8h2.2c0.6,1.4,1.8,2,3.8,2c1.5,0,2.6-0.3,3.3-1c0.7-0.7,1-1.7,1-3.1v-1.8c-1.1,1.5-2.6,2.3-4.7,2.3
		c-1.9,0-3.4-0.6-4.6-1.9c-1.1-1.2-1.7-2.8-1.7-4.7s0.6-3.4,1.7-4.7c1.2-1.3,2.8-1.9,4.7-1.9C408.9,686.9,410.4,687.6,411.5,689.1z
		 M407.1,698.3c0.7,0,1.3-0.1,1.9-0.4c0.6-0.3,1-0.6,1.4-1c0.8-0.9,1.2-2,1.2-3.4s-0.4-2.5-1.2-3.4c-0.8-0.9-2-1.4-3.3-1.4
		c-1.4,0-2.5,0.5-3.4,1.4c-0.8,0.9-1.2,2.1-1.2,3.4c0,1.4,0.4,2.5,1.2,3.4C404.6,697.8,405.7,698.3,407.1,698.3z"/>
	<path class="st1" d="M422.6,698.5c1.8,0,3-0.7,3.8-2.2h2.1c-0.5,1.2-1.2,2.1-2.1,2.9c-1,0.7-2.2,1.1-3.8,1.1c-2,0-3.6-0.7-4.8-2
		c-1.2-1.3-1.8-2.9-1.8-4.8c0-1.9,0.6-3.5,1.7-4.8c1.2-1.3,2.8-2,4.7-2s3.5,0.6,4.7,2c1.1,1.2,1.7,2.8,1.7,4.8v0.8H418
		c0.1,1.2,0.6,2.2,1.4,3C420.3,698.1,421.3,698.5,422.6,698.5z M422.5,688.6c-1.2,0-2.2,0.4-3,1.1c-0.8,0.7-1.2,1.6-1.4,2.8h8.8
		c-0.2-1.1-0.6-2.1-1.4-2.8C424.7,689,423.7,688.6,422.5,688.6z"/>
	<path class="st1" d="M438.9,690.5c-0.2-1.4-1.3-2-3.3-2s-3,0.6-3,1.9c0,0.5,0.2,0.9,0.6,1.2s1,0.5,1.6,0.7c0.6,0.2,1.3,0.3,2.1,0.5
		c0.8,0.1,1.5,0.4,2.1,0.6c0.6,0.3,1.2,0.6,1.6,1.1s0.6,1.1,0.6,1.9c0,1.3-0.5,2.2-1.4,2.9s-2.2,1-3.9,1c-1.7,0-3.1-0.4-4.1-1.3
		c-0.9-0.8-1.4-1.8-1.5-3h2c0.1,1.2,0.8,2,2,2.4c0.5,0.1,0.9,0.2,1.3,0.2c0.4,0,0.9,0,1.2-0.1c0.4-0.1,0.8-0.1,1.1-0.3
		c0.8-0.3,1.2-0.9,1.2-1.7c0-0.5-0.2-0.9-0.6-1.2s-1-0.5-1.6-0.7c-0.6-0.2-1.3-0.3-2.1-0.5c-0.8-0.1-1.5-0.4-2.1-0.6
		c-0.6-0.3-1.2-0.6-1.6-1.1c-0.4-0.5-0.6-1.1-0.6-1.9c0-1.2,0.4-2.1,1.3-2.7c0.9-0.6,2.1-1,3.8-1c1.6,0,2.9,0.4,3.8,1.1
		c0.8,0.6,1.2,1.5,1.3,2.5H438.9z"/>
	<path class="st1" d="M445.2,700.1v-11.3h-2.7v-1.7h2.7v-4.7h2v4.7h3v1.7h-3v11.3H445.2z"/>
	<path class="st1" d="M454.3,682.3v2.5h-2.1v-2.5H454.3z M452.3,687.1h1.9v13h-1.9V687.1z"/>
	<path class="st1" d="M463.3,686.9c1.9,0,3.5,0.6,4.7,2c1.1,1.2,1.7,2.8,1.7,4.8s-0.6,3.5-1.7,4.8c-1.2,1.3-2.8,2-4.7,2
		s-3.5-0.7-4.7-2c-1.1-1.2-1.7-2.8-1.7-4.8s0.6-3.5,1.7-4.8C459.8,687.5,461.3,686.9,463.3,686.9z M463.3,698.5
		c1.4,0,2.5-0.5,3.3-1.5c0.8-0.9,1.2-2.1,1.2-3.5c0-1.4-0.4-2.6-1.2-3.5c-0.8-1-1.9-1.5-3.3-1.5s-2.5,0.5-3.3,1.5
		c-0.8,0.9-1.2,2.1-1.2,3.5c0,1.4,0.4,2.6,1.2,3.5C460.8,698,461.9,698.5,463.3,698.5z"/>
	<path class="st1" d="M474.2,687.1v2c0.5-0.6,1-1.2,1.7-1.6c0.7-0.4,1.4-0.6,2.3-0.6c0.9,0,1.6,0.1,2.2,0.4c0.6,0.2,1.2,0.6,1.6,1.1
		c1.1,1.1,1.6,2.5,1.6,4.2v7.6h-2v-7.5c0-1.2-0.3-2.1-1-2.9c-0.7-0.7-1.6-1.1-2.6-1.1c-1.1,0-2,0.4-2.8,1.1
		c-0.8,0.7-1.1,1.7-1.1,2.9v7.5h-1.9v-13H474.2z"/>
</g>
<g>
	<path class="st1" d="M375.4,252.3v5.8h9.6v1.9h-9.6v5.8h10.7v1.9h-12.7v-17.2h12.7v1.9H375.4z M379.8,246.3h2.8l-2.8,2.7h-1.6
		L379.8,246.3z"/>
	<path class="st1" d="M401.4,252.3h-6v15.4h-2v-15.4h-6v-1.9h14V252.3z"/>
	<path class="st1" d="M417.4,267.7h-2.2l-2.1-5h-8.5l-2.1,5h-2.2l7.3-17.2h2.4L417.4,267.7z M412.4,260.9l-3.5-8.4l-3.5,8.4H412.4z"
		/>
	<path class="st1" d="M421.5,267.7h-1.9v-17.2h7.7c1.8,0,3.3,0.5,4.3,1.5c1.1,1,1.6,2.4,1.6,4c0,1.7-0.5,3.1-1.6,4
		c-1.1,1-2.5,1.5-4.3,1.5h-5.8V267.7z M421.5,252.3v7.4h5.7c1.4,0,2.4-0.3,3.1-1c0.7-0.7,1-1.6,1-2.7c0-1.2-0.3-2.1-1-2.7
		s-1.7-1-3.1-1H421.5z"/>
	<path class="st1" d="M437.9,252.3v5.8h9.6v1.9h-9.6v5.8h10.7v1.9h-12.7v-17.2h12.7v1.9H437.9z"/>
	<path class="st1" d="M468.1,255.4c0,0.7-0.2,1.5-0.7,2.2c-0.4,0.7-1,1.3-1.7,2s-1.4,1.2-2.2,1.7c-0.8,0.5-1.5,1.1-2.2,1.6
		s-1.3,1-1.8,1.5c-0.5,0.5-0.7,1-0.8,1.5h9.3v1.9h-11.6v-1.1c0-0.9,0.2-1.6,0.7-2.3c0.5-0.7,1.1-1.4,1.8-2c0.7-0.6,1.5-1.2,2.3-1.7
		c0.8-0.5,1.6-1.1,2.3-1.7c0.7-0.6,1.3-1.1,1.8-1.7c0.5-0.6,0.7-1.2,0.7-1.8c0-1-0.3-1.8-1-2.4c-0.7-0.6-1.6-0.9-2.8-0.9
		c-1.2,0-2.2,0.3-2.9,0.8c-0.7,0.5-1.1,1.3-1.3,2.2h-2c0.1-1.5,0.8-2.6,1.9-3.5s2.5-1.4,4.1-1.4c1.8,0,3.3,0.5,4.3,1.5
		C467.6,252.6,468.1,253.9,468.1,255.4z"/>
	<path class="st1" d="M473.4,254.7v2.7h-2.5v-2.7H473.4z M473.4,265v2.7h-2.5V265H473.4z"/>
	<path class="st1" d="M375.4,299h-1.9v-17.2h8.2c1.8,0,3.2,0.5,4.2,1.5c1.1,1,1.6,2.3,1.6,3.9c0,2.2-0.9,3.6-2.7,4.4
		c-0.5,0.2-1,0.4-1.5,0.5l4.5,7h-2.3l-4.2-6.6h-6V299z M375.4,290.5h6c1.8,0,3.1-0.6,3.8-1.7c0.3-0.4,0.4-1,0.4-1.7
		c0-1.1-0.4-2-1.1-2.6s-1.7-1-3-1h-6.1V290.5z"/>
	<path class="st1" d="M395.9,297.4c1.8,0,3-0.7,3.8-2.2h2.1c-0.5,1.2-1.2,2.1-2.1,2.9c-1,0.7-2.2,1.1-3.8,1.1c-2,0-3.6-0.7-4.8-2
		c-1.2-1.3-1.8-2.9-1.8-4.8c0-1.9,0.6-3.5,1.7-4.8c1.2-1.3,2.8-2,4.7-2s3.5,0.7,4.7,2c1.1,1.2,1.7,2.8,1.7,4.8v0.8h-10.9
		c0.1,1.2,0.6,2.2,1.4,3C393.5,297,394.6,297.4,395.9,297.4z M395.7,287.5c-1.2,0-2.2,0.4-3,1.1c-0.8,0.7-1.2,1.6-1.4,2.8h8.8
		c-0.2-1.1-0.6-2.1-1.4-2.8C397.9,287.9,396.9,287.5,395.7,287.5z"/>
	<path class="st1" d="M410.6,297.4c0.8,0,1.6-0.2,2.2-0.7c0.6-0.5,1.1-1.1,1.4-1.8h2.1c-0.4,1.3-1.1,2.3-2.2,3.1
		c-1.1,0.8-2.4,1.2-4,1.2c-1.9,0-3.5-0.7-4.7-2c-1.2-1.3-1.7-2.9-1.7-4.8c0-1.9,0.6-3.5,1.7-4.8c1.2-1.3,2.7-2,4.7-2
		c1.5,0,2.8,0.4,4,1.2c1.1,0.8,1.8,1.8,2.2,3.1h-2.1c-0.3-0.7-0.8-1.4-1.4-1.8c-0.6-0.5-1.4-0.7-2.2-0.7s-1.5,0.1-2.1,0.4
		c-0.6,0.3-1.1,0.6-1.5,1.1c-0.8,0.9-1.3,2.1-1.3,3.5c0,1.4,0.4,2.6,1.3,3.5C407.9,296.9,409,297.4,410.6,297.4z"/>
	<path class="st1" d="M420.7,280.7v7.2c0.5-0.6,1-1.2,1.7-1.6c0.7-0.4,1.4-0.7,2.3-0.7c0.9,0,1.6,0.1,2.2,0.4s1.2,0.6,1.6,1.1
		c1.1,1.1,1.6,2.5,1.6,4.2v7.6h-2v-7.5c0-1.2-0.3-2.2-1-2.9c-0.7-0.7-1.6-1.1-2.6-1.1c-1.1,0-2,0.4-2.8,1.1
		c-0.8,0.7-1.1,1.7-1.1,2.9v7.5h-1.9v-18.2H420.7z"/>
	<path class="st1" d="M439.2,297.4c1.8,0,3-0.7,3.8-2.2h2.1c-0.5,1.2-1.2,2.1-2.1,2.9c-1,0.7-2.2,1.1-3.8,1.1c-2,0-3.6-0.7-4.8-2
		c-1.2-1.3-1.8-2.9-1.8-4.8c0-1.9,0.6-3.5,1.7-4.8c1.2-1.3,2.8-2,4.7-2s3.5,0.7,4.7,2c1.1,1.2,1.7,2.8,1.7,4.8v0.8h-10.9
		c0.1,1.2,0.6,2.2,1.4,3C436.9,297,437.9,297.4,439.2,297.4z M439.1,287.5c-1.2,0-2.2,0.4-3,1.1c-0.8,0.7-1.2,1.6-1.4,2.8h8.8
		c-0.2-1.1-0.6-2.1-1.4-2.8C441.3,287.9,440.3,287.5,439.1,287.5z"/>
	<path class="st1" d="M454.8,285.7v2h-0.2c-1.4,0-2.5,0.6-3.4,1.7c-0.8,1.1-1.2,2.4-1.2,3.9v5.7h-1.9v-13h1.9v3.2
		c0.4-1.4,1.3-2.4,2.7-3c0.6-0.3,1.3-0.4,2.1-0.4H454.8z"/>
	<path class="st1" d="M462.5,297.4c0.8,0,1.6-0.2,2.2-0.7c0.6-0.5,1.1-1.1,1.4-1.8h2.1c-0.4,1.3-1.1,2.3-2.2,3.1
		c-1.1,0.8-2.4,1.2-4,1.2c-1.9,0-3.5-0.7-4.7-2c-1.2-1.3-1.7-2.9-1.7-4.8c0-1.9,0.6-3.5,1.7-4.8c1.2-1.3,2.7-2,4.7-2
		c1.5,0,2.8,0.4,4,1.2c1.1,0.8,1.8,1.8,2.2,3.1h-2.1c-0.3-0.7-0.8-1.4-1.4-1.8c-0.6-0.5-1.4-0.7-2.2-0.7s-1.5,0.1-2.1,0.4
		c-0.6,0.3-1.1,0.6-1.5,1.1c-0.8,0.9-1.3,2.1-1.3,3.5c0,1.4,0.4,2.6,1.3,3.5C459.8,296.9,461,297.4,462.5,297.4z"/>
	<path class="st1" d="M472.6,280.7v7.2c0.5-0.6,1-1.2,1.7-1.6c0.7-0.4,1.4-0.7,2.3-0.7c0.9,0,1.6,0.1,2.2,0.4s1.2,0.6,1.6,1.1
		c1.1,1.1,1.6,2.5,1.6,4.2v7.6h-2v-7.5c0-1.2-0.3-2.2-1-2.9c-0.7-0.7-1.6-1.1-2.6-1.1c-1.1,0-2,0.4-2.8,1.1
		c-0.8,0.7-1.1,1.7-1.1,2.9v7.5h-1.9v-18.2H472.6z"/>
	<path class="st1" d="M491.2,297.4c1.8,0,3-0.7,3.8-2.2h2.1c-0.5,1.2-1.2,2.1-2.1,2.9c-1,0.7-2.2,1.1-3.8,1.1c-2,0-3.6-0.7-4.8-2
		c-1.2-1.3-1.8-2.9-1.8-4.8c0-1.9,0.6-3.5,1.7-4.8c1.2-1.3,2.8-2,4.7-2s3.5,0.7,4.7,2c1.1,1.2,1.7,2.8,1.7,4.8v0.8h-10.9
		c0.1,1.2,0.6,2.2,1.4,3C488.9,297,489.9,297.4,491.2,297.4z M491,287.5c-1.2,0-2.2,0.4-3,1.1c-0.8,0.7-1.2,1.6-1.4,2.8h8.8
		c-0.2-1.1-0.6-2.1-1.4-2.8C493.2,287.9,492.2,287.5,491,287.5z"/>
	<path class="st1" d="M383.1,328.1c-1,1.5-2.6,2.3-4.7,2.3c-1.9,0-3.4-0.7-4.6-2c-1.1-1.3-1.7-2.9-1.7-4.8c0-1.9,0.6-3.5,1.7-4.8
		c1.2-1.3,2.7-2,4.7-2s3.5,0.8,4.5,2.3V312h2v18.2h-2V328.1z M378.7,328.6c1.4,0,2.5-0.5,3.3-1.5c0.8-0.9,1.2-2.1,1.2-3.5
		c0-1.4-0.4-2.6-1.2-3.5c-0.8-1-1.9-1.5-3.3-1.5c-1.4,0-2.5,0.5-3.4,1.5c-0.8,0.9-1.2,2.1-1.2,3.5c0,1.4,0.4,2.6,1.2,3.5
		C376.2,328.2,377.4,328.6,378.7,328.6z"/>
	<path class="st1" d="M389.3,312.3h2.5l-2.3,5.5h-1.8L389.3,312.3z"/>
	<path class="st1" d="M403.3,330.2v-2c-0.5,0.6-1,1.2-1.7,1.6c-0.7,0.4-1.4,0.7-2.3,0.7c-0.9,0-1.6-0.1-2.2-0.4s-1.2-0.6-1.6-1.1
		c-1.1-1.1-1.6-2.5-1.6-4.2v-7.6h2v7.5c0,1.2,0.3,2.2,1,2.9c0.7,0.7,1.6,1.1,2.6,1.1c1.1,0,2-0.4,2.8-1.1c0.8-0.7,1.1-1.7,1.1-2.9
		v-7.5h2v13H403.3z"/>
	<path class="st1" d="M410.6,317.2v2c0.5-0.6,1-1.2,1.7-1.6c0.7-0.4,1.4-0.7,2.3-0.7c0.9,0,1.6,0.1,2.2,0.4s1.2,0.6,1.6,1.1
		c1.1,1.1,1.6,2.5,1.6,4.2v7.6h-2v-7.5c0-1.2-0.3-2.2-1-2.9c-0.7-0.7-1.6-1.1-2.6-1.1c-1.1,0-2,0.4-2.8,1.1
		c-0.8,0.7-1.1,1.7-1.1,2.9v7.5h-1.9v-13H410.6z"/>
	<path class="st1" d="M429.2,328.6c1.8,0,3-0.7,3.8-2.2h2.1c-0.5,1.2-1.2,2.1-2.1,2.9c-1,0.7-2.2,1.1-3.8,1.1c-2,0-3.6-0.7-4.8-2
		c-1.2-1.3-1.8-2.9-1.8-4.8c0-1.9,0.6-3.5,1.7-4.8c1.2-1.3,2.8-2,4.7-2s3.5,0.7,4.7,2c1.1,1.2,1.7,2.8,1.7,4.8v0.8h-10.9
		c0.1,1.2,0.6,2.2,1.4,3C426.8,328.2,427.9,328.6,429.2,328.6z M429,318.7c-1.2,0-2.2,0.4-3,1.1c-0.8,0.7-1.2,1.6-1.4,2.8h8.8
		c-0.2-1.1-0.6-2.1-1.4-2.8C431.2,319.1,430.2,318.7,429,318.7z"/>
	<path class="st1" d="M449.1,317c1.9,0,3.5,0.7,4.7,2c1.1,1.2,1.7,2.8,1.7,4.8s-0.6,3.5-1.7,4.8c-1.2,1.3-2.8,2-4.7,2
		s-3.5-0.7-4.7-2c-1.1-1.2-1.7-2.8-1.7-4.8s0.6-3.5,1.7-4.8C445.5,317.6,447.1,317,449.1,317z M449.1,328.6c1.4,0,2.5-0.5,3.3-1.5
		c0.8-0.9,1.2-2.1,1.2-3.5c0-1.4-0.4-2.6-1.2-3.5c-0.8-1-1.9-1.5-3.3-1.5s-2.5,0.5-3.3,1.5c-0.8,0.9-1.2,2.1-1.2,3.5
		c0,1.4,0.4,2.6,1.2,3.5C446.5,328.2,447.6,328.6,449.1,328.6z"/>
	<path class="st1" d="M460,319.3c1-1.5,2.6-2.3,4.7-2.3c1.9,0,3.4,0.7,4.5,2c1.2,1.3,1.7,2.9,1.7,4.8c0,1.9-0.6,3.5-1.7,4.8
		c-1.2,1.3-2.7,2-4.7,2c-2,0-3.5-0.8-4.5-2.3v7.3h-1.9v-18.2h1.9V319.3z M464.4,318.7c-1.4,0-2.5,0.5-3.3,1.5
		c-0.8,0.9-1.2,2.1-1.2,3.5c0,1.4,0.4,2.6,1.2,3.5c0.8,1,1.9,1.5,3.3,1.5c1.4,0,2.5-0.5,3.4-1.5c0.8-0.9,1.2-2.1,1.2-3.5
		c0-1.4-0.4-2.6-1.2-3.5C466.9,319.2,465.8,318.7,464.4,318.7z"/>
	<path class="st1" d="M475.5,319.3c1-1.5,2.6-2.3,4.7-2.3c1.9,0,3.4,0.7,4.5,2c1.2,1.3,1.7,2.9,1.7,4.8c0,1.9-0.6,3.5-1.7,4.8
		c-1.2,1.3-2.7,2-4.7,2c-2,0-3.5-0.8-4.5-2.3v7.3h-1.9v-18.2h1.9V319.3z M479.9,318.7c-1.4,0-2.5,0.5-3.3,1.5
		c-0.8,0.9-1.2,2.1-1.2,3.5c0,1.4,0.4,2.6,1.2,3.5c0.8,1,1.9,1.5,3.3,1.5c1.4,0,2.5-0.5,3.4-1.5c0.8-0.9,1.2-2.1,1.2-3.5
		c0-1.4-0.4-2.6-1.2-3.5C482.4,319.2,481.2,318.7,479.9,318.7z"/>
	<path class="st1" d="M494.6,317c1.9,0,3.5,0.7,4.7,2c1.1,1.2,1.7,2.8,1.7,4.8s-0.6,3.5-1.7,4.8c-1.2,1.3-2.8,2-4.7,2
		s-3.5-0.7-4.7-2c-1.1-1.2-1.7-2.8-1.7-4.8s0.6-3.5,1.7-4.8C491.1,317.6,492.7,317,494.6,317z M494.6,328.6c1.4,0,2.5-0.5,3.3-1.5
		c0.8-0.9,1.2-2.1,1.2-3.5c0-1.4-0.4-2.6-1.2-3.5c-0.8-1-1.9-1.5-3.3-1.5s-2.5,0.5-3.3,1.5c-0.8,0.9-1.2,2.1-1.2,3.5
		c0,1.4,0.4,2.6,1.2,3.5C492.1,328.2,493.2,328.6,494.6,328.6z"/>
	<path class="st1" d="M510.5,317v2h-0.2c-1.4,0-2.5,0.6-3.4,1.7c-0.8,1.1-1.2,2.4-1.2,3.9v5.7h-1.9v-13h1.9v3.2
		c0.4-1.4,1.3-2.4,2.7-3c0.6-0.3,1.3-0.4,2.1-0.4H510.5z"/>
	<path class="st1" d="M514,330.2v-11.3h-2.7v-1.7h2.7v-4.7h2v4.7h3v1.7h-3v11.3H514z"/>
	<path class="st1" d="M530.5,330.2v-2c-0.5,0.6-1,1.2-1.7,1.6c-0.7,0.4-1.4,0.7-2.3,0.7c-0.9,0-1.6-0.1-2.2-0.4s-1.2-0.6-1.6-1.1
		c-1.1-1.1-1.6-2.5-1.6-4.2v-7.6h2v7.5c0,1.2,0.3,2.2,1,2.9c0.7,0.7,1.6,1.1,2.6,1.1c1.1,0,2-0.4,2.8-1.1c0.8-0.7,1.1-1.7,1.1-2.9
		v-7.5h2v13H530.5z"/>
	<path class="st1" d="M537.7,317.2v2c0.5-0.6,1-1.2,1.7-1.6c0.7-0.4,1.4-0.7,2.3-0.7c0.9,0,1.6,0.1,2.2,0.4s1.2,0.6,1.6,1.1
		c1.1,1.1,1.6,2.5,1.6,4.2v7.6h-2v-7.5c0-1.2-0.3-2.2-1-2.9c-0.7-0.7-1.6-1.1-2.6-1.1c-1.1,0-2,0.4-2.8,1.1
		c-0.8,0.7-1.1,1.7-1.1,2.9v7.5h-1.9v-13H537.7z"/>
	<path class="st1" d="M552.5,312.4v2.6h-2.1v-2.6H552.5z M550.5,317.2h1.9v13h-1.9V317.2z"/>
	<path class="st1" d="M557.2,330.2v-11.3h-2.7v-1.7h2.7v-4.7h2v4.7h3v1.7h-3v11.3H557.2z"/>
	<path class="st1" d="M569.8,328.6c1.8,0,3-0.7,3.8-2.2h2.1c-0.5,1.2-1.2,2.1-2.1,2.9c-1,0.7-2.2,1.1-3.8,1.1c-2,0-3.6-0.7-4.8-2
		c-1.2-1.3-1.8-2.9-1.8-4.8c0-1.9,0.6-3.5,1.7-4.8c1.2-1.3,2.8-2,4.7-2s3.5,0.7,4.7,2c1.1,1.2,1.7,2.8,1.7,4.8v0.8h-10.9
		c0.1,1.2,0.6,2.2,1.4,3C567.5,328.2,568.6,328.6,569.8,328.6z M569.7,318.7c-1.2,0-2.2,0.4-3,1.1c-0.8,0.7-1.2,1.6-1.4,2.8h8.8
		c-0.2-1.1-0.6-2.1-1.4-2.8C571.9,319.1,570.9,318.7,569.7,318.7z M569.4,312.6h2.8l-2.8,2.7h-1.6L569.4,312.6z"/>
</g>
<g>
	<path class="st1" d="M377.4,374.3v5.8h9.6v1.9h-9.6v5.8h10.7v1.9h-12.7v-17.2h12.7v1.9H377.4z M381.8,368.3h2.8l-2.8,2.7h-1.6
		L381.8,368.3z"/>
	<path class="st1" d="M403.4,374.3h-6v15.4h-2v-15.4h-6v-1.9h14V374.3z"/>
	<path class="st1" d="M419.4,389.7h-2.2l-2.1-5h-8.5l-2.1,5h-2.2l7.3-17.2h2.4L419.4,389.7z M414.4,382.9l-3.5-8.4l-3.5,8.4H414.4z"
		/>
	<path class="st1" d="M423.5,389.7h-1.9v-17.2h7.7c1.8,0,3.3,0.5,4.3,1.5c1.1,1,1.6,2.4,1.6,4c0,1.7-0.5,3.1-1.6,4
		c-1.1,1-2.5,1.5-4.3,1.5h-5.8V389.7z M423.5,374.3v7.4h5.7c1.4,0,2.4-0.3,3.1-1c0.7-0.7,1-1.6,1-2.7c0-1.2-0.3-2.1-1-2.7
		s-1.7-1-3.1-1H423.5z"/>
	<path class="st1" d="M439.9,374.3v5.8h9.6v1.9h-9.6v5.8h10.7v1.9h-12.7v-17.2h12.7v1.9H439.9z"/>
	<path class="st1" d="M467,380.5c1,0.4,1.8,1,2.3,1.7s0.8,1.6,0.8,2.4c0,0.9-0.2,1.6-0.5,2.2c-0.3,0.6-0.7,1.2-1.3,1.6
		c-1.1,1-2.5,1.4-4.1,1.4c-1.6,0-3-0.5-4.2-1.4c-1.2-0.9-1.8-2.1-1.9-3.4h2c0.1,0.8,0.6,1.5,1.4,2c0.8,0.6,1.7,0.8,2.8,0.8
		c1.2,0,2.2-0.3,2.9-0.9c0.7-0.6,1-1.3,1-2.3c0-0.9-0.3-1.7-1-2.3c-0.7-0.7-1.6-1-2.7-1h-2v-1.8h1.7c0.9,0,1.7-0.3,2.4-0.8
		c0.7-0.5,1-1.2,1-2c0-0.8-0.3-1.5-0.9-2c-0.6-0.5-1.4-0.8-2.5-0.8s-2,0.2-2.6,0.7c-0.6,0.5-1,1.1-1.1,1.7h-1.9
		c0.1-1.1,0.6-2.1,1.6-3c1-0.9,2.3-1.4,3.9-1.4c1.7,0,3,0.4,4,1.3c1,0.8,1.5,1.9,1.5,3.3c0,0.8-0.3,1.6-0.9,2.3
		C468.2,379.9,467.7,380.3,467,380.5z"/>
	<path class="st1" d="M475.4,376.7v2.7h-2.5v-2.7H475.4z M475.4,387v2.7h-2.5V387H475.4z"/>
	<path class="st1" d="M377.4,421h-1.9v-17.2h7.7c1.8,0,3.3,0.5,4.3,1.5c1.1,1,1.6,2.4,1.6,4c0,1.7-0.5,3.1-1.6,4
		c-1.1,1-2.5,1.5-4.3,1.5h-5.8V421z M377.4,405.6v7.4h5.7c1.4,0,2.4-0.3,3.1-1c0.7-0.7,1-1.6,1-2.7c0-1.2-0.3-2.1-1-2.7
		s-1.7-1-3.1-1H377.4z"/>
	<path class="st1" d="M398.2,407.7v2H398c-1.4,0-2.5,0.6-3.4,1.7c-0.8,1.1-1.2,2.4-1.2,3.9v5.7h-1.9v-13h1.9v3.2
		c0.4-1.4,1.3-2.4,2.7-3c0.6-0.3,1.3-0.4,2.1-0.4H398.2z"/>
	<path class="st1" d="M405.6,407.7c1.9,0,3.5,0.7,4.7,2c1.1,1.2,1.7,2.8,1.7,4.8s-0.6,3.5-1.7,4.8c-1.2,1.3-2.8,2-4.7,2
		s-3.5-0.7-4.7-2c-1.1-1.2-1.7-2.8-1.7-4.8s0.6-3.5,1.7-4.8C402.1,408.4,403.7,407.7,405.6,407.7z M405.6,419.4
		c1.4,0,2.5-0.5,3.3-1.5c0.8-0.9,1.2-2.1,1.2-3.5c0-1.4-0.4-2.6-1.2-3.5c-0.8-1-1.9-1.5-3.3-1.5s-2.5,0.5-3.3,1.5
		c-0.8,0.9-1.2,2.1-1.2,3.5c0,1.4,0.4,2.6,1.2,3.5C403.1,418.9,404.2,419.4,405.6,419.4z"/>
	<path class="st1" d="M416.6,410c1-1.5,2.6-2.3,4.7-2.3c1.9,0,3.4,0.7,4.5,2c1.2,1.3,1.7,2.9,1.7,4.8c0,1.9-0.6,3.5-1.7,4.8
		c-1.2,1.3-2.7,2-4.7,2c-2,0-3.5-0.8-4.5-2.3v7.3h-1.9v-18.2h1.9V410z M421,409.5c-1.4,0-2.5,0.5-3.3,1.5c-0.8,0.9-1.2,2.1-1.2,3.5
		c0,1.4,0.4,2.6,1.2,3.5c0.8,1,1.9,1.5,3.3,1.5c1.4,0,2.5-0.5,3.4-1.5c0.8-0.9,1.2-2.1,1.2-3.5c0-1.4-0.4-2.6-1.2-3.5
		C423.5,410,422.4,409.5,421,409.5z"/>
	<path class="st1" d="M435.7,407.7c1.9,0,3.5,0.7,4.7,2c1.1,1.2,1.7,2.8,1.7,4.8s-0.6,3.5-1.7,4.8c-1.2,1.3-2.8,2-4.7,2
		s-3.5-0.7-4.7-2c-1.1-1.2-1.7-2.8-1.7-4.8s0.6-3.5,1.7-4.8C432.2,408.4,433.8,407.7,435.7,407.7z M435.7,419.4
		c1.4,0,2.5-0.5,3.3-1.5c0.8-0.9,1.2-2.1,1.2-3.5c0-1.4-0.4-2.6-1.2-3.5c-0.8-1-1.9-1.5-3.3-1.5s-2.5,0.5-3.3,1.5
		c-0.8,0.9-1.2,2.1-1.2,3.5c0,1.4,0.4,2.6,1.2,3.5C433.2,418.9,434.3,419.4,435.7,419.4z"/>
	<path class="st1" d="M452.4,411.4c-0.2-1.4-1.3-2-3.3-2s-3,0.6-3,1.9c0,0.5,0.2,0.9,0.6,1.2c0.4,0.3,1,0.5,1.6,0.7
		c0.6,0.2,1.3,0.3,2.1,0.5c0.8,0.1,1.5,0.4,2.1,0.6c0.6,0.3,1.2,0.6,1.6,1.1s0.6,1.1,0.6,1.9c0,1.3-0.5,2.2-1.4,2.9
		c-1,0.7-2.2,1-3.9,1c-1.7,0-3.1-0.4-4.1-1.3c-0.9-0.8-1.4-1.8-1.5-3h2c0.1,1.2,0.8,2,2,2.4c0.5,0.1,0.9,0.2,1.3,0.2
		c0.4,0,0.9,0,1.2-0.1c0.4-0.1,0.8-0.1,1.1-0.3c0.8-0.3,1.2-0.9,1.2-1.7c0-0.5-0.2-1-0.6-1.2c-0.4-0.3-1-0.5-1.6-0.7
		c-0.6-0.2-1.3-0.3-2.1-0.5c-0.8-0.1-1.5-0.4-2.1-0.6c-0.6-0.3-1.2-0.6-1.6-1.1s-0.6-1.1-0.6-1.9c0-1.2,0.4-2.1,1.3-2.7
		c0.9-0.7,2.1-1,3.8-1c1.6,0,2.9,0.4,3.8,1.1c0.8,0.6,1.2,1.5,1.3,2.6H452.4z"/>
	<path class="st1" d="M459.3,403.2v2.6h-2.1v-2.6H459.3z M457.3,407.9h1.9v13h-1.9V407.9z"/>
	<path class="st1" d="M464,421v-11.3h-2.7v-1.7h2.7v-4.7h2v4.7h3v1.7h-3V421H464z"/>
	<path class="st1" d="M473.1,403.2v2.6H471v-2.6H473.1z M471.1,407.9h1.9v13h-1.9V407.9z"/>
	<path class="st1" d="M482,407.7c1.9,0,3.5,0.7,4.7,2c1.1,1.2,1.7,2.8,1.7,4.8s-0.6,3.5-1.7,4.8c-1.2,1.3-2.8,2-4.7,2
		s-3.5-0.7-4.7-2c-1.1-1.2-1.7-2.8-1.7-4.8s0.6-3.5,1.7-4.8C478.5,408.4,480.1,407.7,482,407.7z M482,419.4c1.4,0,2.5-0.5,3.3-1.5
		c0.8-0.9,1.2-2.1,1.2-3.5c0-1.4-0.4-2.6-1.2-3.5c-0.8-1-1.9-1.5-3.3-1.5s-2.5,0.5-3.3,1.5c-0.8,0.9-1.2,2.1-1.2,3.5
		c0,1.4,0.4,2.6,1.2,3.5C479.5,418.9,480.6,419.4,482,419.4z"/>
	<path class="st1" d="M493,407.9v2c0.5-0.6,1-1.2,1.7-1.6c0.7-0.4,1.4-0.7,2.3-0.7c0.9,0,1.6,0.1,2.2,0.4s1.2,0.6,1.6,1.1
		c1.1,1.1,1.6,2.5,1.6,4.2v7.6h-2v-7.5c0-1.2-0.3-2.2-1-2.9c-0.7-0.7-1.6-1.1-2.6-1.1c-1.1,0-2,0.4-2.8,1.1
		c-0.8,0.7-1.1,1.7-1.1,2.9v7.5h-1.9v-13H493z"/>
	<path class="st1" d="M521.5,418.9c-1,1.5-2.6,2.3-4.7,2.3c-1.9,0-3.4-0.7-4.6-2c-1.1-1.3-1.7-2.9-1.7-4.8c0-1.9,0.6-3.5,1.7-4.8
		c1.2-1.3,2.7-2,4.7-2s3.5,0.8,4.5,2.3v-7.3h2V421h-2V418.9z M517.1,419.4c1.4,0,2.5-0.5,3.3-1.5c0.8-0.9,1.2-2.1,1.2-3.5
		c0-1.4-0.4-2.6-1.2-3.5c-0.8-1-1.9-1.5-3.3-1.5c-1.4,0-2.5,0.5-3.4,1.5c-0.8,0.9-1.2,2.1-1.2,3.5c0,1.4,0.4,2.6,1.2,3.5
		C514.6,418.9,515.7,419.4,517.1,419.4z"/>
	<path class="st1" d="M527.6,403h2.5l-2.3,5.5h-1.8L527.6,403z"/>
	<path class="st1" d="M541.7,421v-2c-0.5,0.6-1,1.2-1.7,1.6c-0.7,0.4-1.4,0.7-2.3,0.7c-0.9,0-1.6-0.1-2.2-0.4s-1.2-0.6-1.6-1.1
		c-1.1-1.1-1.6-2.5-1.6-4.2v-7.6h2v7.5c0,1.2,0.3,2.2,1,2.9c0.7,0.7,1.6,1.1,2.6,1.1c1.1,0,2-0.4,2.8-1.1c0.8-0.7,1.1-1.7,1.1-2.9
		v-7.5h2v13H541.7z"/>
	<path class="st1" d="M548.9,407.9v2c0.5-0.6,1-1.2,1.7-1.6c0.7-0.4,1.4-0.7,2.3-0.7c0.9,0,1.6,0.1,2.2,0.4s1.2,0.6,1.6,1.1
		c1.1,1.1,1.6,2.5,1.6,4.2v7.6h-2v-7.5c0-1.2-0.3-2.2-1-2.9c-0.7-0.7-1.6-1.1-2.6-1.1c-1.1,0-2,0.4-2.8,1.1
		c-0.8,0.7-1.1,1.7-1.1,2.9v7.5H547v-13H548.9z"/>
	<path class="st1" d="M382.6,442.7c-0.2-1.4-1.3-2-3.3-2s-3,0.6-3,1.9c0,0.5,0.2,0.9,0.6,1.2c0.4,0.3,1,0.5,1.6,0.7
		c0.6,0.2,1.3,0.3,2.1,0.5c0.8,0.1,1.5,0.4,2.1,0.6c0.6,0.3,1.2,0.6,1.6,1.1s0.6,1.1,0.6,1.9c0,1.3-0.5,2.2-1.4,2.9
		c-1,0.7-2.2,1-3.9,1c-1.7,0-3.1-0.4-4.1-1.3c-0.9-0.8-1.4-1.8-1.5-3h2c0.1,1.2,0.8,2,2,2.4c0.5,0.1,0.9,0.2,1.3,0.2
		c0.4,0,0.9,0,1.2-0.1c0.4-0.1,0.8-0.1,1.1-0.3c0.8-0.3,1.2-0.9,1.2-1.7c0-0.5-0.2-1-0.6-1.2c-0.4-0.3-1-0.5-1.6-0.7
		c-0.6-0.2-1.3-0.3-2.1-0.5c-0.8-0.1-1.5-0.4-2.1-0.6c-0.6-0.3-1.2-0.6-1.6-1.1s-0.6-1.1-0.6-1.9c0-1.2,0.4-2.1,1.3-2.7
		c0.9-0.7,2.1-1,3.8-1c1.6,0,2.9,0.4,3.8,1.1c0.8,0.6,1.2,1.5,1.3,2.6H382.6z"/>
	<path class="st1" d="M393.5,450.6c0.8,0,1.6-0.2,2.2-0.7c0.6-0.5,1.1-1.1,1.4-1.8h2.1c-0.4,1.3-1.1,2.3-2.2,3.1
		c-1.1,0.8-2.4,1.2-4,1.2c-1.9,0-3.5-0.7-4.7-2c-1.2-1.3-1.7-2.9-1.7-4.8c0-1.9,0.6-3.5,1.7-4.8c1.2-1.3,2.7-2,4.7-2
		c1.5,0,2.8,0.4,4,1.2c1.1,0.8,1.8,1.8,2.2,3.1h-2.1c-0.3-0.7-0.8-1.4-1.4-1.8c-0.6-0.5-1.4-0.7-2.2-0.7s-1.5,0.1-2.1,0.4
		c-0.6,0.3-1.1,0.6-1.5,1.1c-0.8,0.9-1.3,2.1-1.3,3.5c0,1.4,0.4,2.6,1.3,3.5C390.8,450.2,392,450.6,393.5,450.6z"/>
	<path class="st1" d="M407.5,450.6c1.8,0,3-0.7,3.8-2.2h2.1c-0.5,1.2-1.2,2.1-2.1,2.9c-1,0.7-2.2,1.1-3.8,1.1c-2,0-3.6-0.7-4.8-2
		c-1.2-1.3-1.8-2.9-1.8-4.8c0-1.9,0.6-3.5,1.7-4.8c1.2-1.3,2.8-2,4.7-2s3.5,0.7,4.7,2c1.1,1.2,1.7,2.8,1.7,4.8v0.8h-10.9
		c0.1,1.2,0.6,2.2,1.4,3C405.1,450.2,406.2,450.6,407.5,450.6z M407.3,440.7c-1.2,0-2.2,0.4-3,1.1c-0.8,0.7-1.2,1.6-1.4,2.8h8.8
		c-0.2-1.1-0.6-2.1-1.4-2.8C409.5,441.1,408.5,440.7,407.3,440.7z M407.1,434.6h2.8l-2.8,2.7h-1.6L407.1,434.6z"/>
	<path class="st1" d="M418.1,439.2v2c0.5-0.6,1-1.2,1.7-1.6c0.7-0.4,1.4-0.7,2.3-0.7c0.9,0,1.6,0.1,2.2,0.4s1.2,0.6,1.6,1.1
		c1.1,1.1,1.6,2.5,1.6,4.2v7.6h-2v-7.5c0-1.2-0.3-2.2-1-2.9c-0.7-0.7-1.6-1.1-2.6-1.1c-1.1,0-2,0.4-2.8,1.1
		c-0.8,0.7-1.1,1.7-1.1,2.9v7.5h-1.9v-13H418.1z"/>
	<path class="st1" d="M441,450.1c-1,1.5-2.6,2.3-4.7,2.3c-1.9,0-3.4-0.7-4.6-2c-1.1-1.3-1.7-2.9-1.7-4.8c0-1.9,0.6-3.5,1.7-4.8
		c1.2-1.3,2.7-2,4.7-2s3.5,0.8,4.5,2.3v-2.1h2v13h-2V450.1z M436.6,450.6c1.4,0,2.5-0.5,3.3-1.5c0.8-0.9,1.2-2.1,1.2-3.5
		c0-1.4-0.4-2.6-1.2-3.5c-0.8-1-1.9-1.5-3.3-1.5c-1.4,0-2.5,0.5-3.4,1.5c-0.8,0.9-1.2,2.1-1.2,3.5c0,1.4,0.4,2.6,1.2,3.5
		C434.1,450.2,435.2,450.6,436.6,450.6z"/>
	<path class="st1" d="M453.2,439v2H453c-1.4,0-2.5,0.6-3.4,1.7c-0.8,1.1-1.2,2.4-1.2,3.9v5.7h-1.9v-13h1.9v3.2
		c0.4-1.4,1.3-2.4,2.7-3c0.6-0.3,1.3-0.4,2.1-0.4H453.2z"/>
	<path class="st1" d="M457.3,434.4v2.6h-2.1v-2.6H457.3z M455.3,439.2h1.9v13h-1.9V439.2z"/>
	<path class="st1" d="M466.3,439c1.9,0,3.5,0.7,4.7,2c1.1,1.2,1.7,2.8,1.7,4.8s-0.6,3.5-1.7,4.8c-1.2,1.3-2.8,2-4.7,2
		s-3.5-0.7-4.7-2c-1.1-1.2-1.7-2.8-1.7-4.8s0.6-3.5,1.7-4.8C462.8,439.6,464.3,439,466.3,439z M466.3,450.6c1.4,0,2.5-0.5,3.3-1.5
		c0.8-0.9,1.2-2.1,1.2-3.5c0-1.4-0.4-2.6-1.2-3.5c-0.8-1-1.9-1.5-3.3-1.5s-2.5,0.5-3.3,1.5c-0.8,0.9-1.2,2.1-1.2,3.5
		c0,1.4,0.4,2.6,1.2,3.5C463.8,450.2,464.9,450.6,466.3,450.6z"/>
	<path class="st1" d="M491,450.1c-1,1.5-2.6,2.3-4.7,2.3c-1.9,0-3.4-0.7-4.6-2c-1.1-1.3-1.7-2.9-1.7-4.8c0-1.9,0.6-3.5,1.7-4.8
		c1.2-1.3,2.7-2,4.7-2s3.5,0.8,4.5,2.3V434h2v18.2h-2V450.1z M486.6,450.6c1.4,0,2.5-0.5,3.3-1.5c0.8-0.9,1.2-2.1,1.2-3.5
		c0-1.4-0.4-2.6-1.2-3.5c-0.8-1-1.9-1.5-3.3-1.5c-1.4,0-2.5,0.5-3.4,1.5c-0.8,0.9-1.2,2.1-1.2,3.5c0,1.4,0.4,2.6,1.2,3.5
		C484.1,450.2,485.2,450.6,486.6,450.6z"/>
	<path class="st1" d="M497.2,434.3h2.5l-2.3,5.5h-1.8L497.2,434.3z"/>
	<path class="st1" d="M503.8,434.4v2.6h-2.1v-2.6H503.8z M501.8,439.2h1.9v13h-1.9V439.2z"/>
	<path class="st1" d="M509.1,439.2v2c0.5-0.6,1-1.2,1.7-1.6c0.7-0.4,1.4-0.7,2.3-0.7c0.9,0,1.6,0.1,2.2,0.4s1.2,0.6,1.6,1.1
		c1.1,1.1,1.6,2.5,1.6,4.2v7.6h-2v-7.5c0-1.2-0.3-2.2-1-2.9c-0.7-0.7-1.6-1.1-2.6-1.1c-1.1,0-2,0.4-2.8,1.1
		c-0.8,0.7-1.1,1.7-1.1,2.9v7.5h-1.9v-13H509.1z"/>
	<path class="st1" d="M532.4,439.2l-5.1,13H525l-5.1-13h2.1l4.1,10.9l4.1-10.9H532.4z"/>
	<path class="st1" d="M539.9,450.6c1.8,0,3-0.7,3.8-2.2h2.1c-0.5,1.2-1.2,2.1-2.1,2.9c-1,0.7-2.2,1.1-3.8,1.1c-2,0-3.6-0.7-4.8-2
		c-1.2-1.3-1.8-2.9-1.8-4.8c0-1.9,0.6-3.5,1.7-4.8c1.2-1.3,2.8-2,4.7-2s3.5,0.7,4.7,2c1.1,1.2,1.7,2.8,1.7,4.8v0.8h-10.9
		c0.1,1.2,0.6,2.2,1.4,3C537.5,450.2,538.6,450.6,539.9,450.6z M539.7,440.7c-1.2,0-2.2,0.4-3,1.1c-0.8,0.7-1.2,1.6-1.4,2.8h8.8
		c-0.2-1.1-0.6-2.1-1.4-2.8C541.9,441.1,540.9,440.7,539.7,440.7z"/>
	<path class="st1" d="M556.2,442.7c-0.2-1.4-1.3-2-3.3-2s-3,0.6-3,1.9c0,0.5,0.2,0.9,0.6,1.2c0.4,0.3,1,0.5,1.6,0.7
		c0.6,0.2,1.3,0.3,2.1,0.5c0.8,0.1,1.5,0.4,2.1,0.6c0.6,0.3,1.2,0.6,1.6,1.1s0.6,1.1,0.6,1.9c0,1.3-0.5,2.2-1.4,2.9
		c-1,0.7-2.2,1-3.9,1c-1.7,0-3.1-0.4-4.1-1.3c-0.9-0.8-1.4-1.8-1.5-3h2c0.1,1.2,0.8,2,2,2.4c0.5,0.1,0.9,0.2,1.3,0.2
		c0.4,0,0.9,0,1.2-0.1c0.4-0.1,0.8-0.1,1.1-0.3c0.8-0.3,1.2-0.9,1.2-1.7c0-0.5-0.2-1-0.6-1.2c-0.4-0.3-1-0.5-1.6-0.7
		c-0.6-0.2-1.3-0.3-2.1-0.5c-0.8-0.1-1.5-0.4-2.1-0.6c-0.6-0.3-1.2-0.6-1.6-1.1s-0.6-1.1-0.6-1.9c0-1.2,0.4-2.1,1.3-2.7
		c0.9-0.7,2.1-1,3.8-1c1.6,0,2.9,0.4,3.8,1.1c0.8,0.6,1.2,1.5,1.3,2.6H556.2z"/>
	<path class="st1" d="M562.5,452.2v-11.3h-2.7v-1.7h2.7v-4.7h2v4.7h3v1.7h-3v11.3H562.5z"/>
	<path class="st1" d="M571.6,434.4v2.6h-2.1v-2.6H571.6z M569.6,439.2h1.9v13h-1.9V439.2z"/>
	<path class="st1" d="M582.5,442.7c-0.2-1.4-1.3-2-3.3-2s-3,0.6-3,1.9c0,0.5,0.2,0.9,0.6,1.2c0.4,0.3,1,0.5,1.6,0.7
		c0.6,0.2,1.3,0.3,2.1,0.5c0.8,0.1,1.5,0.4,2.1,0.6c0.6,0.3,1.2,0.6,1.6,1.1s0.6,1.1,0.6,1.9c0,1.3-0.5,2.2-1.4,2.9
		c-1,0.7-2.2,1-3.9,1c-1.7,0-3.1-0.4-4.1-1.3c-0.9-0.8-1.4-1.8-1.5-3h2c0.1,1.2,0.8,2,2,2.4c0.5,0.1,0.9,0.2,1.3,0.2
		c0.4,0,0.9,0,1.2-0.1c0.4-0.1,0.8-0.1,1.1-0.3c0.8-0.3,1.2-0.9,1.2-1.7c0-0.5-0.2-1-0.6-1.2c-0.4-0.3-1-0.5-1.6-0.7
		c-0.6-0.2-1.3-0.3-2.1-0.5c-0.8-0.1-1.5-0.4-2.1-0.6c-0.6-0.3-1.2-0.6-1.6-1.1s-0.6-1.1-0.6-1.9c0-1.2,0.4-2.1,1.3-2.7
		c0.9-0.7,2.1-1,3.8-1c1.6,0,2.9,0.4,3.8,1.1c0.8,0.6,1.2,1.5,1.3,2.6H582.5z"/>
	<path class="st1" d="M593.2,450.6c1.8,0,3-0.7,3.8-2.2h2.1c-0.5,1.2-1.2,2.1-2.1,2.9c-1,0.7-2.2,1.1-3.8,1.1c-2,0-3.6-0.7-4.8-2
		c-1.2-1.3-1.8-2.9-1.8-4.8c0-1.9,0.6-3.5,1.7-4.8c1.2-1.3,2.8-2,4.7-2s3.5,0.7,4.7,2c1.1,1.2,1.7,2.8,1.7,4.8v0.8h-10.9
		c0.1,1.2,0.6,2.2,1.4,3C590.9,450.2,591.9,450.6,593.2,450.6z M593.1,440.7c-1.2,0-2.2,0.4-3,1.1c-0.8,0.7-1.2,1.6-1.4,2.8h8.8
		c-0.2-1.1-0.6-2.1-1.4-2.8C595.3,441.1,594.3,440.7,593.1,440.7z"/>
	<path class="st1" d="M603.9,441.2c0.9-1.5,2.2-2.2,4-2.2c0.9,0,1.7,0.2,2.4,0.7c0.7,0.5,1.3,1.1,1.7,1.9c0.6-1.1,1.5-1.9,2.8-2.3
		c0.5-0.2,1.1-0.3,1.7-0.3s1.2,0.1,1.8,0.4c0.6,0.3,1.1,0.6,1.5,1.1c1,1,1.5,2.3,1.5,3.9v7.9h-2v-7.8c0-1.1-0.3-2-0.9-2.7
		c-0.6-0.7-1.4-1-2.3-1c-1,0-1.8,0.3-2.5,1c-0.7,0.7-1,1.6-1,2.7v7.8h-2v-7.8c0-1.1-0.3-2-0.9-2.7c-0.6-0.7-1.4-1-2.3-1
		c-1,0-1.8,0.3-2.5,1c-0.7,0.7-1,1.6-1,2.7v7.8h-1.9v-13h1.9V441.2z"/>
	<path class="st1" d="M630.3,450.6c1.8,0,3-0.7,3.8-2.2h2.1c-0.5,1.2-1.2,2.1-2.1,2.9c-1,0.7-2.2,1.1-3.8,1.1c-2,0-3.6-0.7-4.8-2
		c-1.2-1.3-1.8-2.9-1.8-4.8c0-1.9,0.6-3.5,1.7-4.8c1.2-1.3,2.8-2,4.7-2s3.5,0.7,4.7,2c1.1,1.2,1.7,2.8,1.7,4.8v0.8h-10.9
		c0.1,1.2,0.6,2.2,1.4,3C627.9,450.2,629,450.6,630.3,450.6z M630.1,440.7c-1.2,0-2.2,0.4-3,1.1c-0.8,0.7-1.2,1.6-1.4,2.8h8.8
		c-0.2-1.1-0.6-2.1-1.4-2.8C632.3,441.1,631.3,440.7,630.1,440.7z"/>
	<path class="st1" d="M640.9,439.2v2c0.5-0.6,1-1.2,1.7-1.6c0.7-0.4,1.4-0.7,2.3-0.7c0.9,0,1.6,0.1,2.2,0.4s1.2,0.6,1.6,1.1
		c1.1,1.1,1.6,2.5,1.6,4.2v7.6h-2v-7.5c0-1.2-0.3-2.2-1-2.9c-0.7-0.7-1.6-1.1-2.6-1.1c-1.1,0-2,0.4-2.8,1.1
		c-0.8,0.7-1.1,1.7-1.1,2.9v7.5H639v-13H640.9z"/>
	<path class="st1" d="M654.8,452.2v-11.3h-2.7v-1.7h2.7v-4.7h2v4.7h3v1.7h-3v11.3H654.8z"/>
</g>
<g>
	<path class="st1" d="M375.4,500.3v5.8h9.6v1.9h-9.6v5.8h10.7v1.9h-12.7v-17.2h12.7v1.9H375.4z M379.8,494.3h2.8l-2.8,2.7h-1.6
		L379.8,494.3z"/>
	<path class="st1" d="M401.4,500.3h-6v15.4h-2v-15.4h-6v-1.9h14V500.3z"/>
	<path class="st1" d="M417.4,515.7h-2.2l-2.1-5h-8.5l-2.1,5h-2.2l7.3-17.2h2.4L417.4,515.7z M412.4,508.9l-3.5-8.4l-3.5,8.4H412.4z"
		/>
	<path class="st1" d="M421.5,515.7h-1.9v-17.2h7.7c1.8,0,3.3,0.5,4.3,1.5c1.1,1,1.6,2.4,1.6,4c0,1.7-0.5,3.1-1.6,4
		c-1.1,1-2.5,1.5-4.3,1.5h-5.8V515.7z M421.5,500.3v7.4h5.7c1.4,0,2.4-0.3,3.1-1c0.7-0.7,1-1.6,1-2.7c0-1.2-0.3-2.1-1-2.7
		c-0.7-0.7-1.7-1-3.1-1H421.5z"/>
	<path class="st1" d="M437.9,500.3v5.8h9.6v1.9h-9.6v5.8h10.7v1.9h-12.7v-17.2h12.7v1.9H437.9z"/>
	<path class="st1" d="M468.4,509.6v1.7h-2.3v4.4h-1.9v-4.4H456v-1.9l7.2-10.9h2.9v11.1H468.4z M464.2,509.6v-9.4l-6.4,9.4H464.2z"/>
	<path class="st1" d="M473.4,502.7v2.7h-2.5v-2.7H473.4z M473.4,513v2.7h-2.5V513H473.4z"/>
	<path class="st1" d="M385.6,531.6h-6V547h-2v-15.4h-6v-1.9h14V531.6z"/>
	<path class="st1" d="M392.8,533.7v2h-0.2c-1.4,0-2.5,0.6-3.4,1.7c-0.8,1.1-1.2,2.4-1.2,3.9v5.7h-1.9v-13h1.9v3.2
		c0.4-1.4,1.3-2.4,2.7-3c0.6-0.3,1.3-0.4,2.1-0.4H392.8z"/>
	<path class="st1" d="M404.7,544.9c-1,1.5-2.6,2.3-4.7,2.3c-1.9,0-3.4-0.7-4.6-2c-1.1-1.3-1.7-2.9-1.7-4.8s0.6-3.5,1.7-4.8
		c1.2-1.3,2.7-2,4.7-2s3.5,0.8,4.5,2.3v-2.1h2v13h-2V544.9z M400.3,545.4c1.4,0,2.5-0.5,3.3-1.5c0.8-0.9,1.2-2.1,1.2-3.5
		s-0.4-2.6-1.2-3.5c-0.8-1-1.9-1.5-3.3-1.5c-1.4,0-2.5,0.5-3.4,1.5c-0.8,0.9-1.2,2.1-1.2,3.5s0.4,2.6,1.2,3.5
		C397.8,544.9,398.9,545.4,400.3,545.4z"/>
	<path class="st1" d="M420.9,533.9l-5.1,13h-2.3l-5.1-13h2.1l4.1,10.9l4.1-10.9H420.9z"/>
	<path class="st1" d="M432.7,544.9c-1,1.5-2.6,2.3-4.7,2.3c-1.9,0-3.4-0.7-4.6-2c-1.1-1.3-1.7-2.9-1.7-4.8s0.6-3.5,1.7-4.8
		c1.2-1.3,2.7-2,4.7-2s3.5,0.8,4.5,2.3v-2.1h2v13h-2V544.9z M428.3,545.4c1.4,0,2.5-0.5,3.3-1.5c0.8-0.9,1.2-2.1,1.2-3.5
		s-0.4-2.6-1.2-3.5c-0.8-1-1.9-1.5-3.3-1.5c-1.4,0-2.5,0.5-3.4,1.5c-0.8,0.9-1.2,2.1-1.2,3.5s0.4,2.6,1.2,3.5
		C425.8,544.9,426.9,545.4,428.3,545.4z"/>
	<path class="st1" d="M447.4,547v-2c-0.5,0.6-1,1.2-1.7,1.6c-0.7,0.4-1.4,0.7-2.3,0.7c-0.9,0-1.6-0.1-2.2-0.4s-1.2-0.6-1.6-1.1
		c-1.1-1.1-1.6-2.5-1.6-4.2v-7.6h2v7.5c0,1.2,0.3,2.2,1,2.9c0.7,0.7,1.6,1.1,2.6,1.1c1.1,0,2-0.4,2.8-1.1c0.8-0.7,1.1-1.7,1.1-2.9
		v-7.5h2v13H447.4z"/>
	<path class="st1" d="M458.5,540.2l5,6.7H461l-3.7-5.3l-3.7,5.3h-2.5l5-6.7l-4.7-6.3h2.5l3.4,4.9l3.3-4.9h2.5L458.5,540.2z"/>
	<path class="st1" d="M481,544.9c-1,1.5-2.6,2.3-4.7,2.3c-1.9,0-3.4-0.7-4.6-2c-1.1-1.3-1.7-2.9-1.7-4.8s0.6-3.5,1.7-4.8
		c1.2-1.3,2.7-2,4.7-2s3.5,0.8,4.5,2.3v-2.1h2v13h-2V544.9z M476.6,545.4c1.4,0,2.5-0.5,3.3-1.5c0.8-0.9,1.2-2.1,1.2-3.5
		s-0.4-2.6-1.2-3.5c-0.8-1-1.9-1.5-3.3-1.5c-1.4,0-2.5,0.5-3.4,1.5c-0.8,0.9-1.2,2.1-1.2,3.5s0.4,2.6,1.2,3.5
		C474.1,544.9,475.2,545.4,476.6,545.4z"/>
	<path class="st1" d="M488.3,535.9c0.9-1.5,2.2-2.2,4-2.2c0.9,0,1.7,0.2,2.4,0.7c0.7,0.5,1.3,1.1,1.7,1.9c0.6-1.1,1.5-1.9,2.8-2.3
		c0.5-0.2,1.1-0.3,1.7-0.3s1.2,0.1,1.8,0.4s1.1,0.6,1.5,1.1c1,1,1.5,2.3,1.5,3.9v7.9h-2v-7.8c0-1.1-0.3-2-0.9-2.7
		c-0.6-0.7-1.4-1-2.3-1c-1,0-1.8,0.3-2.5,1c-0.7,0.7-1,1.6-1,2.7v7.8h-2v-7.8c0-1.1-0.3-2-0.9-2.7c-0.6-0.7-1.4-1-2.3-1
		c-1,0-1.8,0.3-2.5,1c-0.7,0.7-1,1.6-1,2.7v7.8h-1.9v-13h1.9V535.9z"/>
	<path class="st1" d="M514.7,545.4c1.8,0,3-0.7,3.8-2.2h2.1c-0.5,1.2-1.2,2.1-2.1,2.9c-1,0.7-2.2,1.1-3.8,1.1c-2,0-3.6-0.7-4.8-2
		c-1.2-1.3-1.8-2.9-1.8-4.8c0-1.9,0.6-3.5,1.7-4.8c1.2-1.3,2.8-2,4.7-2s3.5,0.7,4.7,2c1.1,1.2,1.7,2.8,1.7,4.8v0.8h-10.9
		c0.1,1.2,0.6,2.2,1.4,3C512.3,545,513.4,545.4,514.7,545.4z M514.5,535.5c-1.2,0-2.2,0.4-3,1.1c-0.8,0.7-1.2,1.6-1.4,2.8h8.8
		c-0.2-1.1-0.6-2.1-1.4-2.8C516.7,535.9,515.7,535.5,514.5,535.5z M514.3,529.4h2.8l-2.8,2.7h-1.6L514.3,529.4z"/>
	<path class="st1" d="M525.3,533.9v2c0.5-0.6,1-1.2,1.7-1.6c0.7-0.4,1.4-0.7,2.3-0.7c0.9,0,1.6,0.1,2.2,0.4c0.6,0.2,1.2,0.6,1.6,1.1
		c1.1,1.1,1.6,2.5,1.6,4.2v7.6h-2v-7.5c0-1.2-0.3-2.2-1-2.9c-0.7-0.7-1.6-1.1-2.6-1.1c-1.1,0-2,0.4-2.8,1.1
		c-0.8,0.7-1.1,1.7-1.1,2.9v7.5h-1.9v-13H525.3z"/>
	<path class="st1" d="M548.2,544.9c-1,1.5-2.6,2.3-4.7,2.3c-1.9,0-3.4-0.7-4.6-2c-1.1-1.3-1.7-2.9-1.7-4.8s0.6-3.5,1.7-4.8
		c1.2-1.3,2.7-2,4.7-2s3.5,0.8,4.5,2.3v-2.1h2v13h-2V544.9z M543.8,545.4c1.4,0,2.5-0.5,3.3-1.5c0.8-0.9,1.2-2.1,1.2-3.5
		s-0.4-2.6-1.2-3.5c-0.8-1-1.9-1.5-3.3-1.5c-1.4,0-2.5,0.5-3.4,1.5c-0.8,0.9-1.2,2.1-1.2,3.5s0.4,2.6,1.2,3.5
		C541.3,544.9,542.4,545.4,543.8,545.4z"/>
	<path class="st1" d="M563.7,536v-2.1h2v12.6c0,1.9-0.5,3.3-1.6,4.3c-1.1,1-2.5,1.5-4.3,1.5s-3.2-0.3-4.2-1c-1-0.7-1.7-1.6-2.1-2.8
		h2.2c0.6,1.4,1.8,2,3.8,2c1.5,0,2.6-0.3,3.3-1c0.7-0.7,1-1.7,1-3.1v-1.8c-1.1,1.5-2.6,2.3-4.7,2.3c-1.9,0-3.4-0.6-4.6-1.9
		c-1.1-1.2-1.7-2.8-1.7-4.7c0-1.9,0.6-3.4,1.7-4.7c1.2-1.3,2.8-1.9,4.7-1.9C561.1,533.7,562.6,534.5,563.7,536z M559.3,545.2
		c0.7,0,1.3-0.1,1.9-0.4c0.6-0.3,1-0.6,1.4-1c0.8-0.9,1.2-2,1.2-3.4s-0.4-2.5-1.2-3.4c-0.8-0.9-2-1.4-3.3-1.4
		c-1.4,0-2.5,0.5-3.4,1.4c-0.8,0.9-1.2,2.1-1.2,3.4s0.4,2.5,1.2,3.4C556.8,544.7,557.9,545.2,559.3,545.2z"/>
	<path class="st1" d="M574.8,545.4c1.8,0,3-0.7,3.8-2.2h2.1c-0.5,1.2-1.2,2.1-2.1,2.9c-1,0.7-2.2,1.1-3.8,1.1c-2,0-3.6-0.7-4.8-2
		c-1.2-1.3-1.8-2.9-1.8-4.8c0-1.9,0.6-3.5,1.7-4.8c1.2-1.3,2.8-2,4.7-2s3.5,0.7,4.7,2c1.1,1.2,1.7,2.8,1.7,4.8v0.8h-10.9
		c0.1,1.2,0.6,2.2,1.4,3C572.5,545,573.5,545.4,574.8,545.4z M574.7,535.5c-1.2,0-2.2,0.4-3,1.1c-0.8,0.7-1.2,1.6-1.4,2.8h8.8
		c-0.2-1.1-0.6-2.1-1.4-2.8C576.9,535.9,575.9,535.5,574.7,535.5z"/>
	<path class="st1" d="M585.4,535.9c0.9-1.5,2.2-2.2,4-2.2c0.9,0,1.7,0.2,2.4,0.7c0.7,0.5,1.3,1.1,1.7,1.9c0.6-1.1,1.5-1.9,2.8-2.3
		c0.5-0.2,1.1-0.3,1.7-0.3s1.2,0.1,1.8,0.4s1.1,0.6,1.5,1.1c1,1,1.5,2.3,1.5,3.9v7.9h-2v-7.8c0-1.1-0.3-2-0.9-2.7
		c-0.6-0.7-1.4-1-2.3-1c-1,0-1.8,0.3-2.5,1c-0.7,0.7-1,1.6-1,2.7v7.8h-2v-7.8c0-1.1-0.3-2-0.9-2.7c-0.6-0.7-1.4-1-2.3-1
		c-1,0-1.8,0.3-2.5,1c-0.7,0.7-1,1.6-1,2.7v7.8h-1.9v-13h1.9V535.9z"/>
	<path class="st1" d="M611.9,545.4c1.8,0,3-0.7,3.8-2.2h2.1c-0.5,1.2-1.2,2.1-2.1,2.9c-1,0.7-2.2,1.1-3.8,1.1c-2,0-3.6-0.7-4.8-2
		c-1.2-1.3-1.8-2.9-1.8-4.8c0-1.9,0.6-3.5,1.7-4.8c1.2-1.3,2.8-2,4.7-2s3.5,0.7,4.7,2c1.1,1.2,1.7,2.8,1.7,4.8v0.8h-10.9
		c0.1,1.2,0.6,2.2,1.4,3C609.5,545,610.6,545.4,611.9,545.4z M611.7,535.5c-1.2,0-2.2,0.4-3,1.1c-0.8,0.7-1.2,1.6-1.4,2.8h8.8
		c-0.2-1.1-0.6-2.1-1.4-2.8C613.9,535.9,612.9,535.5,611.7,535.5z"/>
	<path class="st1" d="M622.5,533.9v2c0.5-0.6,1-1.2,1.7-1.6c0.7-0.4,1.4-0.7,2.3-0.7c0.9,0,1.6,0.1,2.2,0.4c0.6,0.2,1.2,0.6,1.6,1.1
		c1.1,1.1,1.6,2.5,1.6,4.2v7.6h-2v-7.5c0-1.2-0.3-2.2-1-2.9c-0.7-0.7-1.6-1.1-2.6-1.1c-1.1,0-2,0.4-2.8,1.1
		c-0.8,0.7-1.1,1.7-1.1,2.9v7.5h-1.9v-13H622.5z"/>
	<path class="st1" d="M636.4,547v-11.3h-2.7v-1.7h2.7v-4.7h2v4.7h3v1.7h-3V547H636.4z"/>
	<path class="st1" d="M643.1,544.9h2.5l-2.3,5.5h-1.8L643.1,544.9z"/>
	<path class="st1" d="M380.7,561c1,0,2,0.2,3,0.6c1,0.4,1.8,1,2.5,1.7c1.6,1.7,2.4,3.8,2.4,6.3s-0.8,4.7-2.4,6.3
		c-0.7,0.7-1.6,1.3-2.5,1.7c-1,0.4-1.9,0.6-3,0.6h-7.3V561H380.7z M380.6,576.4c1.8,0,3.3-0.7,4.4-2c1.1-1.3,1.6-2.9,1.6-4.8
		s-0.5-3.5-1.6-4.8c-1.1-1.3-2.6-2-4.4-2h-5.2v13.5H380.6z"/>
	<path class="st1" d="M397.1,576.6c1.8,0,3-0.7,3.8-2.2h2.1c-0.5,1.2-1.2,2.1-2.1,2.9c-1,0.7-2.2,1.1-3.8,1.1c-2,0-3.6-0.7-4.8-2
		c-1.2-1.3-1.8-2.9-1.8-4.8c0-1.9,0.6-3.5,1.7-4.8c1.2-1.3,2.8-2,4.7-2s3.5,0.7,4.7,2c1.1,1.2,1.7,2.8,1.7,4.8v0.8h-10.9
		c0.1,1.2,0.6,2.2,1.4,3C394.8,576.2,395.8,576.6,397.1,576.6z M396.9,566.7c-1.2,0-2.2,0.4-3,1.1c-0.8,0.7-1.2,1.6-1.4,2.8h8.8
		c-0.2-1.1-0.6-2.1-1.4-2.8C399.2,567.1,398.1,566.7,396.9,566.7z M396.7,560.6h2.8l-2.8,2.7h-1.6L396.7,560.6z"/>
	<path class="st1" d="M411.8,576.6c0.8,0,1.6-0.2,2.2-0.7c0.6-0.5,1.1-1.1,1.4-1.8h2.1c-0.4,1.3-1.1,2.3-2.2,3.1
		c-1.1,0.8-2.4,1.2-4,1.2c-1.9,0-3.5-0.7-4.7-2c-1.2-1.3-1.7-2.9-1.7-4.8c0-1.9,0.6-3.5,1.7-4.8c1.2-1.3,2.7-2,4.7-2
		c1.5,0,2.8,0.4,4,1.2c1.1,0.8,1.8,1.8,2.2,3.1h-2.1c-0.3-0.7-0.8-1.4-1.4-1.8c-0.6-0.5-1.4-0.7-2.2-0.7s-1.5,0.1-2.1,0.4
		c-0.6,0.3-1.1,0.6-1.5,1.1c-0.8,0.9-1.3,2.1-1.3,3.5c0,1.4,0.4,2.6,1.3,3.5C409.1,576.2,410.3,576.6,411.8,576.6z"/>
	<path class="st1" d="M425.6,565c1.9,0,3.5,0.7,4.7,2c1.1,1.2,1.7,2.8,1.7,4.8s-0.6,3.5-1.7,4.8c-1.2,1.3-2.8,2-4.7,2
		s-3.5-0.7-4.7-2c-1.1-1.2-1.7-2.8-1.7-4.8s0.6-3.5,1.7-4.8C422.1,565.6,423.6,565,425.6,565z M425.6,576.6c1.4,0,2.5-0.5,3.3-1.5
		c0.8-0.9,1.2-2.1,1.2-3.5c0-1.4-0.4-2.6-1.2-3.5c-0.8-1-1.9-1.5-3.3-1.5s-2.5,0.5-3.3,1.5c-0.8,0.9-1.2,2.1-1.2,3.5
		c0,1.4,0.4,2.6,1.2,3.5C423.1,576.2,424.2,576.6,425.6,576.6z"/>
	<path class="st1" d="M441.5,565v2h-0.2c-1.4,0-2.5,0.6-3.4,1.7c-0.8,1.1-1.2,2.4-1.2,3.9v5.7h-1.9v-13h1.9v3.2
		c0.4-1.4,1.3-2.4,2.7-3c0.6-0.3,1.3-0.4,2.1-0.4H441.5z"/>
	<path class="st1" d="M453.4,576.1c-1,1.5-2.6,2.3-4.7,2.3c-1.9,0-3.4-0.7-4.6-2c-1.1-1.3-1.7-2.9-1.7-4.8c0-1.9,0.6-3.5,1.7-4.8
		c1.2-1.3,2.7-2,4.7-2s3.5,0.8,4.5,2.3v-2.1h2v13h-2V576.1z M449,576.6c1.4,0,2.5-0.5,3.3-1.5c0.8-0.9,1.2-2.1,1.2-3.5
		c0-1.4-0.4-2.6-1.2-3.5c-0.8-1-1.9-1.5-3.3-1.5c-1.4,0-2.5,0.5-3.4,1.5c-0.8,0.9-1.2,2.1-1.2,3.5c0,1.4,0.4,2.6,1.2,3.5
		C446.5,576.2,447.6,576.6,449,576.6z"/>
	<path class="st1" d="M460.1,578.2v-11.3h-2.7v-1.7h2.7v-4.7h2v4.7h3v1.7h-3v11.3H460.1z"/>
	<path class="st1" d="M469.2,560.4v2.6h-2.1v-2.6H469.2z M467.2,565.2h1.9v13h-1.9V565.2z"/>
	<path class="st1" d="M478.1,565c1.9,0,3.5,0.7,4.7,2c1.1,1.2,1.7,2.8,1.7,4.8s-0.6,3.5-1.7,4.8c-1.2,1.3-2.8,2-4.7,2
		s-3.5-0.7-4.7-2c-1.1-1.2-1.7-2.8-1.7-4.8s0.6-3.5,1.7-4.8C474.6,565.6,476.2,565,478.1,565z M478.1,576.6c1.4,0,2.5-0.5,3.3-1.5
		c0.8-0.9,1.2-2.1,1.2-3.5c0-1.4-0.4-2.6-1.2-3.5c-0.8-1-1.9-1.5-3.3-1.5s-2.5,0.5-3.3,1.5c-0.8,0.9-1.2,2.1-1.2,3.5
		c0,1.4,0.4,2.6,1.2,3.5C475.6,576.2,476.7,576.6,478.1,576.6z"/>
	<path class="st1" d="M489.1,565.2v2c0.5-0.6,1-1.2,1.7-1.6c0.7-0.4,1.4-0.7,2.3-0.7c0.9,0,1.6,0.1,2.2,0.4s1.2,0.6,1.6,1.1
		c1.1,1.1,1.6,2.5,1.6,4.2v7.6h-2v-7.5c0-1.2-0.3-2.2-1-2.9c-0.7-0.7-1.6-1.1-2.6-1.1c-1.1,0-2,0.4-2.8,1.1
		c-0.8,0.7-1.1,1.7-1.1,2.9v7.5h-1.9v-13H489.1z"/>
</g>
</svg>
